<svg width="58" height="58" viewBox="0 0 58 58" fill="none" xmlns="http://www.w3.org/2000/svg">
<circle cx="29" cy="29" r="29" fill="#FFFAF1"/>
<path d="M41.0909 20.3636H17.0909C16.4884 20.3636 16 20.852 16 21.4545V38.9091C16 39.5116 16.4884 40 17.0909 40H41.0909C41.6934 40 42.1818 39.5116 42.1818 38.9091V21.4545C42.1818 20.852 41.6934 20.3636 41.0909 20.3636Z" stroke="#AF862E" stroke-width="2" stroke-linecap="round" stroke-linejoin="round"/>
<path d="M34.5458 20.3636V18.1818C34.5458 17.6032 34.3159 17.0482 33.9068 16.639C33.4976 16.2299 32.9426 16 32.364 16H25.8185C25.2399 16 24.6849 16.2299 24.2758 16.639C23.8666 17.0482 23.6367 17.6032 23.6367 18.1818V20.3636" stroke="#AF862E" stroke-width="2" stroke-linecap="round" stroke-linejoin="round"/>
<path d="M42.1818 27.7682C38.2031 30.0692 33.6871 31.2782 29.0909 31.2727C24.4939 31.2847 19.9762 30.0753 16 27.7682" stroke="#AF862E" stroke-width="2" stroke-linecap="round" stroke-linejoin="round"/>
<path d="M27.4551 26.9091H30.7278" stroke="#AF862E" stroke-width="2" stroke-linecap="round" stroke-linejoin="round"/>
</svg>
