<svg width="221" height="158" viewBox="0 0 221 158" fill="none" xmlns="http://www.w3.org/2000/svg">
<path d="M34.6556 61.551C26.3906 74.1505 21.2931 88.561 19.7975 103.555C18.3018 118.549 20.4522 133.682 26.0655 147.666L65.1497 131.978C62.0648 124.292 60.883 115.976 61.705 107.735C62.527 99.4951 65.3284 91.5756 69.8706 84.6514L34.6556 61.551Z" fill="#FF8800"/>
<path d="M111.227 19.3495C96.161 19.6087 81.3806 23.5055 68.1449 30.7078C54.9092 37.9102 43.6103 48.2048 35.2105 60.7149L70.1755 84.1919C74.7917 77.3167 81.0012 71.6592 88.2751 67.701C95.549 63.7428 103.672 61.6013 111.952 61.4588L111.227 19.3495Z" fill="#D9A81F"/>
<g filter="url(#filter0_d_157_1178)">
<path d="M189.653 59.5307C181.062 47.1509 169.607 37.0308 156.262 30.0322C142.917 23.0336 128.079 19.364 113.01 19.3359L112.932 61.4513C121.213 61.4668 129.368 63.4835 136.701 67.3297C144.035 71.1758 150.331 76.7375 155.052 83.5411L189.653 59.5307Z" fill="#7CA726"/>
</g>
<path d="M200.008 146.647C205.457 132.599 207.43 117.441 205.759 102.466C204.088 87.4901 198.822 73.1403 190.41 60.6385L155.468 84.1499C160.091 91.0205 162.985 98.9066 163.903 107.137C164.822 115.367 163.737 123.697 160.743 131.417L200.008 146.647Z" fill="#4B8227"/>
<path d="M182.731 95.9826L182.295 91.8354L180.238 91.3577L180.008 89.1648L190.829 91.8132L191.085 94.2448L181.051 99.0852L180.819 96.8773L182.731 95.9826ZM184.342 95.2401L188.539 93.2756L184.025 92.2267L184.342 95.2401Z" fill="white"/>
<path d="M183.853 106.661L183.417 102.514L181.361 102.036L181.13 99.8433L191.951 102.492L192.207 104.923L182.173 109.764L181.941 107.556L183.853 106.661ZM185.464 105.919L189.662 103.954L185.147 102.905L185.464 105.919Z" fill="white"/>
<path d="M184.975 117.34L184.539 113.192L182.483 112.715L182.253 110.522L193.074 113.17L193.329 115.602L183.295 120.442L183.063 118.234L184.975 117.34ZM186.586 116.597L190.784 114.633L186.27 113.584L186.586 116.597Z" fill="white"/>
<path d="M141.872 52.695L137.994 51.1619L136.619 52.7635L134.569 51.9528L141.925 43.5863L144.199 44.4852L143.845 55.6201L141.781 54.8039L141.872 52.695ZM141.96 50.9231L142.161 46.2929L139.142 49.8091L141.96 50.9231Z" fill="white"/>
<path d="M151.858 56.6425L147.98 55.1094L146.605 56.711L144.554 55.9004L151.91 47.5339L154.184 48.4328L153.831 59.5677L151.766 58.7515L151.858 56.6425ZM151.945 54.8706L152.147 50.2404L149.128 53.7567L151.945 54.8706Z" fill="white"/>
<path d="M81.7444 52.3024L78.3379 54.7075L78.9249 56.7352L77.1236 58.007L74.1518 47.2702L76.1492 45.86L85.2722 52.2537L83.4587 53.5341L81.7444 52.3024ZM80.3098 51.2587L76.5459 48.5545L77.8346 53.0063L80.3098 51.2587Z" fill="white"/>
<path d="M39.5505 111.441C39.6916 110.857 40.012 110.389 40.5114 110.035C41.0109 109.681 41.5702 109.52 42.1893 109.553C42.7486 109.583 43.2354 109.749 43.65 110.051C44.0551 110.343 44.3636 110.755 44.5757 111.287C44.7878 111.819 44.875 112.44 44.8373 113.149L44.5978 117.657L34.1426 117.102L34.3717 112.788C34.4094 112.079 34.5566 111.476 34.8133 110.979C35.0706 110.472 35.4108 110.099 35.834 109.861C36.2578 109.613 36.7293 109.503 37.2486 109.531C37.8577 109.563 38.3582 109.755 38.7502 110.106C39.1426 110.448 39.4094 110.892 39.5505 111.441ZM38.5679 115.234L38.6697 113.317C38.6963 112.817 38.6068 112.427 38.4015 112.146C38.1861 111.864 37.8687 111.712 37.4493 111.69C37.0299 111.667 36.6982 111.785 36.4542 112.042C36.2102 112.3 36.075 112.678 36.0484 113.177L35.9466 115.095L38.5679 115.234ZM43.1138 113.357C43.1409 112.848 43.042 112.447 42.8172 112.155C42.5929 111.853 42.2611 111.69 41.8217 111.667C41.3723 111.643 41.0149 111.774 40.7493 112.06C40.4738 112.346 40.3225 112.743 40.2954 113.253L40.1856 115.32L43.0016 115.469L43.1138 113.357Z" fill="white"/>
<path d="M40.0618 101.816C40.2029 101.232 40.5233 100.764 41.0227 100.41C41.5222 100.056 42.0815 99.895 42.7006 99.9279C43.2599 99.9576 43.7467 100.124 44.1613 100.426C44.5664 100.718 44.8749 101.13 45.087 101.662C45.2991 102.194 45.3863 102.814 45.3486 103.523L45.1091 108.032L34.6539 107.477L34.883 103.163C34.9207 102.454 35.0679 101.851 35.3246 101.354C35.5819 100.847 35.9221 100.474 36.3453 100.236C36.7691 99.9884 37.2406 99.8782 37.7599 99.9058C38.369 99.9382 38.8695 100.13 39.2615 100.481C39.6539 100.823 39.9207 101.267 40.0618 101.816ZM39.0792 105.609L39.181 103.692C39.2076 103.192 39.1181 102.802 38.9128 102.521C38.6974 102.239 38.38 102.087 37.9606 102.064C37.5412 102.042 37.2095 102.16 36.9655 102.417C36.7215 102.675 36.5863 103.053 36.5597 103.552L36.4579 105.47L39.0792 105.609ZM43.6251 103.732C43.6522 103.223 43.5533 102.822 43.3285 102.53C43.1042 102.228 42.7724 102.065 42.333 102.041C41.8837 102.018 41.5262 102.149 41.2606 102.435C40.9851 102.721 40.8338 103.118 40.8067 103.628L40.6969 105.695L43.5129 105.844L43.6251 103.732Z" fill="white"/>
<path d="M40.5731 92.1905C40.7142 91.6072 41.0346 91.1385 41.534 90.7845C42.0335 90.4305 42.5928 90.2699 43.212 90.3028C43.7712 90.3325 44.258 90.4986 44.6726 90.801C45.0777 91.0929 45.3862 91.5049 45.5983 92.0369C45.8104 92.5689 45.8976 93.1894 45.8599 93.8984L45.6204 98.407L35.1652 97.8516L35.3943 93.5377C35.432 92.8287 35.5792 92.2256 35.8359 91.7286C36.0932 91.2215 36.4334 90.849 36.8566 90.6111C37.2804 90.3633 37.7519 90.2531 38.2712 90.2807C38.8803 90.3131 39.3808 90.5049 39.7728 90.8562C40.1652 91.1975 40.432 91.6422 40.5731 92.1905ZM39.5905 95.9837L39.6923 94.0664C39.7189 93.5671 39.6294 93.1768 39.4241 92.8955C39.2087 92.6137 38.8913 92.4617 38.4719 92.4394C38.0525 92.4171 37.7208 92.5347 37.4768 92.7921C37.2328 93.0495 37.0976 93.4279 37.071 93.9272L36.9692 95.8445L39.5905 95.9837ZM44.1364 94.1072C44.1635 93.5979 44.0646 93.1971 43.8398 92.9048C43.6155 92.6025 43.2837 92.4396 42.8443 92.4163C42.395 92.3924 42.0375 92.5237 41.7719 92.81C41.4964 93.0958 41.3451 93.4933 41.318 94.0026L41.2082 96.0697L44.0242 96.2193L44.1364 94.1072Z" fill="white"/>
<defs>
<filter id="filter0_d_157_1178" x="112.932" y="13.3359" width="80.7207" height="70.2052" filterUnits="userSpaceOnUse" color-interpolation-filters="sRGB">
<feFlood flood-opacity="0" result="BackgroundImageFix"/>
<feColorMatrix in="SourceAlpha" type="matrix" values="0 0 0 0 0 0 0 0 0 0 0 0 0 0 0 0 0 0 127 0" result="hardAlpha"/>
<feOffset dx="4" dy="-6"/>
<feComposite in2="hardAlpha" operator="out"/>
<feColorMatrix type="matrix" values="0 0 0 0 0.137255 0 0 0 0 0.12549 0 0 0 0 0.12549 0 0 0 1 0"/>
<feBlend mode="normal" in2="BackgroundImageFix" result="effect1_dropShadow_157_1178"/>
<feBlend mode="normal" in="SourceGraphic" in2="effect1_dropShadow_157_1178" result="shape"/>
</filter>
</defs>
</svg>
