<svg width="13" height="13" viewBox="0 0 13 13" fill="none" xmlns="http://www.w3.org/2000/svg">
<path d="M4.36729 6.82909C4.8744 7.8763 5.72118 8.72092 6.76969 9.22533C6.84703 9.26195 6.93258 9.2778 7.01791 9.27132C7.10323 9.26484 7.1854 9.23625 7.25633 9.18837L8.79632 8.15965C8.86436 8.1135 8.94299 8.08535 9.02485 8.07781C9.10672 8.07027 9.18916 8.08359 9.26448 8.11653L12.1474 9.35469C12.2459 9.3957 12.3282 9.46796 12.3816 9.56034C12.4351 9.65273 12.4566 9.76012 12.443 9.86597C12.3517 10.5791 12.0036 11.2346 11.4639 11.7096C10.9242 12.1847 10.2299 12.4468 9.51088 12.447C7.28901 12.447 5.15814 11.5644 3.58704 9.99327C2.01594 8.42216 1.1333 6.29129 1.1333 4.06942C1.13346 3.35043 1.3956 2.65612 1.87067 2.11643C2.34573 1.57674 3.00117 1.22864 3.71434 1.13727C3.82019 1.12367 3.92757 1.14525 4.01996 1.19867C4.11235 1.2521 4.18461 1.33442 4.22561 1.43295L5.46377 4.32198C5.49597 4.39611 5.50944 4.47703 5.50299 4.5576C5.49655 4.63816 5.47039 4.71591 5.42681 4.78398L4.39809 6.34862C4.35229 6.41938 4.32541 6.50072 4.32002 6.58484C4.31463 6.66896 4.33091 6.75306 4.36729 6.82909V6.82909Z" stroke="white" stroke-linecap="round" stroke-linejoin="round"/>
</svg>
