<svg width="118" height="118" viewBox="0 0 118 118" fill="none" xmlns="http://www.w3.org/2000/svg">
<circle cx="59" cy="59" r="59" fill="#AF862E"/>
<path d="M72.2544 69.1329C77.8951 73.4031 81.9635 79.4271 86.9541 84.4603C88.1115 85.6288 89.5078 86.8195 91.1411 86.751C92.5799 86.6899 93.8929 85.4973 94.1132 84.0529C94.2891 82.8918 93.8132 81.7085 93.091 80.7919C92.3688 79.8715 91.4188 79.1715 90.4874 78.4753C85.1412 74.4753 80.0098 70.1828 75.1229 65.6218C74.1359 66.7644 73.1489 67.9051 72.2544 69.1329Z" fill="white"/>
<path d="M72.8156 69.0532C76.2915 71.7531 79.2118 75.1401 82.0414 78.4196C83.7061 80.3511 85.4283 82.3473 87.2412 84.1769C88.3394 85.2843 89.6634 86.4157 91.1226 86.3454C92.3615 86.2935 93.5244 85.238 93.7133 83.9936C93.8541 83.0584 93.5115 81.9807 92.7726 81.0399C92.1041 80.1881 91.1986 79.5122 90.3208 78.8567L90.2449 78.7992C85.0209 74.8901 79.9451 70.6531 75.1526 66.2032C74.3582 67.1254 73.5527 68.0698 72.8156 69.0532ZM91.0041 87.1565C89.2931 87.1565 87.8542 85.9435 86.6672 84.7454C84.8357 82.8973 83.1043 80.8899 81.4284 78.9474C78.5433 75.6012 75.5582 72.1401 72.0101 69.455C71.8342 69.3217 71.799 69.0735 71.9286 68.8958C72.8304 67.655 73.8378 66.4903 74.8119 65.3625C74.8841 65.2792 74.9878 65.2273 75.0989 65.2218C75.2082 65.2162 75.3174 65.2514 75.3971 65.3273C80.2581 69.8624 85.4154 74.1753 90.7282 78.1511L90.806 78.2085C91.7245 78.8955 92.6745 79.6066 93.4078 80.5418C94.2855 81.6566 94.6874 82.9584 94.5115 84.1139C94.2633 85.7491 92.7911 87.0843 91.1578 87.1546C91.106 87.1565 91.0541 87.1565 91.0041 87.1565Z" fill="#232020"/>
<path d="M62.5824 37.9502C62.1862 54.161 62.6065 70.3866 63.1009 86.7584C51.029 86.6269 37.5034 86.5918 25.3851 87.3454C25.4481 70.6791 24.4036 55.7665 24.4036 37.9428C36.9478 37.5558 49.4994 37.4113 62.5824 37.9502Z" fill="white"/>
<path d="M24.8074 38.3354C24.8166 46.9852 25.0685 55.0128 25.3129 62.7793C25.5703 70.9328 25.8129 78.64 25.7907 86.9158C37.5664 86.2029 50.4624 86.2195 62.6844 86.351C62.1955 70.1069 61.7936 54.2035 62.1695 38.3391C51.0328 37.8909 39.4719 37.8891 24.8074 38.3354ZM25.3852 87.7491C25.2815 87.7491 25.1833 87.7102 25.1074 87.6399C25.0259 87.5639 24.9796 87.4565 24.9796 87.3436C25.0129 78.9197 24.7667 71.0921 24.5055 62.8052C24.2574 54.9146 24 46.7556 24 37.9428C24 37.7243 24.1722 37.5465 24.3907 37.5391C39.4367 37.0761 51.2216 37.078 62.5992 37.5465C62.8195 37.5558 62.9918 37.7391 62.9862 37.9613C62.5918 54.0758 63.0066 70.2328 63.5066 86.7473C63.5084 86.8565 63.4677 86.9639 63.3899 87.0417C63.314 87.1213 63.2066 87.1584 63.0973 87.1639C50.6161 87.0269 37.4127 87.0028 25.4092 87.7491H25.3852Z" fill="#232020"/>
<path d="M69.3028 68.6773C69.4509 69.6106 69.9972 70.4736 70.7787 71.0069C71.0453 71.1902 71.3527 71.3384 71.6749 71.3254C71.9897 71.3143 72.2786 71.1495 72.5434 70.9754C74.236 69.8588 75.4878 68.1996 76.7026 66.5755C77.0507 66.1107 77.4081 65.6274 77.5378 65.0607C77.6359 64.6256 77.5933 64.1663 77.46 63.7404C77.0896 62.5608 75.8082 61.6127 74.623 61.9664C74.0008 62.1534 73.5212 62.6423 73.0823 63.1237C71.8879 64.4367 70.7787 65.8274 69.7657 67.2848C69.3954 67.8181 69.0194 68.4329 69.3028 68.6773Z" fill="#AF862E"/>
<path d="M69.6082 68.4125C69.6564 68.4681 69.6897 68.5385 69.7008 68.6125C69.8323 69.4347 70.3212 70.2051 71.0064 70.6736C71.2619 70.8477 71.4823 70.931 71.6582 70.9217C71.873 70.9143 72.1045 70.781 72.3212 70.6384C73.9748 69.5477 75.197 67.9144 76.3785 66.3348C76.6988 65.9052 77.0303 65.4626 77.1433 64.97C77.2192 64.633 77.197 64.2497 77.0729 63.8608C76.7766 62.9089 75.7155 62.0627 74.7396 62.3534C74.2211 62.509 73.8008 62.9349 73.3822 63.396C72.2026 64.6904 71.0971 66.0774 70.0971 67.5163C69.6934 68.0959 69.6175 68.3255 69.6082 68.4125ZM71.636 71.731C71.2878 71.731 70.9323 71.6032 70.5508 71.3402C69.7175 70.7717 69.1157 69.8514 68.9231 68.8588C68.5435 68.3348 69.1157 67.5126 69.4323 67.0552C70.4545 65.5867 71.5804 64.1737 72.7841 62.8515C73.2637 62.3256 73.7896 61.7942 74.5081 61.5793C75.9637 61.1442 77.434 62.3053 77.8451 63.62C78.0099 64.1441 78.0395 64.6737 77.9321 65.1496C77.7803 65.8107 77.3803 66.3459 77.0266 66.8181C75.86 68.3773 74.5378 70.144 72.7656 71.3125C72.4508 71.5199 72.1026 71.7143 71.6897 71.7291L71.636 71.731Z" fill="#232020"/>
<path d="M67.5621 66.8847C58.8715 73.1475 47.7569 69.5124 44.3459 61.7904C41.77 55.9572 42.12 50.3147 42.7533 48.3573C43.8052 45.1074 46.7718 38.5575 53.0902 36.5261C60.7474 34.0632 66.4658 36.6742 69.2731 38.9483C72.0786 41.2241 74.0434 44.513 74.7138 48.0629C75.9952 54.8387 73.1545 62.8533 67.5621 66.8847ZM57.4567 31.4503C49.7106 31.8669 42.7552 37.7279 39.746 44.8796C36.7349 52.0313 37.8312 60.7515 42.52 66.9347C45.5977 70.9957 51.9254 74.4623 60.2511 73.5401C66.0677 72.8957 71.2064 69.0939 74.5452 64.2866C77.1767 60.4996 78.8526 55.9886 78.9433 51.3776C79.0359 46.7648 76.4971 30.4281 57.4567 31.4503Z" fill="white"/>
<path d="M67.562 66.8848H67.5639H67.562ZM59.1437 35.9391C57.3641 35.9391 55.3808 36.2132 53.2142 36.9095C46.8347 38.9613 44.0422 45.6871 43.1385 48.4814C42.5552 50.2851 42.1718 55.8702 44.7144 61.6256C46.294 65.2015 49.7032 68.0051 53.8327 69.1255C58.4159 70.3699 63.3325 69.4347 67.325 66.557C72.6656 62.7071 75.6063 54.9609 74.3174 48.1389C73.6675 44.7 71.736 41.4649 69.0194 39.2631C67.8676 38.3298 64.3991 35.9391 59.1437 35.9391ZM57.8733 70.4736C56.4475 70.4736 55.0197 70.2865 53.6216 69.9069C49.2569 68.7218 45.6532 65.7477 43.9755 61.9534C41.433 56.198 41.6404 50.4833 42.37 48.2333C43.3125 45.3186 46.231 38.3057 52.966 36.141C61.9251 33.2596 67.9065 37.3206 69.5268 38.6354C72.3916 40.9557 74.4267 44.3649 75.1119 47.987C76.4563 55.1035 73.3804 63.1885 67.7972 67.2125C64.8232 69.3569 61.3566 70.4736 57.8733 70.4736ZM57.4789 31.854C50.2513 32.2429 43.2737 37.5391 40.1182 45.0371C37.1479 52.0906 38.2164 60.5904 42.8403 66.6903C45.6718 70.4236 51.7179 74.0772 60.2066 73.1383C65.5084 72.5495 70.612 69.2403 74.2137 64.057C76.9174 60.1608 78.4544 55.6554 78.5396 51.3684C78.6044 48.0796 77.4433 41.2816 72.6786 36.6743C69.012 33.1318 63.8991 31.5096 57.4789 31.854ZM57.5437 74.0957C50.1568 74.0957 44.844 70.6699 42.1978 67.1792C37.4016 60.8534 36.2923 52.0388 39.3719 44.7241C42.6459 36.9484 49.905 31.4503 57.4363 31.0466C64.0899 30.6892 69.4064 32.3874 73.2397 36.0928C78.2062 40.8927 79.4155 47.9629 79.3488 51.3851C79.2581 55.8924 77.7118 60.4349 74.8767 64.5181C71.1434 69.894 65.8287 73.3291 60.2955 73.942C59.3492 74.0457 58.4307 74.0957 57.5437 74.0957Z" fill="#232020"/>
<path d="M30.6628 50.1907C30.4443 50.1907 30.2647 50.0166 30.2591 49.7981C30.2517 49.5759 30.4276 49.3888 30.6499 49.3814L37.0201 49.1925C37.2516 49.1796 37.4293 49.3611 37.4367 49.5833C37.4442 49.8074 37.2682 49.9944 37.0442 49.9999L30.6739 50.1907H30.6628Z" fill="#232020"/>
<path d="M45.4588 49.8852C45.3329 49.8852 45.2107 49.8259 45.131 49.7185C44.9996 49.5371 45.0403 49.2852 45.2199 49.1537L46.731 48.0556C46.8347 47.9815 46.9921 47.8667 47.2162 47.8149C47.6865 47.7038 48.1236 47.9112 48.4125 48.076L49.9754 48.9686C50.5143 48.4649 51.205 48.013 51.992 47.6501C52.0624 47.6167 52.2105 47.5482 52.392 47.5482H52.3994C52.6957 47.5519 52.8827 47.7204 52.9624 47.7927C53.4198 48.2056 54.0235 48.576 54.7179 48.8667C55.3475 48.4482 56.0604 48.0704 56.8345 47.7464C56.9623 47.6927 57.1086 47.7075 57.2234 47.7871C57.8123 48.2001 58.3456 48.6445 58.8085 49.1111C58.9659 49.2686 58.9659 49.526 58.8067 49.6815C58.6493 49.8408 58.3937 49.8389 58.2363 49.6815C57.853 49.2963 57.4197 48.9278 56.9419 48.5797C56.2234 48.8945 55.5716 49.2556 54.9975 49.6556C54.8864 49.7315 54.7457 49.7482 54.6197 49.7C53.7531 49.3611 52.992 48.9093 52.4198 48.3926L52.3827 48.3612L52.3327 48.3834C51.5198 48.7575 50.8291 49.2297 50.3328 49.75C50.205 49.8852 50.0013 49.9148 49.8402 49.8222L48.0106 48.7778C47.9125 48.7223 47.618 48.5519 47.4014 48.6019C47.3403 48.6167 47.2866 48.6519 47.2069 48.7112L45.6959 49.8074C45.6236 49.8593 45.5403 49.8852 45.4588 49.8852Z" fill="#232020"/>
<path d="M45.9681 58.3683C45.8366 58.3683 45.707 58.3054 45.6292 58.1869C45.507 58.0017 45.557 57.7498 45.744 57.6276L47.2551 56.6295C47.3569 56.561 47.5125 56.4573 47.7347 56.411C48.1921 56.3128 48.6236 56.498 48.9069 56.648L50.4883 57.4683C51.0291 57.0072 51.7216 56.5906 52.5142 56.2591C52.6253 56.2128 52.7494 56.1702 52.9013 56.1702H52.9087C53.1938 56.1702 53.379 56.3239 53.4568 56.3906C53.9179 56.7684 54.529 57.1072 55.2308 57.3739C55.8623 56.9887 56.5771 56.6443 57.3567 56.348C57.4752 56.3017 57.6104 56.3147 57.7178 56.3832C58.3067 56.7591 58.84 57.1647 59.3048 57.5887C59.4696 57.7406 59.4807 57.9961 59.3289 58.1609C59.1789 58.3257 58.9233 58.3368 58.7585 58.185C58.3752 57.8332 57.9363 57.4943 57.4549 57.1758C56.7308 57.4646 56.0697 57.7961 55.4919 58.1628C55.3882 58.2294 55.2568 58.2443 55.1401 58.2017C54.2753 57.8943 53.5161 57.4832 52.9438 57.0128L52.892 56.9758L52.8272 57.0054C52.0161 57.3461 51.3235 57.7757 50.8291 58.248C50.7032 58.3683 50.5161 58.3943 50.3624 58.3146L48.5347 57.3646C48.4328 57.3109 48.131 57.1517 47.9032 57.2017C47.8365 57.2146 47.7828 57.2498 47.7014 57.3035L46.1903 58.3017C46.1199 58.348 46.044 58.3683 45.9681 58.3683Z" fill="#232020"/>
<path d="M50.0383 67.2014C49.9235 67.2014 49.8087 67.1514 49.7291 67.057C49.5847 66.8866 49.605 66.6329 49.7754 66.4885L51.2865 65.207C51.392 65.1181 51.5513 64.9848 51.7809 64.9218C52.329 64.7718 52.8457 65.1163 53.0161 65.2311L54.5494 66.2533C55.0845 65.6737 55.7697 65.1514 56.5493 64.7329C56.6234 64.6922 56.7771 64.6107 56.9715 64.6107H56.9789C57.2919 64.6126 57.49 64.82 57.5641 64.8996C58.0641 65.4255 58.7382 65.8922 59.5141 66.244C59.7178 66.3366 59.8067 66.5773 59.7141 66.781C59.6215 66.9829 59.3826 67.0736 59.1789 66.981C58.3104 66.5847 57.5493 66.057 56.9771 65.4551L56.9549 65.4329L56.9326 65.444C56.1215 65.8811 55.4308 66.4329 54.9327 67.0421C54.8012 67.2033 54.5697 67.2384 54.3957 67.1218L52.5661 65.9033C52.3142 65.7348 52.1216 65.6681 51.9957 65.7014C51.9402 65.7162 51.8883 65.7588 51.8087 65.8255L50.2995 67.1051C50.2217 67.1681 50.1291 67.2014 50.0383 67.2014Z" fill="#232020"/>
<path d="M30.9999 58.3684C30.7813 58.3684 30.6017 58.1943 30.5962 57.9739C30.5906 57.7517 30.7665 57.5665 30.9906 57.561L36.8646 57.4202C37.0868 57.4276 37.2738 57.5906 37.2794 57.8147C37.2831 58.0369 37.1071 58.2221 36.8831 58.2276L31.0091 58.3684H30.9999Z" fill="#232020"/>
<path d="M31.4683 67.7144C31.2535 67.7144 31.0739 67.5459 31.0646 67.3292C31.0535 67.107 31.2257 66.9162 31.4498 66.907C34.2534 66.7755 37.0997 66.7162 39.9033 66.7329C40.1274 66.7348 40.307 66.9162 40.3051 67.1385C40.3051 67.3625 40.1237 67.5403 39.9014 67.5403H39.8996C37.1089 67.5255 34.2775 67.5847 31.4868 67.7144H31.4683Z" fill="#232020"/>
<path d="M31.4684 77.0827C31.2517 77.0827 31.0721 76.9086 31.0647 76.6901C31.0573 76.4679 31.2313 76.2809 31.4554 76.2734C40.7163 75.9753 50.705 75.7827 56.903 75.7827C57.1252 75.7827 57.3067 75.9642 57.3067 76.1883C57.3067 76.4105 57.1252 76.592 56.903 76.592C50.7142 76.592 40.7348 76.7845 31.4813 77.0827H31.4684Z" fill="#232020"/>
<path d="M76.5192 71.4976L76.497 71.4957C76.4229 71.4828 76.3729 71.4143 76.3859 71.3402L76.8044 68.8569C76.8174 68.7828 76.8877 68.7347 76.96 68.7458C77.034 68.7588 77.0822 68.8273 77.0711 68.9013L76.6526 71.3865C76.6414 71.4513 76.584 71.4976 76.5192 71.4976Z" fill="#232020"/>
<path d="M78.2469 73.692H78.2395C78.1655 73.6883 78.1081 73.6254 78.1118 73.5513C78.1673 72.3958 78.2525 71.2236 78.3655 70.0662C78.3729 69.9921 78.4451 69.9421 78.5118 69.9458C78.5858 69.9532 78.6414 70.0199 78.634 70.0921C78.521 71.2458 78.4358 72.4143 78.3803 73.5643C78.3766 73.6365 78.3173 73.692 78.2469 73.692Z" fill="#232020"/>
<path d="M80.1673 75.9827C80.0932 75.9827 80.034 75.9253 80.0321 75.8531C79.9895 74.5087 80.0636 73.1532 80.2488 71.8217C80.2599 71.7477 80.3302 71.6977 80.4006 71.7069C80.4747 71.7162 80.5265 71.7847 80.5154 71.8588C80.3321 73.1754 80.2599 74.5161 80.3025 75.8439C80.3043 75.9179 80.2451 75.9809 80.171 75.9827H80.1673Z" fill="#232020"/>
<path d="M82.1765 77.9771C82.1006 77.9771 82.0414 77.9178 82.0414 77.8437C82.0377 76.4104 82.0969 74.9605 82.2154 73.5309C82.2228 73.4568 82.2877 73.4049 82.3617 73.4086C82.4358 73.4142 82.4914 73.4809 82.4839 73.5531C82.3654 74.9753 82.3062 76.4178 82.3099 77.8419C82.3099 77.9159 82.2506 77.9771 82.1765 77.9771Z" fill="#232020"/>
<path d="M84.3856 80.7808C84.3116 80.7808 84.2505 80.7216 84.2505 80.6475L84.2042 75.1791C84.2042 75.1032 84.2634 75.0421 84.3375 75.0421H84.3394C84.4134 75.0421 84.4727 75.1013 84.4727 75.1754L84.519 80.6456C84.519 80.7197 84.4597 80.7808 84.3856 80.7808Z" fill="#232020"/>
<path d="M86.8579 82.8511C86.7838 82.8511 86.7246 82.7918 86.7227 82.7196L86.6116 77.5975C86.6098 77.5234 86.669 77.4605 86.7431 77.4586C86.8135 77.4605 86.8783 77.516 86.8801 77.5919L86.9931 82.7141C86.9931 82.7881 86.9338 82.8492 86.8598 82.8511H86.8579Z" fill="#232020"/>
<path d="M89.5393 85.2678C89.4689 85.2678 89.4097 85.2122 89.406 85.14L89.106 79.5345C89.1023 79.4586 89.1597 79.3957 89.2337 79.392C89.3078 79.3883 89.3708 79.4457 89.3745 79.5197L89.6745 85.1252C89.6782 85.1992 89.6208 85.2641 89.5467 85.2678H89.5393Z" fill="#232020"/>
<path d="M91.7337 84.6566C91.6615 84.6566 91.6004 84.5973 91.5986 84.5251L91.5282 81.6955C91.5263 81.6215 91.5856 81.5585 91.6597 81.5566H91.6634C91.7356 81.5566 91.7967 81.614 91.7986 81.6881L91.8689 84.5177C91.8708 84.5918 91.8115 84.6547 91.7374 84.6566H91.7337Z" fill="#232020"/>
<path d="M57.8714 69.6644C56.5177 69.6644 55.1604 69.4866 53.8326 69.1255C49.7031 68.0052 46.2939 65.2015 44.7143 61.6257C43.8902 59.7609 43.3736 57.9128 43.0717 56.2054C43.0162 55.7406 42.981 55.274 42.9551 54.8073C42.9032 54.6092 42.8532 54.4092 42.8032 54.211C42.5625 51.5685 42.8199 49.4648 43.1384 48.4815C43.3717 47.7612 43.7291 46.7797 44.2439 45.6834C44.255 45.6816 44.268 45.6816 44.2791 45.6816C44.4865 45.6816 44.6921 45.7575 44.8495 45.926C45.0069 46.0834 45.0995 46.3001 45.0976 46.5242C45.1198 46.9538 45.1458 47.3834 45.1661 47.813C45.2087 48.2945 45.2476 48.7167 45.2847 49.1056L45.2198 49.1537C45.0402 49.2852 44.9995 49.5371 45.131 49.7185C45.1902 49.7982 45.2735 49.8519 45.3624 49.8741C45.4846 51.0241 45.6124 52.0351 45.8272 53.8184C45.8383 53.8925 45.8569 54.0073 45.8717 54.0962C46.0291 55.0943 46.3402 56.0536 46.7031 56.9924L45.7439 57.6276C45.5569 57.7498 45.5069 58.0017 45.6291 58.1869C45.7069 58.3054 45.8365 58.3683 45.968 58.3683C46.0439 58.3683 46.1198 58.348 46.1902 58.3017L47.0124 57.7591C47.0902 57.9498 47.1716 58.1406 47.2513 58.3295C47.7531 59.5479 48.1383 60.5387 49.1401 62.0368C49.5401 62.7608 51.0938 64.1793 52.0419 64.8849C51.9567 64.8867 51.8697 64.8978 51.7808 64.9219C51.5512 64.9849 51.3919 65.1182 51.2864 65.2071L49.7753 66.4885C49.6049 66.633 49.5846 66.8867 49.729 67.057C49.8086 67.1515 49.9234 67.2015 50.0383 67.2015C50.129 67.2015 50.2216 67.1682 50.2994 67.1052L51.8086 65.8256C51.8882 65.7589 51.9401 65.7163 51.9956 65.7015C52.016 65.696 52.0401 65.6923 52.0641 65.6923C52.1882 65.6923 52.3567 65.7626 52.566 65.9034L54.3956 67.1219C54.4641 67.1682 54.5419 67.1904 54.6196 67.1904C54.7382 67.1904 54.853 67.1385 54.9326 67.0422C55.0585 66.8885 55.1955 66.7385 55.3437 66.5941C56.5992 66.9682 57.8085 67.0756 58.0381 67.1145C58.6677 67.1848 59.5269 67.307 60.0917 67.3922C60.3214 67.37 60.3436 67.3478 60.5602 67.3293C60.7565 67.2774 60.9602 67.2404 61.1547 67.2404C61.4787 67.2404 61.7806 67.3422 61.9898 67.6367L61.9991 67.6385L62.0491 67.6459C62.0991 67.6533 62.1491 67.6626 62.1973 67.6756C62.2065 68.1329 62.2158 68.5903 62.225 69.0477C60.8028 69.457 59.3399 69.6644 57.8714 69.6644Z" fill="#DEDEDE"/>
<path d="M62.2251 69.0477C62.2159 68.5903 62.2066 68.1329 62.1974 67.6755C62.7548 67.8255 63.051 68.344 62.9492 68.82C62.7085 68.9014 62.4677 68.9774 62.2251 69.0477Z" fill="#232020"/>
<path d="M56.266 69.9588C55.4086 69.9588 54.5549 69.8996 53.7179 69.6847C51.9179 69.1885 50.5346 67.9052 49.0143 66.8737C48.955 66.8422 48.8958 66.8126 48.8365 66.7793C48.581 66.6367 48.3402 66.4737 48.1032 66.3033C47.9662 66.2274 47.8273 66.1533 47.6865 66.083C47.5162 65.9904 47.4014 65.8478 47.3365 65.6885C46.5588 64.983 45.894 64.146 45.3218 63.2756C44.6718 62.2201 44.2477 61.0442 43.8218 59.885C43.2755 58.3739 43.1866 57.0461 43.0737 56.2184C43.0718 56.2128 43.0718 56.2091 43.0718 56.2054C43.3737 57.9128 43.8903 59.7609 44.7144 61.6257C46.294 65.2015 49.7032 68.0052 53.8327 69.1255C55.1604 69.4866 56.5178 69.6644 57.8715 69.6644C59.34 69.6644 60.8029 69.457 62.2251 69.0477C62.4677 68.9774 62.7084 68.9014 62.9492 68.82C62.8992 69.057 62.7473 69.2848 62.4825 69.4496C62.3455 69.531 62.1844 69.6162 61.5548 69.794C61.0548 69.894 60.54 69.9551 60.027 69.9551C59.6715 69.9551 59.3159 69.9255 58.9659 69.8588C59.0141 69.8644 59.0437 69.8681 59.0641 69.8699C59.04 69.8662 59.003 69.8607 58.9548 69.8514C58.7974 69.857 58.6307 69.8662 58.4548 69.8866C57.7289 69.9144 56.9974 69.9588 56.266 69.9588ZM42.8033 54.211C42.6255 53.4777 42.4681 52.7407 42.3626 51.9925C42.3441 51.9277 42.3348 51.8648 42.3329 51.8036C42.1459 51.4092 42.1848 50.8629 42.22 50.4444C42.2941 49.8018 42.3811 49.1574 42.5218 48.5278C42.5792 48.0685 42.8885 47.7463 43.2477 47.6408C43.2774 47.3574 43.3089 47.076 43.3385 46.7963C43.3366 46.6889 43.3626 46.5964 43.4051 46.5167C43.3922 46.0353 43.8144 45.7001 44.244 45.6834C43.7292 46.7797 43.3718 47.7611 43.1385 48.4815C42.82 49.4648 42.5626 51.5685 42.8033 54.211Z" fill="#232020"/>
<path d="M45.3625 49.874C45.2736 49.8518 45.1903 49.7981 45.131 49.7185C44.9996 49.537 45.0403 49.2852 45.2199 49.1537L45.2848 49.1055C45.3107 49.374 45.3366 49.6277 45.3625 49.874Z" fill="#232020"/>
<path d="M45.9681 58.3683C45.8366 58.3683 45.707 58.3054 45.6292 58.1869C45.507 58.0017 45.557 57.7498 45.744 57.6276L46.7032 56.9924C46.8032 57.2498 46.9069 57.5054 47.0125 57.7591L46.1903 58.3017C46.1199 58.348 46.044 58.3683 45.9681 58.3683Z" fill="#232020"/>
<path d="M50.0383 67.2014C49.9235 67.2014 49.8087 67.1514 49.7291 67.0569C49.5847 66.8866 49.605 66.6329 49.7754 66.4884L51.2865 65.207C51.392 65.1181 51.5513 64.9848 51.7809 64.9218C51.8698 64.8977 51.9568 64.8866 52.042 64.8848C52.1902 64.9959 52.3235 65.0885 52.4364 65.1588C53.0587 65.5644 53.7031 65.9384 54.3753 66.2514L54.3827 66.2533C54.4345 66.2736 54.4845 66.2958 54.5364 66.3144C54.8012 66.4218 55.0734 66.5144 55.3438 66.594C55.1956 66.7384 55.0586 66.8884 54.9327 67.0421C54.8531 67.1384 54.7382 67.1903 54.6197 67.1903C54.542 67.1903 54.4642 67.168 54.3957 67.1218L52.5661 65.9033C52.3568 65.7625 52.1883 65.6922 52.0642 65.6922C52.0402 65.6922 52.0161 65.6959 51.9957 65.7014C51.9402 65.7162 51.8883 65.7588 51.8087 65.8255L50.2995 67.1051C50.2217 67.168 50.1291 67.2014 50.0383 67.2014Z" fill="#232020"/>
<path d="M75.284 71.1568C74.9247 70.8235 74.5581 70.4976 74.1877 70.1772C75.071 69.3458 75.8358 68.3939 76.534 67.4736C76.971 67.8699 77.408 68.2661 77.8506 68.6587C77.8117 68.7458 77.758 68.8272 77.6876 68.905L77.6636 68.9384C77.5673 69.1013 77.2802 69.4365 76.9154 69.8198L77.071 68.9013C77.0821 68.8272 77.034 68.7587 76.9599 68.7458C76.9525 68.7458 76.9451 68.7439 76.9377 68.7439C76.8747 68.7439 76.8154 68.7902 76.8043 68.8569L76.5858 70.1606C76.3451 70.4013 76.0877 70.6476 75.8395 70.8735C75.6747 71.042 75.4803 71.1309 75.284 71.1568Z" fill="#DEDEDE"/>
<path d="M75.1599 71.1661C74.6488 71.1661 74.1562 70.7606 74.1211 70.2384C74.1433 70.218 74.1655 70.1976 74.1877 70.1773C74.5581 70.4976 74.9247 70.8236 75.284 71.1569C75.2433 71.1624 75.2007 71.1661 75.1599 71.1661ZM77.8506 68.6588C77.408 68.2662 76.971 67.8699 76.534 67.4736C76.5543 67.4459 76.5766 67.4181 76.5969 67.3884C76.6358 67.3718 76.6747 67.357 76.7173 67.3459C76.8062 67.3218 76.8932 67.3107 76.9784 67.3107C77.658 67.3107 78.1228 68.0551 77.8506 68.6588Z" fill="#232020"/>
<path d="M74.1211 70.2384C74.1119 70.0921 74.1378 69.9347 74.2119 69.7754C74.3248 69.4458 74.6581 69.2588 74.8859 69.0106C75.1378 68.7773 75.3841 68.5366 75.6378 68.3051C75.9915 68.0384 76.1914 67.5699 76.597 67.3884C76.5766 67.4181 76.5544 67.4458 76.534 67.4736C75.8359 68.394 75.0711 69.3458 74.1878 70.1773C74.1656 70.1976 74.1433 70.218 74.1211 70.2384Z" fill="#232020"/>
<path d="M76.5859 70.1607L76.8044 68.857C76.8156 68.7903 76.8748 68.744 76.9378 68.744C76.9452 68.744 76.9526 68.7459 76.96 68.7459C77.0341 68.7588 77.0822 68.8274 77.0711 68.9014L76.9156 69.8199C76.8119 69.931 76.7007 70.0458 76.5859 70.1607Z" fill="#232020"/>
</svg>
