<svg width="118" height="118" viewBox="0 0 118 118" fill="none" xmlns="http://www.w3.org/2000/svg">
<circle cx="59" cy="59" r="59" fill="#AF862E"/>
<path d="M29.5378 35.644V88.9809L71.2582 88.1034L71.7424 34.8877L29.5378 35.644Z" fill="white"/>
<path d="M29.777 35.8814V88.7339L71.0182 87.8677L71.5028 35.1354L29.777 35.8814ZM29.3612 89.5753C29.2524 89.5753 29.1475 89.5333 29.0693 89.457C28.9892 89.3788 28.9434 89.2719 28.9434 89.1594V35.4712C28.9434 35.2441 29.1246 35.0591 29.3535 35.0552L71.9167 34.294C72.0293 34.2864 72.1361 34.336 72.2143 34.4142C72.2925 34.4943 72.3421 34.6012 72.3364 34.7137L71.8481 88.2798C71.8442 88.505 71.663 88.6862 71.4379 88.6919L29.3688 89.5753H29.3612Z" fill="#232020"/>
<path d="M83.8371 32.8615C84.1564 32.113 84.4794 31.3645 84.8042 30.6178C84.9583 30.2576 85.1326 29.8728 85.4905 29.6786C85.8226 29.495 86.2373 29.5232 86.6117 29.5833C87.0723 29.6556 87.5843 29.8181 87.7439 30.2276C87.8944 30.6089 87.665 31.0203 87.4338 31.3663C86.9126 32.1695 86.3676 32.9604 85.8043 33.7389C85.6868 33.9066 85.5602 34.0779 85.3767 34.1802C85.2262 34.2632 85.0427 34.2932 84.8702 34.2932C84.4555 34.2932 84.0335 34.1185 83.7986 33.7936C83.5692 33.4706 83.5692 32.9992 83.8371 32.8615Z" fill="white"/>
<path d="M83.9105 33.2866C83.8848 33.3454 83.8907 33.5373 84.0075 33.7025C84.16 33.919 84.4728 34.0596 84.8034 34.0596C84.94 34.0596 85.0568 34.0368 85.1321 33.9931C85.243 33.9304 85.34 33.8032 85.4568 33.6417C86.0606 32.8098 86.6487 31.9571 87.205 31.1043C87.4129 30.7909 87.5911 30.4718 87.5 30.2458C87.4228 30.0445 87.11 29.8925 86.617 29.8147C86.3141 29.7672 85.9379 29.7311 85.6845 29.8697C85.437 30.0065 85.2845 30.3161 85.1281 30.6769L84.0887 33.0928C84.0531 33.1726 83.9917 33.241 83.9105 33.2866ZM84.8034 34.8877C84.1897 34.8877 83.6115 34.6142 83.2928 34.1716C83.0691 33.8564 82.9839 33.4499 83.0691 33.1099C83.1146 32.9295 83.2057 32.7776 83.3324 32.6674L84.3322 30.3598C84.4886 29.9913 84.7262 29.4367 85.2588 29.148C85.7458 28.8821 86.3141 28.9277 86.7536 28.9961C87.5911 29.1271 88.1118 29.45 88.3098 29.9552C88.5592 30.5972 88.1375 31.2372 87.9395 31.5449C87.3733 32.4091 86.7754 33.2733 86.1656 34.1147C86.0349 34.2989 85.8528 34.5496 85.5637 34.711C85.3499 34.8288 85.0964 34.8877 84.8034 34.8877Z" fill="black"/>
<path d="M38.264 30.7266C37.7112 30.8557 37.0891 31.0367 36.8384 31.5423C36.714 31.7914 36.7051 32.08 36.698 32.3579C36.666 33.7848 36.6323 35.2153 36.7887 36.6333C36.8456 37.1334 36.9362 37.6604 37.2615 38.0476C37.5885 38.4348 38.2266 38.6087 38.6177 38.2843C38.9412 38.0154 38.9732 37.5421 38.9803 37.1226C39.0034 35.685 39.0247 34.2473 39.0478 32.8078C39.0603 32.0496 38.9501 31.1049 38.264 30.7266Z" fill="white"/>
<path d="M38.2351 30.982C37.7547 31.0947 37.2722 31.2542 37.0973 31.5809C36.9968 31.7648 36.9908 32.0164 36.9848 32.2604C36.9486 33.7153 36.9124 35.2209 37.0873 36.6814C37.1375 37.1207 37.22 37.6144 37.5195 37.943C37.7386 38.1851 38.1969 38.3259 38.4381 38.1401C38.6572 37.973 38.6834 37.5844 38.6874 37.2352L38.7658 32.7166C38.7799 31.8418 38.603 31.258 38.2351 30.982ZM38.1567 39.0487C37.6642 39.0487 37.1637 38.8196 36.8501 38.4742C36.4119 37.9936 36.2852 37.3723 36.2149 36.7734C36.0319 35.2566 36.0701 33.7247 36.1083 32.2417C36.1143 31.9375 36.1244 31.5621 36.3134 31.2129C36.7114 30.4695 37.6923 30.2574 38.217 30.1429C38.3215 30.1203 38.4321 30.1335 38.5286 30.1823C39.2904 30.5728 39.6643 31.4288 39.6422 32.7298L39.5658 37.2484C39.5598 37.6332 39.5457 38.3522 38.9949 38.7746C38.7477 38.9642 38.4522 39.0487 38.1567 39.0487Z" fill="#232020"/>
<path d="M51.3407 30.7266C50.7856 30.8557 50.1664 31.0367 49.9156 31.5423C49.7875 31.7914 49.7786 32.08 49.775 32.3579C49.743 33.7848 49.711 35.2153 49.8658 36.6333C49.9209 37.1334 50.0117 37.6604 50.339 38.0476C50.6682 38.4348 51.3051 38.6087 51.6965 38.2843C52.0204 38.0154 52.0524 37.5421 52.0559 37.1226C52.0791 35.685 52.1022 34.2473 52.1253 32.8078C52.1378 32.0496 52.0292 31.1049 51.3407 30.7266Z" fill="white"/>
<path d="M51.3092 30.982C50.831 31.0947 50.3487 31.2542 50.1739 31.5809C50.0754 31.7648 50.0654 32.0164 50.0593 32.2604C50.0232 33.7172 49.989 35.2228 50.1638 36.6814C50.2241 37.2258 50.3226 37.6482 50.5959 37.943C50.8109 38.1851 51.2751 38.3259 51.5162 38.1401C51.7312 37.973 51.7573 37.5844 51.7634 37.2352L51.8397 32.7166C51.8558 31.8418 51.6749 31.258 51.3092 30.982ZM51.2329 39.0487C50.7385 39.0487 50.2402 38.8196 49.9267 38.4742C49.4887 37.9936 49.3601 37.3723 49.2877 36.7734C49.1089 35.2585 49.1491 33.7247 49.1852 32.2417C49.1913 31.9375 49.2013 31.5621 49.3862 31.2129C49.7881 30.4695 50.7647 30.2574 51.2952 30.1429C51.3976 30.1203 51.5102 30.1335 51.6026 30.1823C52.3742 30.5784 52.7399 31.41 52.7199 32.7298L52.6415 37.2484C52.6314 37.6332 52.6214 38.3503 52.0708 38.7746C51.8236 38.9642 51.5262 39.0487 51.2329 39.0487Z" fill="#232020"/>
<path d="M64.4198 30.7266C63.8647 30.8557 63.2439 31.0367 62.9948 31.5423C62.8667 31.7914 62.8578 32.08 62.8525 32.3579C62.8205 33.7848 62.7884 35.2153 62.9432 36.6333C62.9984 37.1334 63.0891 37.6604 63.4182 38.0476C63.7455 38.4348 64.3824 38.6087 64.7756 38.2843C65.0976 38.0154 65.1296 37.5421 65.1349 37.1226C65.1581 35.685 65.1794 34.2473 65.2025 32.8078C65.2168 32.0496 65.1065 31.1049 64.4198 30.7266Z" fill="white"/>
<path d="M64.3881 30.982C63.9097 31.0947 63.4252 31.2542 63.2503 31.5809C63.1538 31.7648 63.1418 32.0164 63.1378 32.2604C63.1016 33.7172 63.0654 35.2247 63.2403 36.6814C63.2925 37.1207 63.375 37.6144 63.6725 37.943C63.8936 38.1851 64.3519 38.3259 64.5891 38.1401C64.8102 37.973 64.8363 37.5844 64.8404 37.2352L64.9188 32.7166C64.9328 31.8418 64.7539 31.258 64.3881 30.982ZM64.3117 39.0487C63.8172 39.0487 63.3167 38.8196 63.0031 38.4742C62.5669 37.9936 62.4382 37.3723 62.3659 36.7734C62.1849 35.2603 62.2272 33.7266 62.2633 32.2417C62.2674 31.9375 62.2774 31.5621 62.4644 31.2129C62.8644 30.4695 63.8433 30.2574 64.372 30.1429C64.4745 30.1203 64.5891 30.1335 64.6816 30.1823C65.4434 30.5728 65.8193 31.4288 65.7972 32.7298L65.7208 37.2484C65.7108 37.6332 65.7007 38.3503 65.1499 38.7746C64.9027 38.9642 64.6032 39.0487 64.3117 39.0487Z" fill="black"/>
<path d="M74.0076 50.3429C71.4554 55.2455 69.4797 59.7336 66.6285 65.2179C66.3725 65.9497 66.0422 66.6626 65.8878 67.4211C65.7276 68.1776 65.7569 69.0065 66.1829 69.6642C66.6089 70.3219 67.4981 70.7382 68.2583 70.4721C68.8954 70.2516 69.2745 69.6528 69.6106 69.0939C72.9211 63.5526 75.8387 57.6635 78.8756 51.9834L74.0076 50.3429Z" fill="white"/>
<path d="M67.3489 65.4637C67.2792 65.6783 67.204 65.8929 67.1288 66.1076C66.9453 66.6257 66.771 67.1149 66.6738 67.6234C66.5692 68.1744 66.5233 68.9632 66.8976 69.5974C67.1802 70.0711 67.8278 70.4539 68.3727 70.247C68.824 70.0769 69.1341 69.5742 69.435 69.029C71.6476 65.0113 73.7042 60.7481 75.6949 56.628C76.4195 55.1315 77.1663 53.5886 77.9075 52.0767L74.1024 50.6904C73.0089 52.9873 72.031 55.176 71.0036 57.4864C69.8808 60.0018 68.7213 62.6023 67.3489 65.4637ZM68.0498 71.148C67.3544 71.148 66.6298 70.7362 66.2225 70.0459C65.7051 69.1759 65.7528 68.157 65.8885 67.4552C65.9968 66.8829 66.1894 66.3396 66.3766 65.8137C66.4518 65.5971 66.527 65.3806 66.5986 65.164L66.6206 65.108C67.9929 62.2484 69.1524 59.6441 70.2752 57.1268C71.3595 54.7003 72.3796 52.4092 73.5446 49.9809C73.6382 49.7914 73.8455 49.7024 74.0326 49.772L78.6065 51.4406C78.7147 51.4793 78.8046 51.5682 78.8468 51.6823C78.889 51.7963 78.8853 51.9239 78.8321 52.0342C78.0194 53.6795 77.2029 55.3732 76.4085 57.0108C74.4124 61.1425 72.3521 65.4135 70.1248 69.4524C69.8386 69.9705 69.4056 70.7516 68.6461 71.0417C68.4534 71.1132 68.2516 71.148 68.0498 71.148Z" fill="black"/>
<path d="M78.8509 53.315C77.907 52.9162 74.4141 51.2902 72.9313 50.3265C74.6835 47.3532 75.2796 45.4811 76.835 42.3437C77.4369 41.1243 79.6859 36.7751 80.156 35.8476C82.0305 32.1472 84.6865 32.9354 86.1444 33.9449C88.7355 35.7484 85.7967 39.2445 85.2636 40.2197C82.8521 44.6529 80.8898 48.441 78.8509 53.315Z" fill="#AF862E"/>
<path d="M73.3409 50.3057C74.7887 51.1673 77.4242 52.4054 78.6001 52.9255C80.5801 48.2816 82.5328 44.5052 85.0176 39.968C85.1076 39.8069 85.2367 39.607 85.4089 39.3528C86.7394 37.3346 87.7411 35.3066 86.0487 34.1364C85.4833 33.7463 84.3465 33.1351 83.1295 33.4397C82.1219 33.692 81.2552 34.5245 80.5449 35.914C80.3649 36.2692 79.9286 37.1133 79.4179 38.0953C78.5766 39.7215 77.5299 41.7456 77.1444 42.518C76.5575 43.6959 76.1075 44.6915 75.6711 45.6521C74.9942 47.1425 74.3583 48.5552 73.3409 50.3057ZM78.8271 53.9094C78.7664 53.9094 78.7116 53.8978 78.6568 53.8764C77.7197 53.4825 74.0922 51.8116 72.5309 50.8025C72.3391 50.6783 72.2804 50.4279 72.3959 50.2319C73.5131 48.3534 74.1489 46.9406 74.8905 45.3047C75.3307 44.3363 75.7807 43.335 76.3775 42.1415C76.7688 41.3633 77.8155 39.3373 78.6608 37.7091C79.1675 36.7291 79.6019 35.8869 79.7838 35.5317C80.6095 33.9132 81.6621 32.9332 82.9182 32.6188C84.4659 32.2307 85.8491 32.9682 86.5359 33.4417C89.144 35.2426 87.025 38.4485 86.1192 39.8166C85.9685 40.0456 85.8394 40.2416 85.7689 40.3716C83.1589 45.1339 81.2512 48.8347 79.2164 53.6494C79.1714 53.7542 79.0912 53.8357 78.9875 53.8784C78.9308 53.8997 78.8819 53.9094 78.8271 53.9094Z" fill="black"/>
<path d="M82.3335 52.1262C82.0216 52.1262 81.7157 52.0445 81.4705 51.881C80.7763 51.423 80.486 50.4691 80.7626 49.5645C80.992 48.8101 81.5196 48.2115 81.9863 47.6813L86.3343 42.7518C87.1992 41.7693 88.0974 40.7527 88.6838 39.5991C89.3113 38.3563 89.478 37.0945 89.1466 36.0493C88.774 34.8692 87.6796 33.9798 86.5461 33.9342C86.3107 33.9247 86.1284 33.7328 86.1382 33.5029C86.1499 33.2748 86.3343 33.0867 86.5814 33.1057C88.0915 33.1646 89.482 34.2763 89.9644 35.8061C90.3606 37.0546 90.1802 38.5331 89.4526 39.9659C88.8152 41.2125 87.8856 42.2691 86.9873 43.2896L82.6394 48.221C82.2079 48.7094 81.7608 49.2149 81.5863 49.8002C81.4392 50.2752 81.5196 50.9081 81.951 51.195C82.1432 51.3204 82.4433 51.3299 82.6845 51.2216C82.7845 51.1779 82.9512 51.0791 82.9708 50.9004C82.9963 50.6743 83.2062 50.509 83.4435 50.5318C83.6749 50.5565 83.8455 50.7598 83.82 50.9898C83.7749 51.4154 83.4925 51.7746 83.0473 51.9741C82.8198 52.0768 82.5747 52.1262 82.3335 52.1262Z" fill="black"/>
<path d="M65.7022 73.5257C65.6335 73.5257 65.5625 73.5113 65.4916 73.4825C65.2398 73.3798 65.1345 73.1126 65.2512 72.8886L66.6293 70.2192C66.7461 69.9932 67.0391 69.8966 67.2909 70.0014C67.5427 70.1041 67.648 70.3713 67.5381 70.5953L66.1532 73.2647C66.073 73.4291 65.8899 73.5257 65.7022 73.5257Z" fill="black"/>
<path d="M64.19 46.7763H64.1804C55.1887 46.4769 46.0817 46.4467 37.1014 46.6879C36.8805 46.6966 36.6768 46.4898 36.671 46.2291C36.6672 45.9707 36.8497 45.7531 37.0803 45.7466C46.0759 45.5075 55.2041 45.5377 64.2054 45.8371C64.436 45.8436 64.6185 46.0611 64.6089 46.3196C64.6031 46.5759 64.4168 46.7763 64.19 46.7763Z" fill="#232020"/>
<path d="M52.5716 55.6928C47.3935 55.6928 42.2059 55.5677 37.0636 55.3177C36.8354 55.3065 36.6619 55.1161 36.6714 54.8903C36.6846 54.6664 36.8675 54.4984 37.1032 54.504C45.6907 54.9221 54.4026 54.9911 62.9939 54.7093L63.009 54.7075C63.2315 54.7075 63.4144 54.881 63.42 55.1012C63.4295 55.327 63.2503 55.5155 63.024 55.523C59.5525 55.6368 56.0677 55.6928 52.5716 55.6928Z" fill="#232020"/>
<path d="M52.0149 64.6093C46.8244 64.6093 41.6283 64.5107 36.4737 64.3157C36.247 64.3075 36.0675 64.1002 36.0769 63.8538C36.0845 63.6054 36.2791 63.4125 36.5021 63.4207C44.8971 63.7389 53.4132 63.7984 61.8101 63.5952C62.0331 63.5911 62.2258 63.7861 62.2315 64.0345C62.2353 64.2808 62.0576 64.4861 61.829 64.4923C58.5696 64.5703 55.2951 64.6093 52.0149 64.6093Z" fill="#232020"/>
<path d="M44.7798 72.3368C41.8074 72.3368 38.8388 72.2856 35.8854 72.1812C35.6543 72.175 35.4747 71.9682 35.4824 71.7203C35.49 71.4746 35.6848 71.2841 35.9122 71.2882C42.9249 71.534 50.0331 71.4869 57.0401 71.1489C57.2656 71.1325 57.4661 71.3271 57.4757 71.5749C57.4853 71.8207 57.3095 72.0296 57.0745 72.0398C53.0018 72.2385 48.8889 72.3368 44.7798 72.3368Z" fill="#232020"/>
<path d="M35.8928 80.0645C35.6668 80.0645 35.4821 79.8375 35.4821 79.5566C35.4802 79.2735 35.6649 79.0441 35.891 79.0441L62.4115 78.8756H62.4152C62.6376 78.8756 62.826 79.1026 62.826 79.3858C62.826 79.6666 62.6432 79.896 62.4152 79.8983L35.8947 80.0645H35.8928Z" fill="#232020"/>
<path d="M78.0722 53.9095C78.1463 53.7766 78.2128 53.6456 78.2812 53.5128C78.2432 53.6789 78.1691 53.8098 78.0722 53.9095ZM72.9313 51.3709C72.9617 51.2085 73.0339 51.0554 73.1498 50.9373C73.0776 51.0831 73.0054 51.227 72.9313 51.3709Z" fill="#DEDEDE"/>
<path d="M77.1098 54.5039C77.0233 54.4754 76.9369 54.4394 76.8598 54.3957C76.1325 54.0996 75.4785 53.684 74.8526 53.219C74.4354 52.9571 73.9731 52.7844 73.5258 52.5813C73.693 52.234 73.8678 51.8848 74.0407 51.5317C75.2041 52.1732 76.6681 52.885 77.6868 53.3613C77.4951 53.7409 77.3015 54.1224 77.1098 54.5039Z" fill="#DEDEDE"/>
<path d="M77.4035 54.5039C77.2792 54.5039 77.1492 54.4801 77.023 54.4384C77.2151 54.0392 77.4091 53.6401 77.6012 53.2429C77.8611 53.368 78.089 53.4792 78.2812 53.5686C78.2812 53.6162 78.2774 53.6659 78.268 53.7175C78.2623 53.7493 78.2567 53.7811 78.2473 53.8108C78.1794 53.9538 78.1135 54.0948 78.0401 54.2378C77.8819 54.4185 77.6502 54.5039 77.4035 54.5039ZM73.4313 52.4267C73.3917 52.4088 73.3578 52.391 73.3202 52.3731C73.0075 52.1963 72.8907 51.8349 72.9435 51.5053C73.0169 51.3504 73.0885 51.1955 73.1601 51.0386C73.1996 51.0009 73.2373 50.9671 73.2806 50.9373C73.4897 51.0624 73.71 51.1955 73.9474 51.3285C73.7741 51.6979 73.5989 52.0633 73.4313 52.4267Z" fill="black"/>
<path d="M78.2811 53.315C78.0984 53.2382 77.8817 53.1426 77.6345 53.0351C76.6638 52.6067 75.2685 51.9666 74.1598 51.3896C73.9341 51.2753 73.7246 51.1609 73.5258 51.0534C73.5902 51.0124 73.6637 50.9817 73.7425 50.9629C73.8105 50.9459 73.875 50.9373 73.9431 50.9373C74.081 50.9373 74.2135 50.9715 74.3282 51.0363C74.6506 51.1677 74.9658 51.3009 75.2828 51.434L75.3151 51.4494L75.3706 51.4682C75.933 51.6628 76.4291 51.9802 76.9557 52.2448C77.4608 52.4872 78.2901 52.6784 78.2811 53.315Z" fill="black"/>
<path d="M78.5512 52.7206C78.3151 52.6168 78.0243 52.4828 77.6956 52.3299C77.6428 51.9807 77.8373 51.571 77.9676 51.2426C78.2906 50.5328 78.6683 49.8438 78.9724 49.1227C79.6108 47.7013 80.3701 46.3384 81.067 44.9453C81.8395 43.3596 82.6384 41.7872 83.494 40.2431C84.4554 38.4592 85.6264 36.8471 85.5829 35.5673C85.5735 35.1671 85.8927 34.9198 86.2213 34.8877C87.1392 36.0543 86.2553 37.791 85.124 39.5182C84.9578 39.7655 84.8331 39.9599 84.7462 40.1166C82.3475 44.53 80.4626 48.2034 78.5512 52.7206Z" fill="#976E15"/>
<path d="M78.4754 52.7206C78.303 52.7206 78.1286 52.6666 77.991 52.553C77.8011 52.4282 77.7119 52.2717 77.6867 52.1004C78.0239 52.2512 78.3223 52.3835 78.5646 52.4859C80.5256 48.0286 82.4596 44.4039 84.9206 40.0491C85.0097 39.8945 85.1376 39.7026 85.3082 39.4586C86.4689 37.7543 87.3758 36.0407 86.434 34.8896C86.4573 34.8877 86.4825 34.8877 86.5077 34.8877C86.7654 34.8877 87.0231 35.0144 87.1336 35.2975C87.2421 35.5117 87.182 35.765 87.1723 35.996C87.1181 36.4598 87.0038 36.9161 86.8255 37.3501C85.4109 40.891 83.2095 44.0724 81.5081 47.4829C80.888 48.6247 80.3357 49.8 79.7505 50.9586C79.7118 51.0368 79.6866 51.0778 79.6807 51.089C79.4889 51.5602 79.3881 52.0873 79.0723 52.4897C78.9134 52.6387 78.6944 52.7206 78.4754 52.7206Z" fill="black"/>
<path d="M70.9865 55.6928C70.5811 55.6628 70.1981 55.4789 70.063 55.1805C69.8703 54.8878 69.9979 54.5407 69.9854 54.2254C70.068 50.6096 70.1706 46.9863 69.8828 43.3724C69.7676 40.8486 69.665 38.3267 69.3647 35.8105C69.3647 35.7035 69.3847 35.6041 69.4273 35.5121L71.6898 35.4821C71.7099 35.5234 71.7274 35.5666 71.7424 35.6097L71.5046 54.869C71.3319 55.143 71.1592 55.4169 70.9865 55.6928Z" fill="#DEDEDE"/>
<path d="M71.5648 55.0984L71.7486 35.5927C71.797 35.8189 71.7873 36.0678 71.8124 36.2959C71.8918 37.4152 72.0098 38.5326 72.0349 39.6558C72.0755 42.6451 72.4412 45.623 72.3077 48.6161C72.2729 49.9141 72.3232 51.2121 72.3116 52.51C72.3019 52.9433 72.238 53.3728 72.1936 53.8042C71.9808 54.2356 71.7718 54.667 71.5648 55.0984ZM69.9591 35.4939C70.0946 35.1233 70.4853 34.8877 70.8761 34.8877C71.1044 34.8877 71.3269 34.9675 71.5048 35.1499C71.6035 35.2412 71.6693 35.3476 71.708 35.4635L69.9591 35.4939Z" fill="black"/>
<path d="M71.1994 55.6927C71.1815 55.6927 71.1647 55.6906 71.148 55.6885C71.2251 55.377 71.3022 55.0676 71.3793 54.7582C71.4988 54.2771 71.6195 53.7961 71.7424 53.315C71.7279 53.5481 71.7201 53.7812 71.7134 54.0165C71.7 54.648 71.7312 55.4596 71.3279 55.6609C71.2843 55.6821 71.2418 55.6927 71.1994 55.6927Z" fill="black"/>
<path d="M69.6776 87.7921C69.6513 87.7265 69.6372 87.6572 69.6319 87.5841C69.5827 87.3105 69.718 87.0426 69.7444 86.769C69.8392 85.3299 69.9569 85.002 69.9165 83.4337C69.8217 81.9103 69.574 80.4019 69.5687 78.8729C69.5423 77.9135 69.5968 76.9541 69.5968 75.9928C69.5599 74.7393 69.5511 73.482 69.6056 72.2265C69.3632 72.3277 69.0926 72.3877 68.8326 72.3877C68.3864 72.3877 67.9595 72.219 67.7083 71.8012C67.5765 71.507 67.5555 71.2409 67.6082 71.0104C67.7891 71.0685 67.9736 71.0985 68.158 71.0985C68.3513 71.0985 68.5445 71.0648 68.729 70.9955C69.4563 70.7144 69.8709 69.9574 70.1449 69.4552C70.4822 68.8369 70.816 68.211 71.148 67.5814L70.9723 87.7621L69.6776 87.7921Z" fill="#DEDEDE"/>
<path d="M70.1675 88.3865C69.8316 88.3865 69.4859 88.1927 69.3647 87.8925L70.8291 87.8621L71.0279 67.3992C71.1034 67.2624 71.1848 67.1237 71.2663 66.9869C71.5107 67.1104 71.6995 67.3365 71.7352 67.6595C71.7849 68.0908 71.5624 68.5126 71.4908 68.942C71.3935 69.7894 71.5167 70.6425 71.465 71.4918C71.3637 73.502 71.318 75.5103 71.3378 77.5224C71.3736 79.1582 71.5206 80.7903 71.5465 82.4281C71.5465 83.7448 71.5723 85.6809 71.3895 86.2186C71.308 86.7582 71.2425 87.3054 70.9762 87.7994L71.0219 87.7063C70.998 87.7614 70.9563 87.8412 70.9265 87.9096C70.849 88.0616 70.7278 88.1813 70.5808 88.2763C70.4536 88.3523 70.3105 88.3865 70.1675 88.3865Z" fill="black"/>
<path d="M68.1759 69.9591C68.2818 69.9155 68.3991 69.8847 68.5201 69.8629C68.4804 69.881 68.4426 69.8955 68.4029 69.9101C68.331 69.9355 68.2534 69.9518 68.1759 69.9591ZM70.0977 67.7568C70.128 67.6642 70.1564 67.5716 70.1847 67.4808C70.2491 67.2556 70.3834 67.0904 70.5536 66.9869C70.4042 67.2448 70.2528 67.5008 70.0977 67.7568Z" fill="#DEDEDE"/>
<path d="M68.1043 71.148C67.9289 71.148 67.7535 71.117 67.5814 71.0571C67.6549 70.711 67.8905 70.4461 68.1978 70.2991C68.2663 70.2914 68.3348 70.274 68.3983 70.2469C68.4334 70.2315 68.4668 70.216 68.5019 70.1966C68.5954 70.1754 68.6973 70.1657 68.8009 70.1657C68.8143 70.1657 68.826 70.1657 68.8393 70.1657C68.8427 70.1657 68.8527 70.1657 68.861 70.1657C68.8945 70.1657 68.9295 70.1696 68.963 70.1734L68.998 70.1406C69.0565 70.071 69.1434 69.9511 69.2035 69.8699C69.3823 69.5837 69.5059 69.2608 69.708 68.9901C69.7548 68.6421 69.8149 68.296 69.8951 67.9537C70.0321 67.6811 70.1657 67.4085 70.2977 67.1339C70.4297 67.0353 70.5884 66.9869 70.7471 66.9869C70.8874 66.9869 71.0244 67.0237 71.148 67.0991C71.0795 67.2383 71.011 67.3795 70.9475 67.5187C70.6318 68.1683 70.3144 68.8142 69.9937 69.4522C69.7331 69.9704 69.3388 70.7516 68.6472 71.0416C68.4718 71.1132 68.2881 71.148 68.1043 71.148Z" fill="black"/>
<path d="M38.0767 38.4543C37.9139 38.4543 37.7265 38.3317 37.6199 38.1605C37.4052 37.8199 37.3461 37.3082 37.3101 36.8529C37.2913 36.6428 37.2769 36.4307 37.2654 36.2166C37.3735 36.1271 37.4989 36.0765 37.6242 36.0765C37.8015 36.0765 37.9787 36.1777 38.1055 36.417C38.1632 36.5007 38.2021 36.5999 38.2208 36.7128C38.3822 37.4035 38.2972 37.2382 38.4543 37.5981C38.4442 37.9094 38.411 38.2188 38.2785 38.3648C38.2237 38.427 38.1531 38.4543 38.0767 38.4543Z" fill="#DEDEDE"/>
<path d="M38.0504 39.0487C37.8563 39.0487 37.6559 38.9863 37.4723 38.8413C37.2343 38.7023 37.1488 38.4305 37.0465 38.1949C36.9004 37.8304 36.8086 37.4458 36.7084 37.0673C36.5811 36.6383 36.794 36.2719 37.1175 36.0765C37.1342 36.298 37.155 36.5175 37.1822 36.735C37.2343 37.2062 37.3199 37.7358 37.6309 38.0882C37.7853 38.2654 38.0566 38.3922 38.2925 38.3922C38.4031 38.3922 38.5054 38.3641 38.5847 38.2996C38.7767 38.1486 38.8247 37.8284 38.8393 37.5062C38.8602 37.5405 38.8831 37.5787 38.9103 37.623C39.3298 38.2976 38.7245 39.0487 38.0504 39.0487Z" fill="#232020"/>
<path d="M51.0239 38.4543C50.9873 38.4543 50.9521 38.4478 50.9155 38.4391C50.8325 38.3805 50.7608 38.2959 50.7073 38.1983C50.5159 37.8577 50.447 37.3695 50.4048 36.7404C50.3753 36.3781 50.357 36.0136 50.3429 35.647C50.447 35.5429 50.5666 35.4821 50.6918 35.4821C50.8184 35.4821 50.9521 35.5472 51.0703 35.6991C51.2644 35.9117 51.3334 36.3022 51.46 36.6016C51.4811 36.6688 51.5064 36.7361 51.5318 36.8033L51.5247 37.3804C51.5205 37.6711 51.5135 37.9857 51.4487 38.2113C51.3292 38.3632 51.1786 38.4543 51.0239 38.4543Z" fill="#DEDEDE"/>
<path d="M51.024 38.4543C50.8893 38.4243 50.7628 38.3573 50.6485 38.2441C50.2832 37.9046 50.1464 37.3319 49.8791 36.9001C49.5934 36.3574 49.8118 35.7685 50.1934 35.4821C50.2138 35.8724 50.2403 36.2604 50.2832 36.646C50.3444 37.3158 50.4444 37.8354 50.7219 38.1979C50.7995 38.3019 50.9036 38.3919 51.024 38.4543ZM51.7974 38.2118C51.8913 37.9716 51.9015 37.6368 51.9076 37.3273L51.9178 36.713C52.028 36.937 52.1321 37.1656 52.126 37.4266C52.1321 37.7453 52.0015 38.0224 51.7974 38.2118Z" fill="#232020"/>
<path d="M64.0791 38.4543C64.033 38.4543 63.9784 38.4465 63.9281 38.4272C63.8749 38.3847 63.8288 38.3306 63.7924 38.2688C63.5854 37.9306 63.5281 37.4223 63.4917 36.9701C63.4595 36.5624 63.4344 36.1469 63.4204 35.7314C63.5421 35.5749 63.7071 35.4821 63.8707 35.4821C64.0428 35.4821 64.2148 35.5826 64.3365 35.8184C64.5337 36.1894 64.5127 36.7015 64.6092 37.1325L64.605 37.5402C64.605 37.7122 64.5981 37.8919 64.5771 38.0542C64.4736 38.2939 64.2945 38.4543 64.0791 38.4543Z" fill="#DEDEDE"/>
<path d="M63.976 37.8598C63.8885 37.8445 63.7941 37.8189 63.7065 37.7831C63.027 37.4491 63.0869 36.74 62.868 36.2184C62.7506 35.9202 62.8911 35.6577 63.1399 35.4821C63.1629 35.8486 63.2044 36.215 63.2573 36.5747C63.3172 36.9735 63.4117 37.4218 63.7526 37.7201C63.8125 37.7746 63.8885 37.8223 63.976 37.8598ZM65.0449 37.5309C65.0794 37.3877 65.0909 37.2292 65.0909 37.0775L65.0979 36.7179C65.1025 36.7264 65.1094 36.7349 65.1094 36.7451C65.2614 37.0298 65.2222 37.3161 65.0449 37.5309Z" fill="black"/>
</svg>
