<svg width="54" height="54" viewBox="0 0 54 54" fill="none" xmlns="http://www.w3.org/2000/svg">
<rect width="54" height="54" rx="3" fill="#3B5998"/>
<path d="M6 27C6 15.402 15.402 6 27 6C38.598 6 48 15.402 48 27C48 38.598 38.598 48 27 48C15.402 48 6 38.598 6 27Z" fill="#3B5998"/>
<path d="M29.1885 39.3475V27.9224H32.3423L32.7603 23.9853H29.1885L29.1938 22.0147C29.1938 20.9878 29.2914 20.4376 30.7663 20.4376H32.7379V16.5H29.5836C25.7949 16.5 24.4613 18.4099 24.4613 21.6219V23.9857H22.0996V27.9229H24.4613V39.3475H29.1885Z" fill="white"/>
</svg>
