<svg width="27" height="27" viewBox="0 0 27 27" fill="none" xmlns="http://www.w3.org/2000/svg">
<path d="M13.434 5.19422C15.9565 5.19422 17.6581 6.28382 18.6283 7.1943L22.4194 3.49267C20.091 1.32841 17.061 0 13.434 0C8.18011 0 3.64263 3.01504 1.43359 7.40326L5.77704 10.7765C6.86663 7.53759 9.88167 5.19422 13.434 5.19422Z" fill="#EA4335"/>
<path d="M26.3296 13.7318C26.3296 12.6273 26.24 11.8213 26.046 10.9855H13.4336V15.9707H20.8369C20.6876 17.2096 19.8816 19.0753 18.0905 20.3291L22.3294 23.6128C24.8669 21.2694 26.3296 17.8215 26.3296 13.7318Z" fill="#4285F4"/>
<path d="M5.79126 16.0901C5.50767 15.2543 5.34348 14.3587 5.34348 13.4333C5.34348 12.5079 5.50767 11.6124 5.77633 10.7765L1.43289 7.40326C0.522407 9.22422 0 11.2691 0 13.4333C0 15.5976 0.522407 17.6424 1.43289 19.4634L5.79126 16.0901Z" fill="#FBBC05"/>
<path d="M13.4328 26.8667C17.0598 26.8667 20.1047 25.6726 22.3286 23.6128L18.0897 20.3291C16.9553 21.1202 15.4329 21.6724 13.4328 21.6724C9.88041 21.6724 6.86538 19.3291 5.79071 16.0901L1.44727 19.4634C3.6563 23.8516 8.17886 26.8667 13.4328 26.8667Z" fill="#34A853"/>
</svg>
