<svg width="31" height="18" viewBox="0 0 31 18" fill="none" xmlns="http://www.w3.org/2000/svg">
<path d="M8.75 11C11.5114 11 13.75 8.76142 13.75 6C13.75 3.23858 11.5114 1 8.75 1C5.98858 1 3.75 3.23858 3.75 6C3.75 8.76142 5.98858 11 8.75 11Z" stroke="#828282" stroke-width="2" stroke-linecap="round" stroke-linejoin="round"/>
<path d="M17.75 3H29.75" stroke="#828282" stroke-width="2" stroke-linecap="round" stroke-linejoin="round"/>
<path d="M17.75 9H29.75" stroke="#828282" stroke-width="2" stroke-linecap="round" stroke-linejoin="round"/>
<path d="M20.75 15H29.75" stroke="#828282" stroke-width="2" stroke-linecap="round" stroke-linejoin="round"/>
<path d="M1 16.9999C1.4406 15.2791 2.4414 13.7539 3.84462 12.6647C5.24784 11.5755 6.97366 10.9843 8.75 10.9843C10.5263 10.9843 12.2522 11.5755 13.6554 12.6647C15.0586 13.7539 16.0594 15.2791 16.5 16.9999" stroke="#828282" stroke-width="2" stroke-linecap="round" stroke-linejoin="round"/>
</svg>
