<svg width="14" height="18" viewBox="0 0 14 18" fill="none" xmlns="http://www.w3.org/2000/svg">
<path d="M6.99999 9.40004C8.32547 9.40004 9.39999 8.32552 9.39999 7.00004C9.39999 5.67455 8.32547 4.60004 6.99999 4.60004C5.67451 4.60004 4.59999 5.67455 4.59999 7.00004C4.59999 8.32552 5.67451 9.40004 6.99999 9.40004Z" stroke="white" stroke-linecap="round" stroke-linejoin="round"/>
<path d="M13 7C13 12.4 7 16.6 7 16.6C7 16.6 1 12.4 1 7C1 5.4087 1.63214 3.88258 2.75736 2.75736C3.88258 1.63214 5.4087 1 7 1C8.5913 1 10.1174 1.63214 11.2426 2.75736C12.3679 3.88258 13 5.4087 13 7V7Z" stroke="white" stroke-linecap="round" stroke-linejoin="round"/>
</svg>
