<svg width="31" height="31" viewBox="0 0 31 31" fill="none" xmlns="http://www.w3.org/2000/svg">
<rect width="31" height="31" rx="3" fill="#C80A0A"/>
<path d="M24.6624 18.2658C24.1364 17.6646 22.9677 17.3639 21.3899 17.3639C20.455 17.3639 19.4615 17.4842 18.2928 17.6646C17.0553 16.472 16.0273 15.0684 15.2541 13.5158C15.8385 11.712 16.2475 9.96835 16.2475 8.64557C16.2475 7.62342 15.8969 6 14.4944 6C14.0854 6 13.7348 6.24051 13.501 6.60127C12.9167 7.68354 13.1504 10.0886 14.2607 12.6139C13.4496 15.027 12.4733 17.3778 11.3389 19.6487C8.24176 20.9715 6.19648 22.4146 6.02117 23.557C5.9043 24.0981 6.25492 25 7.48208 25C9.29361 25 11.2804 22.2943 12.7998 19.5285C14.5537 18.9079 16.3509 18.4255 18.1759 18.0854C20.3965 20.0696 22.3249 20.3703 23.2599 20.3703C25.1299 20.3703 25.3052 18.9873 24.6624 18.2658ZM13.7932 6.78165C14.2607 6.06013 15.3126 6.30063 15.3126 7.74367C15.3126 8.7057 15.0204 10.269 14.436 12.0728C13.3842 9.54747 13.3842 7.56329 13.7932 6.78165ZM6.37179 23.6171C6.5471 22.6551 8.30019 21.3323 11.0467 20.1899C9.52735 22.8354 8.00801 24.519 7.07303 24.519C6.48866 24.519 6.31336 23.9778 6.37179 23.6171ZM17.8838 17.7247C16.2372 18.0404 14.6159 18.4826 13.0335 19.0475C13.8984 17.4412 14.6033 15.749 15.1372 13.9968C15.9053 15.3475 16.8273 16.599 17.8838 17.7247V17.7247ZM18.6434 17.9652C20.5134 17.6646 22.0912 17.7247 22.7924 17.8449C24.4871 18.2057 23.9027 20.3101 22.0327 19.8291C20.6887 19.5285 19.5784 18.7468 18.6434 17.9652Z" fill="white"/>
</svg>
