<svg width="27" height="27" viewBox="0 0 27 27" fill="none" xmlns="http://www.w3.org/2000/svg">
<path d="M13.5 26C20.4036 26 26 20.4036 26 13.5C26 6.59644 20.4036 1 13.5 1C6.59644 1 1 6.59644 1 13.5C1 20.4036 6.59644 26 13.5 26Z" stroke="#828282" stroke-width="2" stroke-linecap="round" stroke-linejoin="round"/>
<path d="M14.0625 20.2708C14.0625 20.5815 13.8107 20.8333 13.5 20.8333C13.1893 20.8333 12.9375 20.5815 12.9375 20.2708C12.9375 19.9602 13.1893 19.7083 13.5 19.7083C13.8107 19.7083 14.0625 19.9602 14.0625 20.2708Z" fill="#828282" stroke="#828282" stroke-width="2"/>
<path d="M13.5013 15.5833V14.5417C14.2224 14.5417 14.9273 14.3278 15.5268 13.9272C16.1264 13.5266 16.5937 12.9572 16.8696 12.291C17.1456 11.6248 17.2178 10.8918 17.0771 10.1846C16.9364 9.47735 16.5892 8.82772 16.0793 8.31784C15.5694 7.80796 14.9198 7.46073 14.2126 7.32006C13.5053 7.17938 12.7723 7.25158 12.1061 7.52752C11.4399 7.80347 10.8705 8.27076 10.4699 8.87032C10.0693 9.46987 9.85547 10.1748 9.85547 10.8958" stroke="#828282" stroke-width="2" stroke-linecap="round" stroke-linejoin="round"/>
</svg>
