<svg width="118" height="118" viewBox="0 0 118 118" fill="none" xmlns="http://www.w3.org/2000/svg">
<circle cx="59" cy="59" r="59" fill="#AF862E"/>
<path d="M84.7279 46.4587C68.2152 45.0023 51.5564 45.1583 35.0698 46.9268C32.8111 47.1689 30.2904 47.633 29.3441 49.6936C28.1818 52.2083 30.3524 55.0932 32.8271 56.3435C36.6162 58.2621 41.0315 58.3901 45.2767 58.4101C57.9723 58.4641 70.7299 57.878 83.1754 55.3732C83.6576 55.2752 84.1937 55.1372 84.4398 54.7151C84.6138 54.419 84.6038 54.0569 84.5898 53.7148C84.4858 51.3741 84.3798 49.0334 84.7279 46.4587Z" fill="white"/>
<path d="M62.3054 45.9104C53.2149 45.9104 44.1303 46.3946 35.1157 47.3608C32.8111 47.6089 30.5684 48.0831 29.7382 49.8756C28.7179 52.0882 30.6505 54.7529 33.0251 55.9553C36.6422 57.7838 40.8814 57.9539 45.2766 57.9719C60.681 58.0379 72.3543 57.1056 83.0873 54.945C83.4775 54.865 83.9076 54.7589 84.0656 54.4909C84.1737 54.3148 84.1697 54.0547 84.1536 53.7347C84.0556 51.548 83.9536 49.2934 84.2397 46.8547C76.9576 46.2245 69.6295 45.9104 62.3054 45.9104ZM46.813 58.8501C46.3069 58.8501 45.7948 58.8481 45.2766 58.8461C40.7693 58.8261 36.4161 58.6501 32.631 56.7335C29.8922 55.3491 27.7056 52.1942 28.944 49.5095C29.9583 47.3228 32.463 46.7667 35.0237 46.4926C51.5084 44.7241 68.2471 44.5661 84.7678 46.0245C84.8859 46.0345 84.9979 46.0945 85.0699 46.1865C85.1479 46.2805 85.1779 46.4006 85.1619 46.5186C84.8138 49.0553 84.9219 51.412 85.0299 53.6946C85.0439 54.0427 85.0659 54.5209 84.8198 54.935C84.4497 55.5592 83.6775 55.7172 83.2614 55.8012C72.8244 57.9018 61.5312 58.8501 46.813 58.8501Z" fill="#232020"/>
<path d="M64.7081 33.5389C68.7993 34.0431 72.8965 34.5472 76.9876 35.0494C73.6487 39.7487 72.2003 45.5083 71.124 51.1719C70.9399 52.1582 70.6999 53.2445 69.8896 53.8407C69.4695 54.1488 68.9474 54.2788 68.4412 54.4029C67.5249 54.6289 66.5607 54.853 65.6444 54.6249C63.7499 54.1548 62.8336 52.0122 62.4635 50.0936C61.3932 44.5521 62.5975 38.7844 64.7081 33.5389Z" fill="white"/>
<path d="M64.9882 34.0151C62.6796 39.8708 61.9734 45.2503 62.8896 50.0116C63.1557 51.376 63.8719 53.7367 65.7524 54.2008C66.5827 54.4089 67.5129 54.1808 68.3392 53.9808C68.7993 53.8667 69.2754 53.7507 69.6335 53.4886C70.2837 53.0105 70.5098 52.0802 70.6998 51.0899C71.7241 45.6944 73.1065 40.0768 76.2254 35.3955L64.9882 34.0151ZM66.4646 55.1551C66.1566 55.1551 65.8445 55.1251 65.5364 55.0491C63.1917 54.4669 62.3355 51.7461 62.0334 50.1777C61.0651 45.1643 61.8293 39.5106 64.302 33.3769C64.374 33.1929 64.5641 33.0848 64.7582 33.1068L77.0456 34.6173C77.1977 34.6353 77.3257 34.7333 77.3877 34.8733C77.4538 35.0154 77.4338 35.1774 77.3477 35.3035C74.0328 39.9608 72.6044 45.7224 71.5541 51.254C71.376 52.1882 71.134 53.4706 70.1517 54.1928C69.6555 54.5569 69.0654 54.701 68.5492 54.829C67.9291 54.979 67.2068 55.1551 66.4646 55.1551Z" fill="#232020"/>
<path d="M43.208 57.5278C42.5939 48.2371 42.1417 38.6984 45.0046 29.8239C49.0257 29.3178 53.0809 29.4338 57.132 29.5498C60.671 29.6499 64.206 29.7519 67.699 29.4378C66.0385 38.4784 64.3801 47.767 66.0805 56.8016L43.208 57.5278Z" fill="white"/>
<path d="M45.3386 30.224C42.7059 38.5784 42.982 47.3429 43.6182 57.0777L65.5624 56.3815C64.01 47.501 65.6444 38.2003 67.1649 29.92C63.8259 30.178 60.4209 30.08 57.128 29.986C53.2449 29.876 49.2398 29.7599 45.3386 30.224ZM43.208 57.9639C42.978 57.9639 42.7879 57.7859 42.7719 57.5558C42.1057 47.4589 41.7836 38.3924 44.5904 29.6899C44.6425 29.5299 44.7805 29.4118 44.9485 29.3918C49.0057 28.8797 53.1489 28.9997 57.148 29.1137C60.611 29.2118 64.19 29.3138 67.657 29.0017C67.795 28.9897 67.9291 29.0417 68.0211 29.1417C68.1071 29.2438 68.1491 29.3818 68.1231 29.5158C66.5667 38.0143 64.8002 47.649 66.5107 56.7216C66.5367 56.8456 66.5007 56.9756 66.4226 57.0737C66.3406 57.1737 66.2226 57.2337 66.0945 57.2377L43.218 57.9639H43.208Z" fill="#232020"/>
<path d="M86.4844 51.3321C69.4595 51.7822 52.4367 52.0903 35.4079 52.2563C33.1232 52.2783 28.2218 53.5667 29.3441 49.6936C28.5199 51.8402 28.3458 54.7911 28.4779 57.0877C28.914 64.3778 29.022 71.6859 28.816 78.9859C28.76 80.9225 28.6879 82.909 29.3121 84.7416C29.9383 86.5761 31.4287 88.2506 33.2812 88.6667C51.1963 89.841 68.1792 89.1088 85.9862 89.0028C84.7979 76.0631 86.0942 64.2557 86.4844 51.3321Z" fill="white"/>
<path d="M33.3492 88.2326C46.761 89.1108 59.4066 88.9228 72.7884 88.7227C76.9376 88.6627 81.2248 88.5987 85.506 88.5707C84.7018 79.35 85.1319 70.8196 85.5881 61.7971C85.7521 58.5421 85.9262 55.1832 86.0322 51.7802C69.2354 52.2223 52.2106 52.5284 35.4118 52.6945C35.0137 52.6985 34.5156 52.7425 33.9894 52.7905C32.1649 52.9585 30.1023 53.1466 29.174 52.0283V52.0243C28.908 53.5287 28.8119 55.2892 28.914 57.0617C29.3481 64.3358 29.4621 71.7179 29.2521 78.9979L29.2461 79.112C29.196 80.9645 29.138 82.879 29.7282 84.6015C30.3524 86.444 31.7708 87.8645 33.3492 88.2326ZM56.0417 89.763C48.5135 89.763 41.0154 89.611 33.2572 89.1028L33.1892 89.0928C31.3106 88.6727 29.6262 87.0202 28.898 84.8816C28.2638 83.0111 28.3198 81.0165 28.3758 79.088V78.9739C28.5859 71.7179 28.4738 64.3618 28.0437 57.1137C27.8737 54.2669 28.2058 51.4341 28.934 49.5376C29.016 49.3195 29.2561 49.2055 29.4821 49.2795C29.7022 49.3535 29.8242 49.5896 29.7642 49.8136C29.5441 50.5779 29.5682 51.136 29.8502 51.4721C30.4804 52.2363 32.381 52.0603 33.9114 51.9222C34.4555 51.8722 34.9717 51.8242 35.4018 51.8202C52.3486 51.6542 69.5315 51.3441 86.4683 50.896C86.5963 50.882 86.7044 50.938 86.7904 51.024C86.8784 51.108 86.9184 51.224 86.9184 51.3441C86.8124 54.9131 86.6324 58.4361 86.4623 61.8411C85.9982 70.9857 85.5621 79.6241 86.4223 88.9628C86.4323 89.0848 86.3923 89.2068 86.3103 89.2969C86.2282 89.3869 86.1102 89.4389 85.9862 89.4409C81.5509 89.4669 77.1017 89.5329 72.7984 89.5969C67.1188 89.681 61.5732 89.763 56.0417 89.763Z" fill="#232020"/>
<path d="M56.934 38.0543C52.4367 38.0543 47.9294 37.9682 43.4582 37.7962C43.2181 37.7862 43.028 37.5841 43.038 37.3421C43.048 37.102 43.2541 36.9179 43.4902 36.9219C50.9403 37.21 58.4944 37.258 65.9425 37.064C66.1826 37.048 66.3827 37.248 66.3867 37.4901C66.3927 37.7302 66.2026 37.9302 65.9625 37.9382C62.9657 38.0142 59.9488 38.0543 56.934 38.0543Z" fill="#232020"/>
<path d="M59.3346 52.1043C59.0945 52.1043 58.9005 51.9162 58.8945 51.6762C58.8685 50.3378 57.9822 49.0494 56.7439 48.5433C55.9797 48.2352 55.1354 48.1952 54.1871 48.1792C53.0508 48.1592 51.9605 48.1812 51.0743 48.6613C50.034 49.2275 49.3938 50.4418 49.5178 51.6181C49.5418 51.8582 49.3678 52.0743 49.1277 52.0983C48.8876 52.1223 48.6716 51.9502 48.6456 51.7102C48.4875 50.1917 49.3118 48.6213 50.6541 47.8951C51.7304 47.3109 52.9488 47.2849 54.2032 47.3069C55.2014 47.3229 56.1757 47.3689 57.072 47.735C58.6284 48.3672 59.7347 49.9817 59.7707 51.6601C59.7747 51.9002 59.5867 52.1003 59.3406 52.1043H59.3346Z" fill="#232020"/>
<path d="M86.5403 63.9936C81.1728 63.7515 77.1277 63.8456 71.7701 64.2757C70.0076 64.4157 68.2051 64.6058 66.6227 65.396C65.0402 66.1862 63.7079 67.7087 63.6378 69.4752C63.5558 71.4737 65.1123 73.2442 66.9408 74.0525C68.7693 74.8587 70.8319 74.9067 72.8304 74.9407C76.9076 75.0107 80.9788 75.0808 85.0539 75.1508C85.8441 75.1648 86.6724 75.1688 87.3586 74.7767C88.6649 74.0305 88.861 72.258 88.901 70.7535C88.937 69.4152 88.973 68.0768 89.009 66.7364C89.029 66.1482 88.799 65.3 88.5989 64.7438C88.3989 64.1877 86.8424 63.9296 86.5403 63.9936Z" fill="white"/>
<path d="M81.1328 64.2977C78.1619 64.2977 75.2891 64.4318 71.8061 64.7098C70.0276 64.8539 68.3071 65.0419 66.8167 65.7881C65.2083 66.5904 64.128 68.0448 64.0719 69.4932C63.9959 71.3937 65.5984 72.9802 67.1188 73.6524C68.8913 74.4366 70.9919 74.4726 72.8404 74.5046L85.0659 74.7147C85.7561 74.7267 86.5443 74.7407 87.1445 74.3986C88.2348 73.7744 88.4249 72.2 88.4649 70.7436L88.5729 66.7244C88.5889 66.2103 88.3729 65.414 88.1888 64.8899C88.0608 64.6538 86.9544 64.3757 86.6164 64.4218L86.5203 64.4298C84.6038 64.3437 82.8533 64.2977 81.1328 64.2977ZM85.46 75.5929C85.316 75.5929 85.1819 75.5909 85.0499 75.5889L72.8244 75.3769C70.8899 75.3449 68.7013 75.3069 66.7667 74.4506C64.9222 73.6384 63.1037 71.7779 63.2017 69.4572C63.2677 67.6967 64.5381 65.9502 66.4286 65.0059C68.0571 64.1917 69.8696 63.9896 71.7381 63.8396C77.2597 63.3975 81.2708 63.3194 86.5243 63.5555C87.0325 63.5115 88.7169 63.7696 89.009 64.5978C89.1211 64.8999 89.4692 65.9502 89.4492 66.7484L89.3371 70.7676C89.2911 72.466 89.045 74.3166 87.5746 75.1568C86.9084 75.5389 86.1402 75.5929 85.46 75.5929Z" fill="#232020"/>
<path d="M71.278 67.5587C70.7499 67.3886 70.1517 67.5506 69.7216 67.8987C69.2854 68.2448 69.0094 68.757 68.8553 69.2891C68.7693 69.5732 68.7233 69.8753 68.7793 70.1654C68.8253 70.3975 68.9373 70.6135 69.0814 70.8016C69.8336 71.7678 71.5081 71.7678 72.2763 70.8136C73.0505 69.8613 72.7944 68.0488 71.278 67.5587Z" fill="#AF862E"/>
<path d="M70.8379 67.9288C70.5518 67.9288 70.2437 68.0368 69.9936 68.2388C69.5835 68.5669 69.3775 69.0571 69.2714 69.4112C69.1934 69.6873 69.1734 69.9013 69.2034 70.0814C69.2354 70.2294 69.3114 70.3855 69.4235 70.5335C69.6896 70.8776 70.1557 71.0857 70.6578 71.0897C71.176 71.0837 71.6581 70.8896 71.9382 70.5395C72.2503 70.1554 72.3483 69.5652 72.1903 69.0371C72.1022 68.739 71.8462 68.2008 71.146 67.9748C71.0479 67.9428 70.9459 67.9288 70.8379 67.9288ZM70.6798 71.9639H70.6538C69.8696 71.9559 69.1734 71.6298 68.7373 71.0676C68.5332 70.8096 68.4052 70.5335 68.3492 70.2494C68.2872 69.9273 68.3132 69.5832 68.4352 69.1671C68.6313 68.4869 68.9834 67.9308 69.4455 67.5587C70.0236 67.0965 70.7759 66.9385 71.416 67.1445C72.2043 67.3986 72.7944 67.9988 73.0305 68.789C73.2706 69.5952 73.1125 70.4775 72.6204 71.0877C72.1743 71.6378 71.4521 71.9639 70.6798 71.9639Z" fill="#232020"/>
<path d="M31.0586 51.442L30.9766 51.416C30.9106 51.37 30.8945 51.278 30.9426 51.2139C31.7868 50.0036 32.8051 48.9213 33.9634 47.999C34.0254 47.949 34.1175 47.959 34.1635 48.021C34.2135 48.0831 34.2035 48.1751 34.1435 48.2251C33.0111 49.1313 32.0129 50.1937 31.1766 51.38L31.0586 51.442Z" fill="#232020"/>
<path d="M34.5836 51.0539L34.4856 51.0159C34.4296 50.9639 34.4236 50.8719 34.4756 50.8119L37.2364 47.699C37.2864 47.639 37.3784 47.633 37.4404 47.687C37.5024 47.739 37.5064 47.831 37.4504 47.893L34.6896 51.0059L34.5836 51.0539Z" fill="#232020"/>
<path d="M38.7868 50.9659L38.6908 50.9279C38.6287 50.8739 38.6287 50.7798 38.6808 50.7218L41.2055 47.975C41.2555 47.915 41.3475 47.911 41.4095 47.965C41.4655 48.0191 41.4715 48.1111 41.4195 48.1711L38.8948 50.9179L38.7868 50.9659Z" fill="#232020"/>
<path d="M72.4724 50.5238L72.3743 50.4878C72.3123 50.4338 72.3083 50.3417 72.3583 50.2817L74.909 47.4109C74.9651 47.3509 75.0571 47.3449 75.1191 47.3989C75.1751 47.4529 75.1811 47.5449 75.1291 47.605L72.5784 50.4758L72.4724 50.5238Z" fill="#232020"/>
<path d="M75.1191 50.7619L75.0171 50.7239C74.9611 50.6678 74.9551 50.5778 75.0111 50.5178C76.0354 49.3995 77.1517 48.3552 78.34 47.4109C78.402 47.3609 78.4941 47.3729 78.5461 47.4349C78.5921 47.4969 78.5821 47.589 78.5201 47.639C77.3477 48.5732 76.2414 49.6075 75.2271 50.7138L75.1191 50.7619Z" fill="#232020"/>
<path d="M79.1803 50.1557L79.0843 50.1157C79.0223 50.0597 79.0223 49.9677 79.0783 49.9097L81.4129 47.499C81.469 47.443 81.563 47.441 81.619 47.495C81.675 47.553 81.679 47.645 81.623 47.701L79.2883 50.1117L79.1803 50.1557Z" fill="#232020"/>
<path d="M82.1211 50.3077L82.0331 50.2757C81.967 50.2277 81.957 50.1357 82.007 50.0717L83.0573 48.7173C83.1094 48.6533 83.2014 48.6413 83.2614 48.6913C83.3294 48.7393 83.3394 48.8313 83.2874 48.8953L82.2331 50.2517L82.1211 50.3077Z" fill="#232020"/>
<path d="M32.7811 85.7239L32.6671 85.6639C31.9409 84.6816 31.8329 83.4392 31.7808 82.1429C31.6988 80.1983 31.6688 78.2237 31.6888 76.2732C31.6948 76.1932 31.7568 76.1292 31.8389 76.1292C31.9189 76.1292 31.9809 76.1952 31.9809 76.2752C31.9609 78.2217 31.9909 80.1903 32.0729 82.1309C32.1249 83.3792 32.227 84.5755 32.8972 85.4918C32.9492 85.5558 32.9332 85.6479 32.8672 85.6959L32.7811 85.7239Z" fill="#232020"/>
<path d="M35.848 86.266C35.792 86.266 35.746 86.238 35.72 86.19C35.0958 85.0357 34.8077 83.6793 34.9057 82.3709C34.9117 82.2909 34.9818 82.2309 35.0638 82.2349C35.1418 82.2429 35.2018 82.3109 35.1978 82.3929C35.0998 83.6453 35.3759 84.9456 35.976 86.052C36.012 86.122 35.986 86.212 35.914 86.25L35.848 86.266Z" fill="#232020"/>
<path d="M65.8804 51.3701C65.5724 45.6324 66.3306 39.8048 67.2688 34.2952L68.8093 34.4833C69.0253 34.9594 68.7693 35.4876 68.7012 35.9797C68.4912 37.3301 68.2771 38.6785 68.0671 40.0289C67.5609 42.8577 67.3509 46.1366 67.3188 49.7156C67.3188 50.2578 67.3509 50.7979 67.3509 51.3401C66.8627 51.3501 66.3726 51.3601 65.8804 51.3701Z" fill="#DEDEDE"/>
<path d="M68.8093 34.4833L67.2689 34.2952C67.2889 34.1832 67.3089 34.0712 67.3289 33.9611C67.4829 33.8891 67.653 33.8531 67.827 33.8531C68.1891 33.8531 68.5592 34.0211 68.7533 34.3812C68.7733 34.4152 68.7893 34.4493 68.8093 34.4833Z" fill="#232020"/>
<path d="M65.3263 51.3821C65.1783 49.2155 65.0662 47.0408 65.2403 44.8742C65.4604 42.4915 65.7785 40.3049 66.1926 37.8662C66.3106 37.7862 66.3926 37.6462 66.3866 37.4901C66.3866 37.3941 66.3506 37.3041 66.3006 37.232C66.4386 36.4058 66.5927 35.5476 66.7567 34.6413C66.8328 34.3152 67.0588 34.0852 67.3289 33.9611C67.3089 34.0712 67.2889 34.1832 67.2689 34.2952C66.3306 39.8048 65.5724 45.6324 65.8805 51.3701C65.6964 51.3741 65.5124 51.3781 65.3263 51.3821Z" fill="#232020"/>
<path d="M66.3567 52.5044C66.1046 52.5044 65.8545 52.4123 65.6645 52.2483C66.1266 52.2383 66.5867 52.2303 67.0529 52.2203C66.9908 52.2763 66.9308 52.3263 66.8588 52.3683C66.6988 52.4603 66.5307 52.5044 66.3567 52.5044Z" fill="#DEDEDE"/>
<path d="M65.6644 52.2483C65.5123 52.1142 65.3943 51.9342 65.3523 51.7201C65.3423 51.6081 65.3363 51.4941 65.3263 51.382C65.5123 51.378 65.6964 51.374 65.8805 51.37C66.3726 51.36 66.8627 51.35 67.3509 51.34C67.3509 51.342 67.3509 51.342 67.3509 51.344C67.3969 51.6621 67.2788 51.9962 67.0528 52.2203C66.5867 52.2303 66.1265 52.2383 65.6644 52.2483Z" fill="#232020"/>
<path d="M66.1926 37.8662C66.2226 37.6561 66.2586 37.4441 66.3006 37.232C66.3506 37.304 66.3867 37.394 66.3867 37.4901C66.3927 37.6461 66.3106 37.7862 66.1926 37.8662Z" fill="#232020"/>
<path d="M31.9249 52.0443C31.0186 52.0443 30.2204 51.9182 29.8503 51.4721C29.5742 51.14 29.5442 50.5938 29.7543 49.8476C29.7543 49.8456 29.7543 49.8416 29.7543 49.8396C29.8503 49.8076 29.9523 49.7896 30.0604 49.7896C30.1224 49.7896 30.1844 49.7956 30.2444 49.8056C30.5065 49.8096 30.7165 49.9917 30.9366 50.1177L31.0646 50.1877C31.2127 50.2397 31.4648 50.3298 31.5828 50.3518C31.5828 50.3518 31.5868 50.3518 31.5868 50.3538C31.3607 50.6319 31.1467 50.9179 30.9426 51.214C30.8946 51.278 30.9106 51.3701 30.9766 51.4161L31.0586 51.4421L31.1767 51.3801C31.4067 51.05 31.6528 50.7299 31.9089 50.4198C32.0529 50.4458 32.197 50.4698 32.289 50.4818C32.8972 50.5558 33.5073 50.5718 34.1175 50.5718C34.3056 50.5718 34.5016 50.5718 34.6897 50.5678L34.4756 50.8119C34.4236 50.8719 34.4296 50.9639 34.4856 51.016L34.5836 51.054L34.6897 51.006L35.0858 50.5658C35.1518 50.5638 35.2178 50.5638 35.2838 50.5638C35.5199 50.5638 35.756 50.5658 35.992 50.5658C36.9443 50.5658 37.8906 50.5578 38.8448 50.5438L38.6808 50.7219C38.6288 50.7799 38.6288 50.8739 38.6908 50.9279L38.7868 50.9659L38.8949 50.9179L39.249 50.5378C39.6791 50.5298 40.1132 50.5198 40.5493 50.5078C40.9494 50.4918 41.3476 50.4998 41.7477 50.4738C41.7897 50.4598 41.9577 50.4318 42.1158 50.4318C42.1978 50.4318 42.2798 50.4398 42.3378 50.4658C42.3578 50.4698 42.3719 50.4738 42.3879 50.4798C42.4039 50.8999 42.4239 51.32 42.4399 51.7442C40.0892 51.7722 37.7485 51.7982 35.4019 51.8202C34.9717 51.8242 34.4556 51.8722 33.9114 51.9222C33.2773 51.9802 32.5751 52.0443 31.9249 52.0443Z" fill="#DEDEDE"/>
<path d="M42.4398 51.7442C42.4238 51.3201 42.4038 50.9 42.3878 50.4799C42.9159 50.6439 43.176 51.2421 43.0439 51.7362C42.8439 51.7382 42.6398 51.7402 42.4398 51.7442Z" fill="#232020"/>
<path d="M34.5375 52.8325C34.3675 52.8325 34.2034 52.8325 34.0354 52.8325C33.9113 52.8285 33.7893 52.8265 33.6653 52.8205C33.7733 52.8105 33.8813 52.8005 33.9893 52.7905C34.5155 52.7424 35.0136 52.6984 35.4117 52.6944C36.6361 52.6804 37.8664 52.6684 39.0888 52.6544C38.6747 52.6884 38.2546 52.7144 37.8404 52.7344C36.7381 52.8225 35.6378 52.8325 34.5375 52.8325Z" fill="#DEDEDE"/>
<path d="M33.6653 52.8204C32.2429 52.7644 30.7565 52.5523 29.5842 51.7201C28.7759 51.26 29.01 50.0996 29.7542 49.8416C29.7542 49.8436 29.7542 49.8456 29.7542 49.8476C29.5442 50.5938 29.5742 51.1399 29.8502 51.472C30.2203 51.9181 31.0186 52.0442 31.9248 52.0442C32.575 52.0442 33.2772 51.9802 33.9114 51.9221C34.4555 51.8721 34.9717 51.8241 35.4018 51.8201C37.7485 51.7981 40.0891 51.7721 42.4398 51.7441C42.6399 51.7401 42.8439 51.7381 43.044 51.7361C42.992 51.9361 42.8739 52.1162 42.6859 52.2462C42.4598 52.4403 42.1777 52.4783 41.8917 52.4783C41.7996 52.4783 41.7016 52.4743 41.6096 52.4703C41.5176 52.4663 41.4255 52.4623 41.3375 52.4623C41.3335 52.4623 41.3335 52.4623 41.3275 52.4623C40.5793 52.5263 39.8371 52.5983 39.0889 52.6544C37.8665 52.6684 36.6362 52.6804 35.4118 52.6944C35.0137 52.6984 34.5156 52.7424 33.9894 52.7904C33.8814 52.8004 33.7734 52.8104 33.6653 52.8204Z" fill="#232020"/>
<path d="M31.0586 51.4421L30.9766 51.4161C30.9106 51.37 30.8945 51.278 30.9426 51.214C31.1466 50.9179 31.3607 50.6318 31.5867 50.3538C31.6588 50.3718 31.7808 50.3958 31.9088 50.4198C31.6528 50.7299 31.4067 51.05 31.1766 51.3801L31.0586 51.4421Z" fill="#232020"/>
<path d="M34.5836 51.054L34.4856 51.016C34.4296 50.964 34.4236 50.8719 34.4756 50.8119L34.6896 50.5679C34.8177 50.5679 34.9517 50.5659 35.0858 50.5659L34.6896 51.006L34.5836 51.054Z" fill="#232020"/>
<path d="M38.7868 50.9659L38.6908 50.9279C38.6287 50.8739 38.6287 50.7798 38.6808 50.7218L38.8448 50.5438C38.9768 50.5418 39.1109 50.5398 39.2489 50.5378L38.8948 50.9179L38.7868 50.9659Z" fill="#232020"/>
<path d="M71.5541 51.2541C71.6681 50.6599 71.7861 50.0657 71.9082 49.4696C71.9342 49.4656 71.9602 49.4636 71.9902 49.4616C72.4003 49.3975 72.8104 49.3495 73.2185 49.3135L72.3583 50.2818C72.3083 50.3418 72.3123 50.4338 72.3743 50.4879L72.4723 50.5239L72.5784 50.4759L73.6387 49.2815C74.3809 49.2315 75.1291 49.2175 75.8773 49.2175C76.0113 49.2175 76.1434 49.2195 76.2774 49.2195C75.8413 49.6396 75.4172 50.0717 75.0111 50.5179C74.955 50.5779 74.961 50.6679 75.0171 50.7239L75.1191 50.7619L75.2271 50.7139C75.6973 50.1998 76.1854 49.7016 76.6975 49.2215C76.8916 49.2235 77.0917 49.2275 77.2857 49.2295C77.7558 49.2355 78.228 49.2395 78.7001 49.2395C78.7501 49.2395 78.7961 49.2395 78.8481 49.2395C79.0582 49.2475 79.2623 49.2515 79.4723 49.2515C79.5543 49.2515 79.6364 49.2515 79.7184 49.2495L79.0782 49.9097C79.0222 49.9677 79.0222 50.0597 79.0842 50.1157L79.1802 50.1558L79.2883 50.1117L80.1325 49.2415C81.0048 49.2155 81.879 49.1495 82.7493 49.1155L82.007 50.0717C81.957 50.1358 81.967 50.2278 82.0331 50.2758L82.1211 50.3078L82.2331 50.2518L83.1294 49.1035C83.2734 49.0995 83.4154 49.0975 83.5595 49.0955C83.7535 49.1035 83.9236 49.1475 84.0656 49.2195C84.0516 49.8077 84.0456 50.3878 84.0556 50.958C79.9024 51.064 75.7293 51.162 71.5541 51.2541Z" fill="#DEDEDE"/>
<path d="M84.0556 50.9579C84.0456 50.3878 84.0516 49.8076 84.0656 49.2194C84.7218 49.5535 84.7938 50.4698 84.3177 50.9499C84.2297 50.9539 84.1437 50.9559 84.0556 50.9579Z" fill="#232020"/>
<path d="M71.0579 51.2641C70.6378 50.6359 70.8639 49.5856 71.9082 49.4695C71.7861 50.0657 71.6681 50.6599 71.5541 51.2541C71.39 51.2561 71.222 51.2601 71.0579 51.2641Z" fill="#232020"/>
<path d="M71.9602 51.7301C71.5441 51.7301 71.242 51.5361 71.0579 51.264C71.222 51.26 71.39 51.256 71.5541 51.254C75.7292 51.162 79.9024 51.0639 84.0556 50.9579C84.1436 50.9559 84.2297 50.9539 84.3177 50.9499C84.1376 51.1359 83.8776 51.258 83.5335 51.258C83.5235 51.258 83.5075 51.258 83.4935 51.258C81.839 51.348 80.1885 51.5341 78.53 51.5341C78.356 51.5341 78.1819 51.5321 78.0119 51.5281C76.0113 51.5981 73.3326 51.476 72.2723 51.6961C72.1642 51.7181 72.0562 51.7301 71.9602 51.7301Z" fill="#232020"/>
<path d="M72.4724 50.5238L72.3743 50.4878C72.3123 50.4338 72.3083 50.3417 72.3583 50.2817L73.2186 49.3134C73.3626 49.3014 73.5006 49.2914 73.6387 49.2814L72.5784 50.4758L72.4724 50.5238Z" fill="#232020"/>
<path d="M75.1191 50.7619L75.0171 50.7238C74.9611 50.6678 74.9551 50.5778 75.0111 50.5178C75.4172 50.0717 75.8413 49.6395 76.2774 49.2194C76.4155 49.2194 76.5535 49.2214 76.6976 49.2214C76.1854 49.7016 75.6973 50.1997 75.2271 50.7138L75.1191 50.7619Z" fill="#232020"/>
<path d="M79.1803 50.1557L79.0843 50.1157C79.0223 50.0597 79.0223 49.9677 79.0783 49.9096L79.7185 49.2495C79.8565 49.2475 79.9945 49.2435 80.1326 49.2415L79.2883 50.1117L79.1803 50.1557Z" fill="#232020"/>
<path d="M82.1211 50.3077L82.0331 50.2757C81.967 50.2277 81.957 50.1357 82.007 50.0717L82.7493 49.1154C82.8773 49.1114 83.0013 49.1074 83.1294 49.1034L82.2331 50.2517L82.1211 50.3077Z" fill="#232020"/>
<path d="M84.0056 88.5806C83.5695 86.552 83.5435 84.4574 83.4054 82.3928C83.3294 80.8004 83.2214 79.2119 83.2314 77.6195C81.987 77.6195 80.7527 77.7695 79.5083 77.7695C79.5023 77.7695 79.4983 77.7695 79.4923 77.7695C79.2262 77.7795 78.9241 77.7835 78.6021 77.7835C77.0196 77.7835 74.955 77.6735 74.2788 77.5475C72.8344 77.4254 71.402 77.2354 69.9976 76.8573C68.1891 76.4592 66.2906 75.713 65.1682 74.1685C65.0142 73.8984 65.0342 73.6404 65.1482 73.4403C65.6504 73.8624 66.2085 74.2045 66.7667 74.4506C68.7012 75.3068 70.8899 75.3448 72.8244 75.3769L85.0499 75.5889C85.0539 75.5889 85.0599 75.5889 85.0699 75.5889C85.0199 79.6821 85.1119 83.8033 85.464 88.0665C85.454 88.2365 85.434 88.4046 85.398 88.5706C84.9379 88.5726 84.4717 88.5766 84.0056 88.5806Z" fill="#DEDEDE"/>
<path d="M84.7179 89.2868C84.4258 89.2868 84.1337 89.1128 84.0517 88.7947C84.0357 88.7227 84.0197 88.6526 84.0057 88.5806C84.4718 88.5766 84.9379 88.5726 85.3981 88.5706C85.3781 88.6926 85.3461 88.8147 85.306 88.9347C85.188 89.1748 84.9519 89.2868 84.7179 89.2868ZM85.4641 88.0665C85.112 83.8033 85.02 79.6821 85.07 75.5889C85.194 75.5909 85.3261 75.5929 85.4601 75.5929C85.4901 75.5929 85.5261 75.5929 85.5561 75.5929C85.7462 75.903 85.7762 76.3071 85.5781 76.6352L85.4861 76.7473L85.4901 76.8433C85.7722 77.1274 85.6842 77.6795 85.6481 78.1096C85.5821 78.9239 85.4901 79.7341 85.4501 80.5483C85.3981 82.5109 85.5261 84.4735 85.5001 86.436C85.4641 86.9702 85.5061 87.5263 85.4641 88.0665Z" fill="#232020"/>
<path d="M68.8354 74.1845C68.2412 74.0645 67.663 73.8945 67.1189 73.6524C67.0689 73.6304 67.0168 73.6064 66.9668 73.5824C67.0428 73.5604 67.1149 73.5504 67.1869 73.5504C67.561 73.5504 67.8871 73.8204 68.2352 73.9685C68.4312 74.0525 68.6313 74.1225 68.8354 74.1845ZM66.5147 73.3403C66.4587 73.3083 66.4027 73.2723 66.3507 73.2363C66.4127 73.2603 66.4687 73.2983 66.5147 73.3403ZM66.3046 73.2063C66.2546 73.1762 66.2086 73.1422 66.1626 73.1102C66.2086 73.1362 66.2586 73.1682 66.3046 73.2063Z" fill="#DEDEDE"/>
<path d="M85.4601 75.593C85.326 75.593 85.194 75.591 85.07 75.589C85.06 75.589 85.054 75.589 85.05 75.589L72.8245 75.3769C70.8899 75.3449 68.7013 75.3069 66.7668 74.4507C66.2086 74.2046 65.6505 73.8625 65.1483 73.4404C65.2864 73.1963 65.5684 73.0363 65.8445 73.0363C65.9525 73.0363 66.0586 73.0583 66.1626 73.1103C66.2086 73.1423 66.2546 73.1763 66.3046 73.2063C66.3106 73.2143 66.3206 73.2223 66.3307 73.2303C66.3367 73.2323 66.3407 73.2343 66.3507 73.2363C66.4027 73.2723 66.4587 73.3083 66.5147 73.3403C66.6167 73.4304 66.6988 73.5484 66.8028 73.6424C66.8528 73.6184 66.9048 73.5984 66.9608 73.5844C66.9608 73.5844 66.9668 73.5844 66.9668 73.5824C67.0168 73.6064 67.0689 73.6304 67.1189 73.6524C67.663 73.8945 68.2412 74.0645 68.8354 74.1846C69.3055 74.3306 69.7876 74.4327 70.2638 74.5627H70.2538L70.2798 74.5667C70.4438 74.6287 71.006 74.7247 71.226 74.7607L71.2781 74.7667C73.4547 75.0468 75.6413 75.2449 77.8339 75.2449C78.188 75.2449 78.5461 75.2389 78.8982 75.2289C79.3864 75.2029 79.8725 75.1949 80.3586 75.1949C80.7007 75.1949 81.0448 75.1989 81.3889 75.2029C81.731 75.2049 82.0751 75.2089 82.4172 75.2089C83.0274 75.2089 83.6416 75.1969 84.2517 75.1509C84.3178 75.1509 84.3838 75.1449 84.4498 75.1409C84.5318 75.1208 84.6198 75.1088 84.7059 75.1088C84.7939 75.1088 84.8799 75.1208 84.9679 75.1449C85.224 75.2109 85.4281 75.3789 85.5561 75.593C85.5261 75.593 85.4901 75.593 85.4601 75.593Z" fill="#232020"/>
<path d="M85.5001 63.5135C85.132 63.4995 84.7679 63.4875 84.4097 63.4755C84.4037 63.4335 84.4037 63.3894 84.4037 63.3454C84.8199 60.1345 85.0899 56.0634 85.152 52.2583C85.152 52.0702 85.214 51.9162 85.322 51.7982C85.5561 51.7922 85.7921 51.7862 86.0322 51.7802C85.9262 55.1831 85.7521 58.5421 85.5881 61.797C85.5621 62.3712 85.5321 62.9433 85.5001 63.5135Z" fill="#DEDEDE"/>
<path d="M85.8381 63.5255C85.7261 63.5215 85.6141 63.5175 85.5 63.5135C85.5321 62.9433 85.5621 62.3711 85.5881 61.797C85.7521 58.542 85.9262 55.1831 86.0322 51.7801C85.7921 51.7861 85.5561 51.7921 85.322 51.7981C85.464 51.6401 85.6801 51.5521 85.8902 51.5521C86.1562 51.5521 86.4123 51.6861 86.5243 51.9822C86.6724 52.5263 86.4983 53.1545 86.5303 53.7227C86.5203 56.1514 86.3403 58.5721 86.1142 60.9907C86.1102 61.2948 85.9262 62.7312 85.9262 62.7312C85.9262 62.7312 85.9262 62.7112 85.9302 62.6692C85.8701 62.9433 85.9102 63.2554 85.8381 63.5255Z" fill="#232020"/>
<path d="M85.1579 64.0737C84.8138 64.0737 84.4717 63.8336 84.4097 63.4755C84.7678 63.4875 85.1319 63.4995 85.5 63.5135C85.6141 63.5175 85.7261 63.5215 85.8381 63.5255C85.8021 63.6476 85.7521 63.7636 85.6541 63.8616C85.516 64.0077 85.336 64.0737 85.1579 64.0737Z" fill="#232020"/>
</svg>
