<svg width="20" height="20" viewBox="0 0 20 20" fill="none" xmlns="http://www.w3.org/2000/svg">
<path d="M10 20C15.5228 20 20 15.5228 20 10C20 4.47715 15.5228 0 10 0C4.47715 0 0 4.47715 0 10C0 15.5228 4.47715 20 10 20Z" fill="#25D366"/>
<path fill-rule="evenodd" clip-rule="evenodd" d="M10.3303 15.5635H10.3278C9.33261 15.5632 8.35474 15.3135 7.48621 14.8398L4.33398 15.6667L5.17757 12.5853C4.65721 11.6835 4.38339 10.6606 4.38384 9.6126C4.38514 6.33404 7.05266 3.66666 10.3302 3.66666C11.9209 3.66735 13.4139 4.28661 14.5366 5.41059C15.6592 6.53451 16.2772 8.02847 16.2765 9.61729C16.2752 12.8951 13.6088 15.5622 10.3303 15.5635ZM7.63226 13.7633L7.81274 13.8704C8.57156 14.3207 9.4414 14.559 10.3283 14.5593H10.3303C13.0543 14.5593 15.2715 12.3421 15.2725 9.61695C15.2731 8.29633 14.7595 7.05462 13.8263 6.12041C12.8932 5.1862 11.6523 4.67147 10.3322 4.67101C7.60604 4.67101 5.38889 6.88796 5.38781 9.61294C5.38743 10.5468 5.64872 11.4563 6.14346 12.2432L6.26097 12.4302L5.76169 14.254L7.63226 13.7633ZM13.1225 10.8975C13.2261 10.9476 13.2961 10.9814 13.326 11.0313C13.3631 11.0933 13.3631 11.3907 13.2394 11.7379C13.1155 12.0849 12.5219 12.4017 12.2364 12.4443C11.9805 12.4826 11.6565 12.4985 11.3006 12.3854C11.0848 12.317 10.8081 12.2255 10.4536 12.0724C9.06072 11.471 8.11941 10.121 7.94151 9.86584C7.92904 9.84797 7.92033 9.83547 7.91547 9.82897L7.91427 9.82737C7.83563 9.72246 7.30878 9.01951 7.30878 8.29199C7.30878 7.6076 7.64497 7.24887 7.79971 7.08375C7.81031 7.07244 7.82006 7.06204 7.8288 7.0525C7.96498 6.90375 8.12596 6.86656 8.225 6.86656C8.32404 6.86656 8.4232 6.86748 8.50977 6.87182C8.52045 6.87236 8.53156 6.8723 8.54305 6.87223C8.62963 6.87172 8.73757 6.87109 8.84406 7.12687C8.88503 7.22531 8.94497 7.37126 9.0082 7.52518C9.13605 7.83643 9.2773 8.18032 9.30215 8.23008C9.33931 8.30446 9.36406 8.39119 9.31454 8.4904C9.30711 8.50527 9.30023 8.5193 9.29366 8.53272C9.25646 8.60866 9.2291 8.66452 9.16597 8.73824C9.14114 8.76722 9.11548 8.79847 9.08983 8.82971C9.03871 8.89196 8.9876 8.95421 8.94309 8.99855C8.86871 9.07264 8.79128 9.15302 8.87795 9.30177C8.96462 9.45052 9.26281 9.93705 9.7045 10.331C10.1793 10.7545 10.592 10.9335 10.8011 11.0243C10.842 11.042 10.8751 11.0563 10.8993 11.0685C11.0479 11.1429 11.1345 11.1304 11.2212 11.0313C11.3079 10.9321 11.5926 10.5974 11.6917 10.4487C11.7907 10.3 11.8898 10.3248 12.026 10.3744C12.1622 10.424 12.8927 10.7834 13.0412 10.8577C13.0702 10.8723 13.0974 10.8854 13.1225 10.8975Z" fill="#FDFDFD"/>
</svg>
