<svg width="137" height="153" viewBox="0 0 137 153" fill="none" xmlns="http://www.w3.org/2000/svg">
<path fill-rule="evenodd" clip-rule="evenodd" d="M52.2561 29.0733H51.541V27.4595H52.2561V29.0733Z" fill="#A27B1E"/>
<path fill-rule="evenodd" clip-rule="evenodd" d="M46.6992 6.60055H69.1717L68.9249 6.21451H46.7372L46.6992 6.60055Z" fill="#A27B1E"/>
<path fill-rule="evenodd" clip-rule="evenodd" d="M68.6866 20.3525H58.7129V19.4159H68.6866V20.3525Z" fill="#A27B1E"/>
<path fill-rule="evenodd" clip-rule="evenodd" d="M61.6427 29.1997H50.707L50.9412 28.8706H61.5857L61.6427 29.1997Z" fill="#A27B1E"/>
<path fill-rule="evenodd" clip-rule="evenodd" d="M74.1916 29.1997H62.8066L63.0598 28.8706H74.1916V29.1997Z" fill="#A27B1E"/>
<path fill-rule="evenodd" clip-rule="evenodd" d="M61.5861 20.3651C61.5861 20.3651 61.4216 23.8394 59.7129 24.1938H63.6366C63.6366 24.1938 62.1683 23.6559 61.8393 20.3651H61.5861Z" fill="#A27B1E"/>
<path fill-rule="evenodd" clip-rule="evenodd" d="M66.2556 20.3335C66.2556 20.3335 65.9962 22.8712 64.9266 23.5167H64.7621C63.6926 22.8712 63.4395 20.3335 63.4395 20.3335H66.2556Z" fill="#A27B1E"/>
<path fill-rule="evenodd" clip-rule="evenodd" d="M60.0605 20.3335C60.0605 20.3335 59.801 22.8712 58.7315 23.5167H58.5733C57.2949 23.1876 58.5796 20.4031 58.5036 20.3335H60.0605Z" fill="#A27B1E"/>
<path fill-rule="evenodd" clip-rule="evenodd" d="M52.5781 32.1045C51.3124 32.6804 52.287 33.9587 53.4831 34.946H68.5892V33.8512C67.2222 33.2436 51.4769 35.4713 52.5781 32.1045Z" fill="#A27B1E"/>
<path fill-rule="evenodd" clip-rule="evenodd" d="M50.1309 106.078L53.485 34.9459L55.3139 34.8827L50.7194 105.983L50.1309 106.078Z" fill="#A27B1E"/>
<path fill-rule="evenodd" clip-rule="evenodd" d="M84.1406 29.0733H84.8494V27.4595H84.1406V29.0733Z" fill="#A27B1E"/>
<path fill-rule="evenodd" clip-rule="evenodd" d="M89.688 6.60055H68.5762L68.823 6.21451H89.6564L89.688 6.60055Z" fill="#A27B1E"/>
<path fill-rule="evenodd" clip-rule="evenodd" d="M67.7051 20.3525H77.6851V19.4159H67.7051V20.3525Z" fill="#A27B1E"/>
<path fill-rule="evenodd" clip-rule="evenodd" d="M75.4902 29.1997H85.6918L85.4703 28.8706H75.4902V29.1997Z" fill="#A27B1E"/>
<path fill-rule="evenodd" clip-rule="evenodd" d="M74.8133 20.3651C74.8133 20.3651 74.9715 23.8394 76.6866 24.1938H72.668C72.668 24.1938 74.2311 23.6559 74.5539 20.3651H74.8133Z" fill="#A27B1E"/>
<path fill-rule="evenodd" clip-rule="evenodd" d="M68.054 20.3904C68.054 20.3904 67.9211 23.4344 66.0605 24.39H70.2943C70.2943 24.39 68.516 23.6559 68.1932 20.3651L68.054 20.3904Z" fill="#A27B1E"/>
<path fill-rule="evenodd" clip-rule="evenodd" d="M70.0156 20.3335C70.0156 20.3335 70.2688 22.8712 71.3383 23.5167H71.5028C72.5723 22.8712 72.8255 20.3335 72.8255 20.3335H70.0156Z" fill="#A27B1E"/>
<path fill-rule="evenodd" clip-rule="evenodd" d="M76.4004 20.3335C76.4004 20.3335 76.6599 22.8712 77.723 23.5167H77.8876C79.1596 23.1876 77.8813 20.4031 77.9572 20.3335H76.4004Z" fill="#A27B1E"/>
<path fill-rule="evenodd" clip-rule="evenodd" d="M86.2682 106.078L82.9141 34.9459L81.3066 34.8827L85.3948 105.654L86.2682 106.078Z" fill="#A27B1E"/>
<path fill-rule="evenodd" clip-rule="evenodd" d="M52.4176 9.08765C52.4176 9.08765 61.1635 11.0875 58.3917 20.3524C59.1511 20.0613 57.974 9.94832 51.1582 9.37876L52.4176 9.08765Z" fill="#A27B1E"/>
<path fill-rule="evenodd" clip-rule="evenodd" d="M83.9212 9.08765C83.9212 9.08765 75.1752 11.0875 77.9471 20.3524C77.9471 20.3524 75.4917 12.6696 84.7945 9.18257L83.9212 9.08765Z" fill="#A27B1E"/>
<path fill-rule="evenodd" clip-rule="evenodd" d="M62.8983 26.8771C63.0628 26.1873 63.5754 25.7 64.2146 25.4848H55.4876C54.1966 26.586 51.8867 27.4909 51.8867 27.4909V29.0731L61.6199 29.0604C61.6579 28.6301 60.677 28.6617 60.696 28.668C56.8989 28.8199 59.6391 25.9341 61.4997 28.2061V27.4403C61.0947 27.0796 60.5188 26.9467 60.5188 26.9467C56.5128 26.4594 60.5251 24.0735 61.4997 26.8075C61.1643 25.238 63.297 25.3392 62.8983 26.8771Z" fill="#A27B1E"/>
<path fill-rule="evenodd" clip-rule="evenodd" d="M80.9689 25.4848H77.9186C79.4311 26.8328 76.3238 26.4847 75.5264 27.3834V28.2883C77.7857 25.8645 80.5385 28.8326 75.5264 28.8073C75.5137 28.8959 75.6276 29.0351 75.558 29.1047L84.5698 29.0731V27.4909C84.5698 27.4909 82.2599 26.586 80.9689 25.4848Z" fill="#A27B1E"/>
<path fill-rule="evenodd" clip-rule="evenodd" d="M75.527 26.8771C75.6915 26.1873 76.1978 25.7 76.837 25.4848C74.4638 25.4848 67.5531 25.4848 65.2938 25.4848C66.8 26.8328 63.6927 26.4847 62.8953 27.3834V28.2883C65.1609 25.8645 67.9012 28.8326 62.8953 28.8073C62.889 28.8959 62.8953 29.149 62.832 29.2186L68.2302 29.13L68.6036 29.1743L68.6099 29.0351L74.1727 29.0161C74.0967 28.9402 74.1284 28.8832 74.1284 28.7883C69.401 28.9022 71.6982 25.9088 74.1284 28.2061V27.4403C73.7234 27.0796 73.1475 26.9467 73.1475 26.9467C69.1415 26.4531 73.1538 24.0735 74.1284 26.8075C73.7867 25.238 75.9194 25.3392 75.527 26.8771Z" fill="#A27B1E"/>
<path fill-rule="evenodd" clip-rule="evenodd" d="M73.5522 17.3845C71.7486 17.2769 71.8752 16.2834 72.8877 15.9986C75.3052 15.043 78.4189 12.2711 78.4189 12.2711C76.2292 15.4353 75.9128 17.0554 73.5522 17.3845ZM68.9641 13.2583C68.7363 12.0496 70.6348 11.3345 71.2487 12.0243C69.9766 12.4293 70.7993 13.0115 70.7993 13.0115C71.717 13.7583 76.7988 10.5561 76.7988 10.5561C80.3174 8.42337 82.8551 9.08153 82.8551 9.08153C77.0076 9.84728 71.5461 19.3463 68.9641 13.2583ZM74.1724 9.49288C75.4381 11.8471 71.4132 10.5814 70.369 10.9991C70.369 10.9991 72.4258 8.06265 74.1724 9.49288ZM67.4199 13.2583C64.8253 19.3463 59.3891 9.84728 53.5289 9.08153C53.5289 9.08153 56.0666 8.42337 59.5853 10.5561C59.5853 10.5561 64.667 13.7583 65.5847 13.0115C65.5847 13.0115 66.4074 12.4293 65.1353 12.0243C65.7492 11.3345 67.6478 12.0496 67.4199 13.2583ZM62.8318 17.3845C60.4713 17.0554 60.1548 15.4353 57.9652 12.2711C57.9652 12.2711 61.2307 15.1759 63.6735 16.0682C64.5152 16.372 64.5341 17.2959 62.8318 17.3845ZM61.9205 10.0561C62.8191 7.48043 66.1922 10.8598 66.015 10.9991C64.8696 10.4548 62.2496 11.8977 61.9205 10.0561ZM88.6014 5.97424L87.4053 6.60709C101.936 6.01854 101.505 27.4785 88.3229 27.6493C80.7857 28.4404 74.1788 19.3717 80.3807 11.575C77.8936 14.5557 77.6847 15.7138 77.5329 17.0681L77.5265 17.0175H77.4822C77.6974 13.8975 79.8111 11.7585 81.9122 10.3852C80.3617 11.5433 79.7035 12.7078 79.7035 12.7078C90.9556 2.12652 100.701 17.6566 91.5821 23.2194C78.5834 27.5734 80.5895 10.4422 88.8102 13.0368C94.9362 14.967 90.886 20.9601 89.1583 21.0297C83.0197 22.0549 85.165 15.4923 86.8737 15.6062C90.2911 14.6379 90.1455 20.6563 86.6839 18.7451C90.6645 22.1752 91.7467 14.2772 87.7028 14.5557C83.8803 14.0557 82.8994 19.8779 85.7852 21.4601C96.1386 24.5484 94.5185 9.52453 86.0257 11.7901C75.2293 15.5999 83.0387 28.0987 90.3607 25.2508C99.5307 22.5612 97.6765 10.5624 91.0315 8.67651C86.6396 7.34753 74.5015 8.2968 70.1538 8.02467C71.641 8.95496 68.4262 11.2269 68.1983 12.6065C67.9262 11.2459 64.7303 8.96129 66.2112 8.02467C61.7686 8.31579 50.0166 7.35386 45.5423 8.67651C38.8974 10.5624 37.0368 22.5612 46.2195 25.2508C53.5479 28.0923 61.3383 15.5936 50.5482 11.7901C42.049 9.52453 40.4352 24.5484 50.7887 21.4664C53.6744 19.8779 52.6935 14.0557 48.8648 14.5557C44.8272 14.2836 45.9094 22.1752 49.8837 18.7451C46.4283 20.6563 46.2828 14.6379 49.7002 15.6062C51.4025 15.4923 53.5542 22.0549 47.4092 21.0297C45.6942 20.9538 41.644 14.967 47.7636 13.0368C55.9843 10.4485 57.9842 27.5734 44.9918 23.2194C35.8661 17.644 45.6246 2.13285 56.8703 12.7078C56.8703 12.7078 56.4716 11.9926 55.5603 11.132C62.8824 18.2452 55.997 28.6745 48.2509 27.6493C35.0687 27.4721 34.632 6.01854 49.1622 6.60709C42.2009 4.26555 36.5179 11.8787 37.0368 17.6123C36.9736 30.8009 58.4525 33.326 59.079 18.3021H67.2237C65.4961 17.568 66.2618 16.296 66.92 16.1188C67.73 15.6758 68.1477 13.695 68.1477 13.695C68.1477 13.695 68.5274 15.6758 69.3375 16.1188C70.002 16.296 70.7614 17.568 69.0337 18.3021H77.4949C77.5961 25.466 83.45 28.8644 88.6394 28.6999C102.435 28.3771 103.518 6.28434 88.6014 5.97424Z" fill="#A27B1E"/>
<path fill-rule="evenodd" clip-rule="evenodd" d="M58.2754 39.7874C58.6235 37.6674 59.9398 37.3573 61.2498 38.085C60.9081 35.7751 57.2629 35.908 57.4021 38.4268L55.0669 104.585C55.0669 105.458 54.9783 106.812 55.0732 106.718C56.592 107.199 57.7438 40.1038 58.2754 39.7874Z" fill="#A27B1E"/>
<path fill-rule="evenodd" clip-rule="evenodd" d="M63.004 106.572C62.9661 106.401 64.3963 39.8568 64.3963 39.8568C64.39 38.3443 66.1746 37.2432 67.3644 38.1545C59.612 24.4533 63.3078 98.2815 62.2383 105.635L63.004 106.572Z" fill="#A27B1E"/>
<path fill-rule="evenodd" clip-rule="evenodd" d="M71.5249 106.407C73.0627 105.496 67.4683 32.9523 73.8285 38.0847C65.5065 23.1432 72.1198 107.945 70.4997 105.996L71.5249 106.407Z" fill="#A27B1E"/>
<path fill-rule="evenodd" clip-rule="evenodd" d="M80.4575 106.958C81.9257 105.926 73.7873 31.8515 80.4132 38.085C71.8381 23.4156 81.4764 108.831 79.8057 106.844L80.4575 106.958Z" fill="#A27B1E"/>
<path fill-rule="evenodd" clip-rule="evenodd" d="M90.9123 3.50599C79.5084 3.50599 56.9599 3.50599 45.5244 3.50599V0.79739C56.9473 0.79739 79.5337 0.79739 90.9123 0.79739V3.50599ZM91.9565 0.0126571V0C80.0589 0 56.3777 0 44.4422 0V0.0126571H44.3979V3.50599H44.3789L44.3979 3.51864V3.5313H44.4105L46.2458 5.03115C45.961 5.3982 45.7142 6.06902 47.1571 6.47405C47.1571 6.47405 47.0748 6.36014 47.0116 6.19559C47.4546 7.00564 88.5834 6.22091 89.2416 6.46772V6.47405C90.3364 6.23989 90.482 5.5311 89.9694 5.17671L91.9882 3.5313H92.0388V0.0126571H91.9565Z" fill="#A27B1E"/>
<path fill-rule="evenodd" clip-rule="evenodd" d="M86.5262 29.5668C85.887 28.6809 85.0137 28.9087 85.0137 28.9087C84.7479 28.7821 84.7859 29.1365 84.7859 29.1365C89.8867 32.3324 68.7178 30.5604 68.5406 30.9781C68.2938 30.5351 46.4605 32.3767 51.6119 29.1365C51.6119 29.1365 51.6499 28.7821 51.3841 28.9087C49.4982 28.4087 48.3085 32.3704 52.5865 32.2311C49.2577 35.7435 67.9268 33.4462 68.3888 34.0601V34.9461H82.9127C83.7227 34.3006 85.134 32.7311 84.0012 32.2311C87.1274 32.421 86.8426 29.6301 86.5262 29.5668Z" fill="#A27B1E"/>
<path fill-rule="evenodd" clip-rule="evenodd" d="M79.7989 29.1996H57.5605V25.4848H79.7989V29.1996Z" fill="#A27B1E"/>
<path fill-rule="evenodd" clip-rule="evenodd" d="M25.7582 134.974V114.748C22.9357 114.603 21.6953 114.824 21.7459 117.919H19.1133L19.2842 111.451H37.5861L37.757 117.919H35.0548C35.4281 115.077 34.0106 114.52 31.1121 114.748V134.974H25.7582Z" fill="#A27B1E"/>
<path fill-rule="evenodd" clip-rule="evenodd" d="M48.5073 121.627C55.6965 121.703 52.7031 113.033 47.691 114.932C47.5074 115.28 47.5897 120.798 47.5707 121.627H48.5073ZM53.8802 134.974L48.1529 124.924H47.5707V134.974H42.2231C42.1345 133.601 42.4446 115.229 42.0333 114.464C42.1409 114.388 40.0904 113.913 39.1602 113.812V111.451H47.9947C59.3417 111.065 61.3605 120.767 53.5322 124.057L59.6202 134.974H53.8802Z" fill="#A27B1E"/>
<path fill-rule="evenodd" clip-rule="evenodd" d="M70.3502 135.335C58.5033 136.24 62.5155 121.893 61.5156 114.799C61.6612 114.742 59.4462 114.293 58.459 114.21V111.128L67.0467 111.084C67.9074 114.989 64.3698 132.987 70.7552 132.038C74.8055 131.652 74.603 130.494 74.8181 125.956V111.084H78.9253C77.8938 118.64 83.0768 136.234 70.3502 135.335Z" fill="#A27B1E"/>
<path fill-rule="evenodd" clip-rule="evenodd" d="M87.9572 135.335C86.4067 135.36 83.7804 134.905 81.4009 134.291V129.411C91.9948 136.398 95.988 127.532 84.274 123.216C75.1736 115.21 86.8054 108.477 95.3299 111.825V116.387C84.5081 110.742 83.7297 118.748 93.7731 122.355C100.488 127.083 95.7096 136.272 87.9572 135.335Z" fill="#A27B1E"/>
<path fill-rule="evenodd" clip-rule="evenodd" d="M105.464 134.974V114.748C102.641 114.603 101.401 114.818 101.445 117.919H98.8125L98.9897 111.451H117.292L117.463 117.919H114.76C115.134 115.071 113.71 114.52 110.811 114.748V134.974H105.464Z" fill="#A27B1E"/>
<mask id="mask0_377_2045" style="mask-type:alpha" maskUnits="userSpaceOnUse" x="0" y="140" width="137" height="13">
<path d="M0 140.942H136.556V152.333H0V140.942Z" fill="black"/>
</mask>
<g mask="url(#mask0_377_2045)">
<path fill-rule="evenodd" clip-rule="evenodd" d="M135.711 150.017C134.59 150.042 134.59 148.296 135.711 148.321C136.837 148.296 136.831 150.042 135.711 150.017ZM133.92 149.441V149.916C130.274 151.074 131.255 146.853 131.148 144.783H130.211V144.302H131.148V143.353L132.35 142.283V144.302H133.92V144.783H132.35C132.641 146.017 131.357 150.251 133.92 149.441ZM129.053 144.372V145.271C125.636 143.448 126.876 146.562 128.73 147.017C130.857 149.08 127.724 150.707 125.712 149.795V148.865C126.971 150.143 129.578 149.169 127.648 147.77C124.402 146.669 125.819 143.157 129.053 144.372ZM122.952 149.884V148.523H122.927C122.054 151.01 119.016 150.143 119.459 147.568C119.32 146.732 119.965 144.65 118.535 144.796V144.555L120.661 144.169V147.783C120.661 150.321 123.193 148.941 122.927 147.182C122.832 146.372 123.332 144.682 122.028 144.796V144.555L124.155 144.169V149.884H122.952ZM114.934 149.884C114.618 148.979 115.776 144.555 113.985 144.796V144.555L116.13 144.169V145.751H116.156C116.58 144.366 117.231 143.999 118.307 144.226V145.372C115.504 144.378 116.206 148.359 116.13 149.884H114.934ZM110.169 149.884V142.366C109.163 142.353 108.03 142.227 108.042 143.543H107.707L107.751 141.803H113.903L113.947 143.543H113.612C113.713 142.227 112.453 142.353 111.485 142.366V149.884H110.169ZM98.3409 149.884C97.9422 148.966 99.3281 141.733 97.4043 142.018V141.777L99.5433 141.48V145.72H99.5686C102.891 141.037 103.391 147.34 103.037 149.884H101.834C102.67 143.056 98.9927 143.549 99.5433 149.884H98.3409ZM97.2397 149.441V149.916C93.5882 151.074 94.5691 146.853 94.4615 144.783H93.5249V144.302H94.4615V143.353L95.6639 142.283V144.302H97.2397V144.783H95.6639C95.955 146.017 94.6767 150.251 97.2397 149.441ZM91.6453 143.22C90.6771 143.233 90.6771 141.695 91.658 141.72C92.6642 141.701 92.6452 143.245 91.6453 143.22ZM91.0315 149.884C90.7277 148.992 91.8668 144.574 90.1075 144.796V144.555L92.2339 144.169V149.884H91.0315ZM81.659 149.884C80.9692 148.694 80.8552 141.885 78.7795 142.068V141.803H80.9502L82.5323 148.346H82.5576L84.4562 141.803H85.2852L87.4432 148.346H87.4622L88.7849 141.803H89.5696L87.8735 149.884H86.7344L84.6523 143.48H84.6207L82.7728 149.884H81.659ZM74.1091 150.017C72.9889 150.042 72.9889 148.296 74.1091 148.321C75.2292 148.289 75.2292 150.042 74.1091 150.017ZM67.1794 152.333C66.787 151.428 68.1603 144.479 66.2428 144.796V144.555L68.3818 144.169V145.144H68.4071C73.299 140.455 72.9953 153.776 68.4071 149.137H68.3818V152.333H67.1794ZM68.3818 146.973C68.2932 148.131 68.597 149.473 69.5842 149.365C72.6345 148.827 69.0653 140.942 68.3818 146.973ZM64.4961 143.22C63.5278 143.233 63.5278 141.695 64.5088 141.72C65.515 141.701 65.4897 143.245 64.4961 143.22ZM63.8822 149.884C63.5721 148.992 64.7176 144.574 62.9583 144.796V144.555L65.0846 144.169V149.884H63.8822ZM57.1677 149.884C56.769 148.966 58.1613 141.733 56.2311 142.018V141.777L58.3701 141.48V145.72H58.3954C61.7179 141.037 62.2178 147.34 61.8634 149.884H60.661C61.4964 143.056 57.8259 143.549 58.3701 149.884H57.1677ZM55.421 144.372V145.271C52.0036 143.448 53.244 146.562 55.0983 147.017C57.2247 149.08 54.0921 150.707 52.0859 149.795V148.865C53.339 150.143 55.9463 149.169 54.0161 147.77C50.7696 146.669 52.1872 143.157 55.421 144.372ZM47.9724 149.884C47.6623 148.979 48.8204 144.555 47.0295 144.796V144.555L49.1748 144.169V145.751H49.2001C49.6178 144.366 50.276 143.999 51.3455 144.226V145.372C48.5483 144.378 49.2508 148.359 49.1748 149.884H47.9724ZM43.2007 145.979H45.422C45.5676 143.954 43.0931 144.321 43.2007 145.979ZM46.5105 149.163V149.688C37.5051 151.953 43.8968 138.562 46.6181 146.46H43.2007C43.0552 148.409 44.6626 150.004 46.5105 149.163ZM35.8154 149.884C35.4989 148.979 36.6697 144.549 34.8534 144.796V144.555L37.0178 144.169V145.707H37.0431C40.4731 141.081 40.8085 147.315 40.4984 149.884H39.296C40.0998 142.954 36.4925 143.644 37.0178 149.884H35.8154ZM34.518 149.441V149.916C30.8728 151.074 31.8537 146.853 31.7461 144.783H30.8095V144.302H31.7461V143.353L32.9486 142.283V144.302H34.518V144.783H32.9486C33.2397 146.017 31.955 150.251 34.518 149.441ZM27.0631 149.884C26.753 148.979 27.9111 144.555 26.1138 144.796V144.555L28.2655 144.169V145.751H28.2908C28.7085 144.366 29.3666 143.999 30.4361 144.226V145.372C27.6326 144.378 28.3351 148.359 28.2655 149.884H27.0631ZM24.0317 147.916V147.22C20.1966 147.144 23.5571 151.51 24.0317 147.916ZM24.0317 149.884V149.175C21.1143 152.124 18.9816 146.315 24.0317 146.783C24.5063 145.087 22.7534 143.258 22.4306 145.802H21.0067C21.0193 144.131 23.9431 143.638 24.8861 144.758C25.5062 145.479 25.1329 148.922 25.2278 149.884H24.0317ZM15.1465 149.884C14.7352 148.694 16.235 141.752 13.9884 142.068V141.803C15.2224 141.935 18.6019 141.397 19.5195 142.385C21.3927 144.65 19.2031 146.821 16.4628 146.296V149.884H15.1465ZM16.4628 143.087V145.726C20.8168 146.365 18.2411 140.094 16.4628 143.087ZM4.66652 149.884C4.3501 148.979 5.51454 144.549 3.70459 144.796V144.555L5.86261 144.169V145.707H5.88792C9.31796 141.081 9.6597 147.315 9.34328 149.884H8.14719C8.95091 142.954 5.34367 143.644 5.86261 149.884H4.66652ZM1.19851 149.884C0.780827 148.745 2.31232 141.771 -0.00390625 142.214V141.948L2.51483 141.67V149.884H1.19851Z" fill="#A27B1E"/>
</g>
</svg>
