<svg width="113" height="62" viewBox="0 0 113 62" fill="none" xmlns="http://www.w3.org/2000/svg">
<path fill-rule="evenodd" clip-rule="evenodd" d="M8.68796 16.5597H8.28064V15.6405H8.68796V16.5597Z" fill="white"/>
<path fill-rule="evenodd" clip-rule="evenodd" d="M5.52307 3.75962H18.3231L18.1826 3.53973H5.5447L5.52307 3.75962Z" fill="white"/>
<path fill-rule="evenodd" clip-rule="evenodd" d="M18.0455 11.5925H12.3646V11.059H18.0455V11.5925Z" fill="white"/>
<path fill-rule="evenodd" clip-rule="evenodd" d="M14.0336 16.6318H7.80481L7.93818 16.4444H14.0012L14.0336 16.6318Z" fill="white"/>
<path fill-rule="evenodd" clip-rule="evenodd" d="M21.1816 16.6318H14.6969L14.8411 16.4444H21.1816V16.6318Z" fill="white"/>
<path fill-rule="evenodd" clip-rule="evenodd" d="M14.0012 11.5997C14.0012 11.5997 13.9075 13.5787 12.9342 13.7805H15.1691C15.1691 13.7805 14.3328 13.4741 14.1454 11.5997H14.0012Z" fill="white"/>
<path fill-rule="evenodd" clip-rule="evenodd" d="M16.6613 11.5817C16.6613 11.5817 16.5135 13.0272 15.9043 13.3949H15.8106C15.2014 13.0272 15.0573 11.5817 15.0573 11.5817H16.6613Z" fill="white"/>
<path fill-rule="evenodd" clip-rule="evenodd" d="M13.1324 11.5817C13.1324 11.5817 12.9847 13.0272 12.3755 13.3949H12.2854C11.5572 13.2074 12.289 11.6214 12.2457 11.5817H13.1324Z" fill="white"/>
<path fill-rule="evenodd" clip-rule="evenodd" d="M8.87174 18.2863C8.15081 18.6143 8.70593 19.3425 9.3872 19.9048H17.9915V19.2812C17.2129 18.9352 8.24453 20.204 8.87174 18.2863Z" fill="white"/>
<path fill-rule="evenodd" clip-rule="evenodd" d="M7.47668 60.421L9.38714 19.9048L10.4289 19.8688L7.81192 60.3669L7.47668 60.421Z" fill="white"/>
<path fill-rule="evenodd" clip-rule="evenodd" d="M26.848 16.5597H27.2517V15.6405H26.848V16.5597Z" fill="white"/>
<path fill-rule="evenodd" clip-rule="evenodd" d="M30.0093 3.75962H17.9843L18.1248 3.53973H29.9913L30.0093 3.75962Z" fill="white"/>
<path fill-rule="evenodd" clip-rule="evenodd" d="M17.4868 11.5925H23.1713V11.059H17.4868V11.5925Z" fill="white"/>
<path fill-rule="evenodd" clip-rule="evenodd" d="M21.9205 16.6318H27.7312L27.605 16.4444H21.9205V16.6318Z" fill="white"/>
<path fill-rule="evenodd" clip-rule="evenodd" d="M21.5348 11.5997C21.5348 11.5997 21.625 13.5787 22.6018 13.7805H20.3129C20.3129 13.7805 21.2032 13.4741 21.387 11.5997H21.5348Z" fill="white"/>
<path fill-rule="evenodd" clip-rule="evenodd" d="M17.685 11.6141C17.685 11.6141 17.6093 13.348 16.5496 13.8923H18.9611C18.9611 13.8923 17.9482 13.4741 17.7643 11.5997L17.685 11.6141Z" fill="white"/>
<path fill-rule="evenodd" clip-rule="evenodd" d="M18.8025 11.5817C18.8025 11.5817 18.9467 13.0272 19.5559 13.3949H19.6496C20.2588 13.0272 20.4029 11.5817 20.4029 11.5817H18.8025Z" fill="white"/>
<path fill-rule="evenodd" clip-rule="evenodd" d="M22.4396 11.5817C22.4396 11.5817 22.5874 13.0272 23.1929 13.3949H23.2867C24.0112 13.2074 23.2831 11.6214 23.3263 11.5817H22.4396Z" fill="white"/>
<path fill-rule="evenodd" clip-rule="evenodd" d="M28.0592 60.421L26.1487 19.9048L25.2332 19.8688L27.5618 60.1794L28.0592 60.421Z" fill="white"/>
<path fill-rule="evenodd" clip-rule="evenodd" d="M8.77799 5.17627C8.77799 5.17627 13.7596 6.31534 12.1808 11.5925C12.6133 11.4267 11.9429 5.6665 8.06067 5.34208L8.77799 5.17627Z" fill="white"/>
<path fill-rule="evenodd" clip-rule="evenodd" d="M26.722 5.17627C26.722 5.17627 21.7404 6.31534 23.3192 11.5925C23.3192 11.5925 21.9206 7.2165 27.2194 5.23034L26.722 5.17627Z" fill="white"/>
<path fill-rule="evenodd" clip-rule="evenodd" d="M14.7473 15.3089C14.841 14.916 15.133 14.6384 15.4971 14.5159H10.5263C9.79091 15.1431 8.47522 15.6585 8.47522 15.6585V16.5597L14.0192 16.5525C14.0408 16.3074 13.4821 16.3254 13.4929 16.329C11.3301 16.4155 12.8909 14.7718 13.9507 16.0659V15.6297C13.72 15.4242 13.3919 15.3485 13.3919 15.3485C11.1102 15.071 13.3956 13.712 13.9507 15.2692C13.7596 14.3753 14.9744 14.433 14.7473 15.3089Z" fill="white"/>
<path fill-rule="evenodd" clip-rule="evenodd" d="M25.0422 14.5159H23.3048C24.1663 15.2837 22.3964 15.0854 21.9422 15.5973V16.1127C23.2291 14.7321 24.7971 16.4227 21.9422 16.4083C21.935 16.4588 21.9999 16.5381 21.9602 16.5777L27.0932 16.5597V15.6585C27.0932 15.6585 25.7776 15.1431 25.0422 14.5159Z" fill="white"/>
<path fill-rule="evenodd" clip-rule="evenodd" d="M21.9421 15.3089C22.0358 14.916 22.3242 14.6384 22.6882 14.5159C21.3365 14.5159 17.4002 14.5159 16.1134 14.5159C16.9713 15.2837 15.2014 15.0854 14.7472 15.5973V16.1127C16.0377 14.7321 17.5985 16.4227 14.7472 16.4083C14.7436 16.4588 14.7472 16.603 14.7112 16.6426L17.7859 16.5921L17.9986 16.6174L18.0022 16.5381L21.1707 16.5273C21.1274 16.484 21.1455 16.4516 21.1455 16.3975C18.4528 16.4624 19.7613 14.7574 21.1455 16.0659V15.6297C20.9148 15.4242 20.5867 15.3485 20.5867 15.3485C18.305 15.0674 20.5903 13.712 21.1455 15.2692C20.9508 14.3753 22.1656 14.433 21.9421 15.3089Z" fill="white"/>
<path fill-rule="evenodd" clip-rule="evenodd" d="M20.8175 9.90193C19.7902 9.84065 19.8623 9.27473 20.439 9.11252C21.816 8.56822 23.5895 6.98939 23.5895 6.98939C22.3423 8.79171 22.1621 9.71449 20.8175 9.90193ZM18.2042 7.55171C18.0744 6.86322 19.1558 6.4559 19.5054 6.8488C18.7809 7.0795 19.2495 7.41113 19.2495 7.41113C19.7722 7.83648 22.6667 6.01253 22.6667 6.01253C24.6709 4.79777 26.1163 5.17265 26.1163 5.17265C22.7857 5.60881 19.6749 11.0194 18.2042 7.55171ZM21.1708 5.40695C21.8917 6.74787 19.5992 6.02695 19.0044 6.26485C19.0044 6.26485 20.1759 4.5923 21.1708 5.40695ZM17.3246 7.55171C15.8467 11.0194 12.7503 5.60881 9.41245 5.17265C9.41245 5.17265 10.8579 4.79777 12.8621 6.01253C12.8621 6.01253 15.7566 7.83648 16.2793 7.41113C16.2793 7.41113 16.7479 7.0795 16.0234 6.8488C16.373 6.4559 17.4544 6.86322 17.3246 7.55171ZM14.7113 9.90193C13.3667 9.71449 13.1865 8.79171 11.9393 6.98939C11.9393 6.98939 13.7993 8.64392 15.1907 9.15217C15.6701 9.32519 15.6809 9.85147 14.7113 9.90193ZM14.1922 5.72776C14.7041 4.26068 16.6253 6.18555 16.5244 6.26485C15.872 5.95486 14.3796 6.77671 14.1922 5.72776ZM29.3894 3.40277L28.7081 3.76323C36.9843 3.428 36.7392 15.6513 29.2307 15.7487C24.9376 16.1992 21.1744 11.0338 24.7069 6.59288C23.2903 8.29066 23.1713 8.95031 23.0848 9.7217L23.0812 9.69286H23.056C23.1786 7.91578 24.3825 6.69741 25.5792 5.9152C24.6961 6.57485 24.3212 7.23811 24.3212 7.23811C30.7303 1.21115 36.2814 10.0569 31.0871 13.2254C23.6832 15.7054 24.8259 5.94765 29.5083 7.42555C32.9976 8.52496 30.6906 11.9386 29.7066 11.9782C26.2101 12.5622 27.432 8.82415 28.4053 8.88903C30.3518 8.33752 30.2689 11.7655 28.2971 10.6769C30.5645 12.6306 31.1809 8.13206 28.8775 8.29066C26.7003 8.00589 26.1416 11.3222 27.7853 12.2233C33.6825 13.9824 32.7597 5.42497 27.9223 6.71543C21.7728 8.88543 26.2209 16.0046 30.3914 14.3825C35.6146 12.8505 34.5584 6.01613 30.7735 4.94195C28.2719 4.18498 21.3582 4.72567 18.8818 4.57067C19.7289 5.10056 17.8978 6.39462 17.768 7.18043C17.613 6.40543 15.7927 5.10416 16.6361 4.57067C14.1057 4.73649 7.41187 4.18858 4.86339 4.94195C1.07852 6.01613 0.0187593 12.8505 5.24909 14.3825C9.42326 16.001 13.8606 8.88182 7.71466 6.71543C2.87363 5.42497 1.95445 13.9824 7.85164 12.2269C9.49535 11.3222 8.93664 8.00589 6.75583 8.29066C4.45607 8.13566 5.07246 12.6306 7.33618 10.6769C5.36804 11.7655 5.28514 8.33752 7.23164 8.88903C8.20129 8.82415 9.42687 12.5622 5.92676 11.9782C4.9499 11.9349 2.64294 8.52496 6.12862 7.42555C10.811 5.95125 11.9501 15.7054 4.54979 13.2254C-0.648099 10.0497 4.91025 1.21476 11.3157 7.23811C11.3157 7.23811 11.0886 6.83078 10.5695 6.34055C14.7401 10.3922 10.8183 16.3326 6.40618 15.7487C-1.10228 15.6477 -1.351 3.428 6.92525 3.76323C2.96014 2.42952 -0.27682 6.7659 0.0187598 10.0317C-0.0172861 17.5438 12.2169 18.982 12.5737 10.4246H17.2129C16.2288 10.0065 16.665 9.28194 17.0399 9.18101C17.5013 8.92868 17.7392 7.80043 17.7392 7.80043C17.7392 7.80043 17.9554 8.92868 18.4168 9.18101C18.7953 9.28194 19.2279 10.0065 18.2438 10.4246H23.0632C23.1209 14.5051 26.4552 16.4407 29.411 16.347C37.2691 16.1632 37.8855 3.5794 29.3894 3.40277Z" fill="white"/>
<path fill-rule="evenodd" clip-rule="evenodd" d="M12.1159 22.6624C12.3142 21.4548 13.0639 21.2782 13.8101 21.6927C13.6154 20.377 11.5392 20.4527 11.6185 21.8874L10.2884 59.5702C10.2884 60.0677 10.2379 60.8391 10.292 60.785C11.1571 61.059 11.8131 22.8426 12.1159 22.6624Z" fill="white"/>
<path fill-rule="evenodd" clip-rule="evenodd" d="M14.8086 60.7021C14.787 60.6048 15.6016 22.702 15.6016 22.702C15.598 21.8405 16.6145 21.2133 17.2922 21.7323C12.8765 13.9283 14.9816 55.98 14.3724 60.1686L14.8086 60.7021Z" fill="white"/>
<path fill-rule="evenodd" clip-rule="evenodd" d="M19.664 60.6083C20.5399 60.0893 17.3534 18.7693 20.9761 21.6927C16.236 13.1821 20.0029 61.4843 19.0801 60.374L19.664 60.6083Z" fill="white"/>
<path fill-rule="evenodd" clip-rule="evenodd" d="M24.7501 60.922C25.5864 60.3345 20.9509 18.1422 24.7249 21.6927C19.8406 13.3372 25.3305 61.989 24.3789 60.8571L24.7501 60.922Z" fill="white"/>
<path fill-rule="evenodd" clip-rule="evenodd" d="M30.705 1.99697C24.2094 1.99697 11.3661 1.99697 4.85251 1.99697V0.454185C11.3589 0.454185 24.2238 0.454185 30.705 0.454185V1.99697ZM31.2997 0.00720932V0C24.523 0 11.0345 0 4.23612 0V0.00720932H4.21089V1.99697H4.20007L4.21089 2.00418V2.01139H4.2181L5.26344 2.86569C5.10123 3.07476 4.96065 3.45685 5.78251 3.68754C5.78251 3.68754 5.73565 3.62266 5.6996 3.52894C5.95193 3.99033 29.3785 3.54336 29.7534 3.68394V3.68754C30.377 3.55417 30.4599 3.15045 30.1679 2.94859L31.3178 2.01139H31.3466V0.00720932H31.2997Z" fill="white"/>
<path fill-rule="evenodd" clip-rule="evenodd" d="M28.207 16.8409C27.843 16.3362 27.3455 16.466 27.3455 16.466C27.1941 16.3939 27.2157 16.5957 27.2157 16.5957C30.1211 18.4161 18.0636 17.4068 17.9626 17.6447C17.8221 17.3924 5.38606 18.4413 8.32023 16.5957C8.32023 16.5957 8.34186 16.3939 8.19046 16.466C7.11628 16.1812 6.43861 18.4377 8.87534 18.3584C6.9793 20.359 17.613 19.0505 17.8761 19.4001V19.9048H26.1488C26.6102 19.5371 27.414 18.6432 26.7688 18.3584C28.5495 18.4665 28.3873 16.8769 28.207 16.8409Z" fill="white"/>
<path fill-rule="evenodd" clip-rule="evenodd" d="M24.3753 16.6318H11.7086V14.5159H24.3753V16.6318Z" fill="white"/>
<path fill-rule="evenodd" clip-rule="evenodd" d="M38.3894 51.0595V39.5391C36.7817 39.4562 36.0752 39.5823 36.104 41.345H34.6045L34.7018 37.6611H45.1264L45.2238 41.345H43.6846C43.8972 39.7265 43.0898 39.4093 41.4389 39.5391V51.0595H38.3894Z" fill="white"/>
<path fill-rule="evenodd" clip-rule="evenodd" d="M51.3444 43.4573C55.4393 43.5006 53.7343 38.5622 50.8794 39.6436C50.7749 39.8418 50.8218 42.9851 50.8109 43.4573H51.3444ZM54.4048 51.0595L51.1426 45.3353H50.8109V51.0595H47.765C47.7146 50.2773 47.8912 39.813 47.6569 39.3768C47.7182 39.3336 46.5503 39.0632 46.0204 39.0056V37.661H51.0525C57.5156 37.4412 58.6655 42.9671 54.2065 44.8415L57.6742 51.0595H54.4048Z" fill="white"/>
<path fill-rule="evenodd" clip-rule="evenodd" d="M63.7876 51.265C57.0398 51.7805 59.3251 43.6087 58.7556 39.5679C58.8385 39.5355 57.5768 39.2796 57.0145 39.2327V37.4773L61.906 37.452C62.3963 39.6761 60.3813 49.9277 64.0183 49.387C66.3253 49.1671 66.21 48.5075 66.3325 45.9229V37.452H68.6719C68.0844 41.756 71.0366 51.7769 63.7876 51.265Z" fill="white"/>
<path fill-rule="evenodd" clip-rule="evenodd" d="M73.8157 51.265C72.9325 51.2794 71.4366 51.0199 70.0813 50.6702V47.891C76.1154 51.8706 78.39 46.8205 71.7178 44.3621C66.5343 39.8022 73.1596 35.9669 78.0151 37.8737V40.4727C71.8511 37.2574 71.4078 41.8172 77.1283 43.8719C80.9529 46.5645 78.2313 51.7985 73.8157 51.265Z" fill="white"/>
<path fill-rule="evenodd" clip-rule="evenodd" d="M83.7862 51.0595V39.5391C82.1785 39.4562 81.472 39.5787 81.4972 41.345H79.9977L80.0986 37.6611H90.5232L90.6205 41.345H89.0814C89.294 39.7229 88.483 39.4093 86.8321 39.5391V51.0595H83.7862Z" fill="white"/>
<mask id="mask0_219_471" style="mask-type:alpha" maskUnits="userSpaceOnUse" x="34" y="54" width="79" height="8">
<path d="M34.6045 54.6752H112.385V61.1635H34.6045V54.6752Z" fill="black"/>
</mask>
<g mask="url(#mask0_219_471)">
<path fill-rule="evenodd" clip-rule="evenodd" d="M111.906 59.8442C111.268 59.8586 111.268 58.8638 111.906 58.8782C112.548 58.8638 112.544 59.8586 111.906 59.8442ZM110.886 59.5162V59.7866C108.81 60.4462 109.368 58.0419 109.307 56.8632H108.774V56.5892H109.307V56.0485L109.992 55.4394V56.5892H110.886V56.8632H109.992C110.158 57.5661 109.426 59.9776 110.886 59.5162ZM108.114 56.6289V57.1407C106.167 56.1026 106.874 57.8761 107.93 58.1356C109.141 59.3107 107.357 60.2371 106.211 59.7181V59.1882C106.928 59.9163 108.413 59.3612 107.314 58.5646C105.464 57.9374 106.272 55.9368 108.114 56.6289ZM104.639 59.7685V58.9935H104.625C104.127 60.4102 102.397 59.9163 102.649 58.4492C102.57 57.9734 102.938 56.7875 102.123 56.8704V56.7334L103.334 56.5135V58.5718C103.334 60.0172 104.776 59.2314 104.625 58.2293C104.571 57.768 104.855 56.8055 104.113 56.8704V56.7334L105.324 56.5135V59.7685H104.639ZM100.072 59.7685C99.8917 59.2531 100.551 56.7334 99.5312 56.8704V56.7334L100.753 56.5135V57.4147H100.768C101.009 56.6253 101.38 56.4162 101.993 56.546V57.1984C100.396 56.6325 100.796 58.8998 100.753 59.7685H100.072ZM97.3576 59.7685V55.4862C96.7845 55.479 96.1393 55.4069 96.1465 56.1567H95.9554L95.9807 55.1654H99.4844L99.5096 56.1567H99.3186C99.3762 55.4069 98.6589 55.479 98.1074 55.4862V59.7685H97.3576ZM90.6206 59.7685C90.3935 59.2459 91.1829 55.1258 90.0871 55.288V55.151L91.3055 54.9816V57.3967H91.3199C93.2123 54.7292 93.4971 58.3195 93.2952 59.7685H92.6103C93.0861 55.8791 90.9918 56.1603 91.3055 59.7685H90.6206ZM89.9934 59.5162V59.7866C87.9135 60.4462 88.4722 58.0419 88.4109 56.8632H87.8774V56.5892H88.4109V56.0485L89.0958 55.4394V56.5892H89.9934V56.8632H89.0958C89.2616 57.5661 88.5335 59.9776 89.9934 59.5162ZM86.8069 55.9728C86.2554 55.9801 86.2554 55.1041 86.8141 55.1185C87.3872 55.1077 87.3764 55.9873 86.8069 55.9728ZM86.4572 59.7685C86.2842 59.2603 86.933 56.7442 85.9309 56.8704V56.7334L87.1421 56.5135V59.7685H86.4572ZM81.1187 59.7685C80.7258 59.0909 80.661 55.2123 79.4786 55.3168V55.1654H80.715L81.6162 58.8926H81.6306L82.712 55.1654H83.1842L84.4134 58.8926H84.4242L85.1776 55.1654H85.6245L84.6585 59.7685H84.0097L82.8237 56.1206H82.8057L81.7532 59.7685H81.1187ZM76.8184 59.8442C76.1804 59.8586 76.1804 58.8638 76.8184 58.8782C77.4564 58.8602 77.4564 59.8586 76.8184 59.8442ZM72.8713 61.1635C72.6478 60.6481 73.4301 56.6902 72.3378 56.8704V56.7334L73.5562 56.5135V57.0687H73.5706C76.357 54.3976 76.184 61.9854 73.5706 59.3432H73.5562V61.1635H72.8713ZM73.5562 58.1104C73.5057 58.77 73.6788 59.5342 74.2411 59.4729C75.9785 59.1666 73.9455 54.6752 73.5562 58.1104ZM71.343 55.9728C70.7915 55.9801 70.7915 55.1041 71.3502 55.1185C71.9233 55.1077 71.9089 55.9873 71.343 55.9728ZM70.9933 59.7685C70.8167 59.2603 71.4691 56.7442 70.467 56.8704V56.7334L71.6782 56.5135V59.7685H70.9933ZM67.1688 59.7685C66.9417 59.2459 67.7347 55.1258 66.6353 55.288V55.151L67.8537 54.9816V57.3967H67.8681C69.7605 54.7292 70.0453 58.3195 69.8434 59.7685H69.1586C69.6344 55.8791 67.5437 56.1603 67.8537 59.7685H67.1688ZM66.1739 56.6289V57.1407C64.2274 56.1026 64.9339 57.8761 65.9901 58.1356C67.2012 59.3107 65.4169 60.2371 64.2743 59.7181V59.1882C64.988 59.9163 66.4731 59.3612 65.3737 58.5646C63.5245 57.9374 64.3319 55.9368 66.1739 56.6289ZM61.9313 59.7685C61.7546 59.2531 62.4143 56.7334 61.3942 56.8704V56.7334L62.6161 56.5135V57.4147H62.6306C62.8685 56.6253 63.2433 56.4162 63.8525 56.546V57.1984C62.2593 56.6325 62.6594 58.8998 62.6161 59.7685H61.9313ZM59.2134 57.5445H60.4786C60.5615 56.391 59.1521 56.6001 59.2134 57.5445ZM61.0986 59.3576V59.6568C55.9692 60.9472 59.6099 53.3198 61.1599 57.8184H59.2134C59.1304 58.9286 60.046 59.837 61.0986 59.3576ZM55.0067 59.7685C54.8265 59.2531 55.4934 56.7298 54.4588 56.8704V56.7334L55.6916 56.5135V57.3895H55.706C57.6598 54.7545 57.8508 58.305 57.6742 59.7685H56.9893C57.4471 55.8214 55.3924 56.2144 55.6916 59.7685H55.0067ZM54.2678 59.5162V59.7866C52.1915 60.4462 52.7502 58.0419 52.689 56.8632H52.1555V56.5892H52.689V56.0485L53.3738 55.4394V56.5892H54.2678V56.8632H53.3738C53.5397 57.5661 52.8079 59.9776 54.2678 59.5162ZM50.0215 59.7685C49.8449 59.2531 50.5046 56.7334 49.4808 56.8704V56.7334L50.7064 56.5135V57.4147H50.7208C50.9587 56.6253 51.3336 56.4162 51.9428 56.546V57.1984C50.3459 56.6325 50.7461 58.8998 50.7064 59.7685H50.0215ZM48.2949 58.6475V58.251C46.1105 58.2077 48.0246 60.6949 48.2949 58.6475ZM48.2949 59.7685V59.3648C46.6332 61.0446 45.4184 57.7355 48.2949 58.0023C48.5653 57.0362 47.5668 55.9945 47.3829 57.4435H46.5719C46.5791 56.4919 48.2444 56.2107 48.7815 56.8488C49.1348 57.2597 48.9221 59.2206 48.9762 59.7685H48.2949ZM43.234 59.7685C42.9997 59.0909 43.854 55.1366 42.5743 55.3168V55.1654C43.2773 55.2411 45.2021 54.9347 45.7248 55.497C46.7918 56.7875 45.5446 58.0239 43.9838 57.7247V59.7685H43.234ZM43.9838 55.8971V57.4003C46.4638 57.7643 44.9967 54.1922 43.9838 55.8971ZM37.2647 59.7685C37.0845 59.2531 37.7477 56.7298 36.7168 56.8704V56.7334L37.946 56.5135V57.3895H37.9604C39.9141 54.7545 40.1088 58.305 39.9285 59.7685H39.2473C39.7051 55.8214 37.6504 56.2144 37.946 59.7685H37.2647ZM35.2894 59.7685C35.0515 59.1197 35.9238 55.1474 34.6045 55.3997V55.2483L36.0391 55.0897V59.7685H35.2894Z" fill="white"/>
</g>
</svg>
