<svg width="67" height="36" viewBox="0 0 67 36" fill="none" xmlns="http://www.w3.org/2000/svg">
<path d="M67 36V0H-4.76837e-07L17.4783 18L-4.76837e-07 36H67Z" fill="#AF862E"/>
<path d="M32.469 12.832V24H30.229V12.832H32.469ZM42.8261 16.288C42.8261 16.8853 42.6821 17.4453 42.3941 17.968C42.1168 18.4907 41.6741 18.912 41.0661 19.232C40.4688 19.552 39.7115 19.712 38.7941 19.712H36.9221V24H34.6821V12.832H38.7941C39.6581 12.832 40.3941 12.9813 41.0021 13.28C41.6101 13.5787 42.0635 13.9893 42.3621 14.512C42.6715 15.0347 42.8261 15.6267 42.8261 16.288ZM38.6981 17.904C39.3168 17.904 39.7755 17.7653 40.0741 17.488C40.3728 17.2 40.5221 16.8 40.5221 16.288C40.5221 15.2 39.9141 14.656 38.6981 14.656H36.9221V17.904H38.6981ZM49.6005 24.112C48.5552 24.112 47.5952 23.8667 46.7205 23.376C45.8458 22.8853 45.1525 22.208 44.6405 21.344C44.1285 20.4693 43.8725 19.4827 43.8725 18.384C43.8725 17.296 44.1285 16.32 44.6405 15.456C45.1525 14.5813 45.8458 13.8987 46.7205 13.408C47.5952 12.9173 48.5552 12.672 49.6005 12.672C50.6565 12.672 51.6165 12.9173 52.4805 13.408C53.3552 13.8987 54.0432 14.5813 54.5445 15.456C55.0565 16.32 55.3125 17.296 55.3125 18.384C55.3125 19.4827 55.0565 20.4693 54.5445 21.344C54.0432 22.208 53.3552 22.8853 52.4805 23.376C51.6058 23.8667 50.6458 24.112 49.6005 24.112ZM49.6005 22.112C50.2725 22.112 50.8645 21.9627 51.3765 21.664C51.8885 21.3547 52.2885 20.9173 52.5765 20.352C52.8645 19.7867 53.0085 19.1307 53.0085 18.384C53.0085 17.6373 52.8645 16.9867 52.5765 16.432C52.2885 15.8667 51.8885 15.4347 51.3765 15.136C50.8645 14.8373 50.2725 14.688 49.6005 14.688C48.9285 14.688 48.3312 14.8373 47.8085 15.136C47.2965 15.4347 46.8965 15.8667 46.6085 16.432C46.3205 16.9867 46.1765 17.6373 46.1765 18.384C46.1765 19.1307 46.3205 19.7867 46.6085 20.352C46.8965 20.9173 47.2965 21.3547 47.8085 21.664C48.3312 21.9627 48.9285 22.112 49.6005 22.112Z" fill="white"/>
</svg>
