<svg width="32" height="28" viewBox="0 0 32 28" fill="none" xmlns="http://www.w3.org/2000/svg">
<path d="M16 18C18.7614 18 21 15.7614 21 13C21 10.2386 18.7614 8 16 8C13.2386 8 11 10.2386 11 13C11 15.7614 13.2386 18 16 18Z" stroke="#232020" stroke-width="2" stroke-linecap="round" stroke-linejoin="round"/>
<path d="M7.97461 22.925C8.727 21.443 9.87506 20.1983 11.2915 19.3289C12.708 18.4594 14.3376 17.9992 15.9996 17.9992C17.6616 17.9992 19.2912 18.4594 20.7077 19.3289C22.1242 20.1983 23.2722 21.443 24.0246 22.925" stroke="#232020" stroke-width="2" stroke-linecap="round" stroke-linejoin="round"/>
<path d="M25 14L28 17L31 14" stroke="#232020" stroke-width="2" stroke-linecap="round" stroke-linejoin="round"/>
<path d="M1 14L4 11L7 14" stroke="#232020" stroke-width="2" stroke-linecap="round" stroke-linejoin="round"/>
<path d="M27.9996 17V14C28.0024 11.4073 27.1655 8.88346 25.6141 6.8062C24.0627 4.72895 21.8802 3.21002 19.3934 2.47678C16.9065 1.74354 14.2491 1.83543 11.8189 2.73869C9.38867 3.64196 7.31634 5.30802 5.91211 7.48748" stroke="#232020" stroke-width="2" stroke-linecap="round" stroke-linejoin="round"/>
<path d="M4.00001 11V14C3.99718 16.5927 4.83411 19.1165 6.38554 21.1938C7.93696 23.271 10.1194 24.79 12.6062 25.5232C15.0931 26.2564 17.7505 26.1646 20.1807 25.2613C22.6109 24.358 24.6833 22.692 26.0875 20.5125" stroke="#232020" stroke-width="2" stroke-linecap="round" stroke-linejoin="round"/>
</svg>
