<svg width="23" height="23" viewBox="0 0 23 23" fill="none" xmlns="http://www.w3.org/2000/svg">
<path d="M11.5 22C17.299 22 22 17.299 22 11.5C22 5.70101 17.299 1 11.5 1C5.70101 1 1 5.70101 1 11.5C1 17.299 5.70101 22 11.5 22Z" stroke="#C0C0C0" stroke-width="2" stroke-miterlimit="10"/>
<path d="M17.625 8L14.125 11.5" stroke="#C0C0C0" stroke-width="2" stroke-linecap="round" stroke-linejoin="round"/>
<path d="M17.625 11.5L14.125 8" stroke="#C0C0C0" stroke-width="2" stroke-linecap="round" stroke-linejoin="round"/>
<path d="M8.875 8L5.375 11.5" stroke="#C0C0C0" stroke-width="2" stroke-linecap="round" stroke-linejoin="round"/>
<path d="M8.875 11.5L5.375 8" stroke="#C0C0C0" stroke-width="2" stroke-linecap="round" stroke-linejoin="round"/>
<path d="M12.75 17.1875C12.75 17.8779 12.1904 18.4375 11.5 18.4375C10.8096 18.4375 10.25 17.8779 10.25 17.1875C10.25 16.4971 10.8096 15.9375 11.5 15.9375C12.1904 15.9375 12.75 16.4971 12.75 17.1875Z" fill="#C0C0C0" stroke="#C0C0C0" stroke-width="0.125"/>
</svg>
