<svg width="28" height="28" viewBox="0 0 28 28" fill="none" xmlns="http://www.w3.org/2000/svg">
<path d="M14 20C17.3137 20 20 17.3137 20 14C20 10.6863 17.3137 8 14 8C10.6863 8 8 10.6863 8 14C8 17.3137 10.6863 20 14 20Z" stroke="#232020" stroke-width="2" stroke-linecap="round" stroke-linejoin="round"/>
<path d="M20.9617 6.13751C21.2784 6.42918 21.5784 6.72918 21.8617 7.03751L25.2742 7.52501C25.8302 8.49064 26.2588 9.52425 26.5492 10.6L24.4742 13.3625C24.4742 13.3625 24.5117 14.2125 24.4742 14.6375L26.5492 17.4C26.2602 18.4762 25.8315 19.51 25.2742 20.475L21.8617 20.9625C21.8617 20.9625 21.2742 21.575 20.9617 21.8625L20.4742 25.275C19.5086 25.831 18.475 26.2596 17.3992 26.55L14.6367 24.475C14.2125 24.5125 13.7859 24.5125 13.3617 24.475L10.5992 26.55C9.523 26.2609 8.48922 25.8323 7.52422 25.275L7.03672 21.8625C6.72839 21.5708 6.42839 21.2708 6.13672 20.9625L2.72422 20.475C2.1682 19.5094 1.73963 18.4758 1.44922 17.4L3.52422 14.6375C3.52422 14.6375 3.48672 13.7875 3.52422 13.3625L1.44922 10.6C1.73828 9.52379 2.16692 8.49002 2.72422 7.52501L6.13672 7.03751C6.42839 6.72918 6.72839 6.42918 7.03672 6.13751L7.52422 2.72501C8.48985 2.16899 9.52346 1.74042 10.5992 1.45001L13.3617 3.52501C13.7859 3.4875 14.2125 3.4875 14.6367 3.52501L17.3992 1.45001C18.4754 1.73908 19.5092 2.16771 20.4742 2.72501L20.9617 6.13751Z" stroke="#232020" stroke-width="2" stroke-linecap="round" stroke-linejoin="round"/>
</svg>
