<svg width="23" height="23" viewBox="0 0 23 23" fill="none" xmlns="http://www.w3.org/2000/svg">
<path d="M2.46745 16.8537C1.16331 14.6535 0.707139 12.0528 1.18457 9.54004C1.66201 7.02726 3.04021 4.77516 5.06045 3.20652C7.08069 1.63788 9.60403 0.860592 12.1568 1.02057C14.7095 1.18055 17.116 2.2668 18.9246 4.07539C20.7332 5.88397 21.8194 8.29053 21.9794 10.8432C22.1394 13.396 21.3621 15.9193 19.7935 17.9395C18.2248 19.9598 15.9727 21.338 13.46 21.8154C10.9472 22.2929 8.34655 21.8367 6.14627 20.5326V20.5326L2.51124 21.5617C2.36231 21.6053 2.20441 21.608 2.05408 21.5695C1.90375 21.5311 1.76653 21.4529 1.65681 21.3432C1.54709 21.2335 1.46891 21.0962 1.43045 20.9459C1.392 20.7956 1.39469 20.6377 1.43825 20.4888L2.46745 16.8537Z" stroke="#828282" stroke-width="2" stroke-linecap="round" stroke-linejoin="round"/>
<path d="M8.00781 9.73695H15.0151" stroke="#828282" stroke-width="2" stroke-linecap="round" stroke-linejoin="round"/>
<path d="M8.00781 13.2406H15.0151" stroke="#828282" stroke-width="2" stroke-linecap="round" stroke-linejoin="round"/>
</svg>
