<svg width="22" height="18" viewBox="0 0 22 18" fill="none" xmlns="http://www.w3.org/2000/svg">
<path d="M19.6667 10.7778H1.88889C1.39797 10.7778 1 11.1757 1 11.6667V16.1111C1 16.602 1.39797 17 1.88889 17H19.6667C20.1576 17 20.5556 16.602 20.5556 16.1111V11.6667C20.5556 11.1757 20.1576 10.7778 19.6667 10.7778Z" stroke="#AF862E" stroke-width="2" stroke-linecap="round" stroke-linejoin="round"/>
<path d="M19.6667 1H1.88889C1.39797 1 1 1.39797 1 1.88889V6.33333C1 6.82425 1.39797 7.22222 1.88889 7.22222H19.6667C20.1576 7.22222 20.5556 6.82425 20.5556 6.33333V1.88889C20.5556 1.39797 20.1576 1 19.6667 1Z" stroke="#AF862E" stroke-width="2" stroke-linecap="round" stroke-linejoin="round"/>
</svg>
