<svg width="19" height="19" viewBox="0 0 19 19" fill="none" xmlns="http://www.w3.org/2000/svg">
<path d="M1.75 3.5C2.7165 3.5 3.5 2.7165 3.5 1.75C3.5 0.783502 2.7165 0 1.75 0C0.783502 0 0 0.783502 0 1.75C0 2.7165 0.783502 3.5 1.75 3.5Z" fill="#828282"/>
<path d="M9.44922 3.5C10.4157 3.5 11.1992 2.7165 11.1992 1.75C11.1992 0.783502 10.4157 0 9.44922 0C8.48272 0 7.69922 0.783502 7.69922 1.75C7.69922 2.7165 8.48272 3.5 9.44922 3.5Z" fill="#828282"/>
<path d="M17.1484 3.5C18.1149 3.5 18.8984 2.7165 18.8984 1.75C18.8984 0.783502 18.1149 0 17.1484 0C16.1819 0 15.3984 0.783502 15.3984 1.75C15.3984 2.7165 16.1819 3.5 17.1484 3.5Z" fill="#828282"/>
<path d="M1.75 11.2C2.7165 11.2 3.5 10.4165 3.5 9.45001C3.5 8.48351 2.7165 7.70001 1.75 7.70001C0.783502 7.70001 0 8.48351 0 9.45001C0 10.4165 0.783502 11.2 1.75 11.2Z" fill="#828282"/>
<path d="M9.44922 11.2C10.4157 11.2 11.1992 10.4165 11.1992 9.45001C11.1992 8.48351 10.4157 7.70001 9.44922 7.70001C8.48272 7.70001 7.69922 8.48351 7.69922 9.45001C7.69922 10.4165 8.48272 11.2 9.44922 11.2Z" fill="#828282"/>
<path d="M17.1484 11.2C18.1149 11.2 18.8984 10.4165 18.8984 9.45001C18.8984 8.48351 18.1149 7.70001 17.1484 7.70001C16.1819 7.70001 15.3984 8.48351 15.3984 9.45001C15.3984 10.4165 16.1819 11.2 17.1484 11.2Z" fill="#828282"/>
<path d="M1.75 18.9C2.7165 18.9 3.5 18.1165 3.5 17.15C3.5 16.1835 2.7165 15.4 1.75 15.4C0.783502 15.4 0 16.1835 0 17.15C0 18.1165 0.783502 18.9 1.75 18.9Z" fill="#828282"/>
<path d="M9.44922 18.9C10.4157 18.9 11.1992 18.1165 11.1992 17.15C11.1992 16.1835 10.4157 15.4 9.44922 15.4C8.48272 15.4 7.69922 16.1835 7.69922 17.15C7.69922 18.1165 8.48272 18.9 9.44922 18.9Z" fill="#828282"/>
<path d="M17.1484 18.9C18.1149 18.9 18.8984 18.1165 18.8984 17.15C18.8984 16.1835 18.1149 15.4 17.1484 15.4C16.1819 15.4 15.3984 16.1835 15.3984 17.15C15.3984 18.1165 16.1819 18.9 17.1484 18.9Z" fill="#828282"/>
</svg>
