<svg width="24" height="24" viewBox="0 0 24 24" fill="none" xmlns="http://www.w3.org/2000/svg">
<path d="M12 23C18.0751 23 23 18.0751 23 12C23 5.92487 18.0751 1 12 1C5.92487 1 1 5.92487 1 12C1 18.0751 5.92487 23 12 23Z" stroke="#828282" stroke-width="2" stroke-linecap="round" stroke-linejoin="round"/>
<path d="M13.3125 17.9583C13.3125 18.6832 12.7249 19.2708 12 19.2708C11.2751 19.2708 10.6875 18.6832 10.6875 17.9583C10.6875 17.2335 11.2751 16.6458 12 16.6458C12.7249 16.6458 13.3125 17.2335 13.3125 17.9583Z" fill="#828282" stroke="#828282" stroke-width="0.125"/>
<path d="M11.9993 13.8333V12.9167C12.6339 12.9167 13.2542 12.7285 13.7818 12.376C14.3094 12.0234 14.7206 11.5224 14.9635 10.9361C15.2063 10.3499 15.2698 9.70478 15.146 9.08242C15.0222 8.46006 14.7167 7.88839 14.268 7.4397C13.8193 6.99101 13.2476 6.68544 12.6253 6.56165C12.0029 6.43785 11.3578 6.50139 10.7716 6.74422C10.1853 6.98705 9.68425 7.39827 9.33172 7.92588C8.97918 8.45349 8.79102 9.07379 8.79102 9.70833" stroke="#828282" stroke-width="2" stroke-linecap="round" stroke-linejoin="round"/>
</svg>
