<svg width="21" height="21" viewBox="0 0 21 21" fill="none" xmlns="http://www.w3.org/2000/svg">
<path d="M10.9199 5.12482V10.0746" stroke="#828282" stroke-width="2" stroke-linecap="round" stroke-linejoin="round"/>
<path d="M15.2097 12.5495L10.9199 10.0746" stroke="#828282" stroke-width="2" stroke-linecap="round" stroke-linejoin="round"/>
<path d="M5.12481 7.15628H1V3.03146" stroke="#828282" stroke-width="2" stroke-linecap="round" stroke-linejoin="round"/>
<path d="M4.50609 16.4887C5.7749 17.7585 7.39182 18.6235 9.15232 18.9743C10.9128 19.325 12.7378 19.1457 14.3964 18.4591C16.055 17.7725 17.4727 16.6094 18.4701 15.1169C19.4676 13.6245 20 11.8697 20 10.0746C20 8.27949 19.4676 6.52472 18.4701 5.03225C17.4727 3.53978 16.055 2.37667 14.3964 1.69006C12.7378 1.00344 10.9128 0.824167 9.15232 1.17491C7.39182 1.52566 5.7749 2.39066 4.50609 3.66051L1 7.15629" stroke="#828282" stroke-width="2" stroke-linecap="round" stroke-linejoin="round"/>
</svg>
