<svg width="26" height="43" viewBox="0 0 26 43" fill="none" xmlns="http://www.w3.org/2000/svg">
<path fill-rule="evenodd" clip-rule="evenodd" d="M6.13125 11.6881H5.84375V11.0394H6.13125V11.6881Z" fill="#AF862E"/>
<path fill-rule="evenodd" clip-rule="evenodd" d="M3.89844 2.65361H12.933L12.8338 2.49841H3.9137L3.89844 2.65361Z" fill="#AF862E"/>
<path fill-rule="evenodd" clip-rule="evenodd" d="M12.7363 8.18233H8.72656V7.80579H12.7363V8.18233Z" fill="#AF862E"/>
<path fill-rule="evenodd" clip-rule="evenodd" d="M9.90424 11.7389H5.50781L5.60195 11.6066H9.88134L9.90424 11.7389Z" fill="#AF862E"/>
<path fill-rule="evenodd" clip-rule="evenodd" d="M14.9501 11.7389H10.373L10.4748 11.6066H14.9501V11.7389Z" fill="#AF862E"/>
<path fill-rule="evenodd" clip-rule="evenodd" d="M9.882 8.18756C9.882 8.18756 9.81585 9.58434 9.12891 9.72682H10.7063C10.7063 9.72682 10.1161 9.51056 9.98377 8.18756H9.882Z" fill="#AF862E"/>
<path fill-rule="evenodd" clip-rule="evenodd" d="M11.7611 8.17462C11.7611 8.17462 11.6568 9.19486 11.2268 9.45437H11.1606C10.7307 9.19486 10.6289 8.17462 10.6289 8.17462H11.7611Z" fill="#AF862E"/>
<path fill-rule="evenodd" clip-rule="evenodd" d="M9.27015 8.17462C9.27015 8.17462 9.16583 9.19486 8.73586 9.45437H8.67225C8.15832 9.32207 8.6748 8.20261 8.64427 8.17462H9.27015Z" fill="#AF862E"/>
<path fill-rule="evenodd" clip-rule="evenodd" d="M6.26017 12.907C5.75133 13.1385 6.14314 13.6524 6.624 14.0493H12.6971V13.6092C12.1475 13.3649 5.81748 14.2605 6.26017 12.907Z" fill="#AF862E"/>
<path fill-rule="evenodd" clip-rule="evenodd" d="M5.27734 42.6462L6.62578 14.0491L7.36107 14.0237L5.51396 42.608L5.27734 42.6462Z" fill="#AF862E"/>
<path fill-rule="evenodd" clip-rule="evenodd" d="M18.9492 11.6881H19.2342V11.0394H18.9492V11.6881Z" fill="#AF862E"/>
<path fill-rule="evenodd" clip-rule="evenodd" d="M21.1829 2.65361H12.6953L12.7945 2.49841H21.1701L21.1829 2.65361Z" fill="#AF862E"/>
<path fill-rule="evenodd" clip-rule="evenodd" d="M12.3418 8.18233H16.354V7.80579H12.3418V8.18233Z" fill="#AF862E"/>
<path fill-rule="evenodd" clip-rule="evenodd" d="M15.4727 11.7389H19.574L19.4849 11.6066H15.4727V11.7389Z" fill="#AF862E"/>
<path fill-rule="evenodd" clip-rule="evenodd" d="M15.1984 8.18756C15.1984 8.18756 15.262 9.58434 15.9515 9.72682H14.3359C14.3359 9.72682 14.9644 9.51056 15.0941 8.18756H15.1984Z" fill="#AF862E"/>
<path fill-rule="evenodd" clip-rule="evenodd" d="M12.4831 8.19774C12.4831 8.19774 12.4296 9.42151 11.6816 9.80569H13.3837C13.3837 9.80569 12.6688 9.51056 12.539 8.18756L12.4831 8.19774Z" fill="#AF862E"/>
<path fill-rule="evenodd" clip-rule="evenodd" d="M13.2715 8.17462C13.2715 8.17462 13.3733 9.19486 13.8032 9.45437H13.8694C14.2994 9.19486 14.4011 8.17462 14.4011 8.17462H13.2715Z" fill="#AF862E"/>
<path fill-rule="evenodd" clip-rule="evenodd" d="M15.8398 8.17462C15.8398 8.17462 15.9442 9.19486 16.3716 9.45437H16.4377C16.9491 9.32207 16.4352 8.20261 16.4657 8.17462H15.8398Z" fill="#AF862E"/>
<path fill-rule="evenodd" clip-rule="evenodd" d="M19.8072 42.6462L18.4587 14.0491L17.8125 14.0237L19.4561 42.4758L19.8072 42.6462Z" fill="#AF862E"/>
<path fill-rule="evenodd" clip-rule="evenodd" d="M6.19575 3.65363C6.19575 3.65363 9.71188 4.4576 8.59751 8.18235C8.90281 8.06532 8.42959 3.99964 5.68945 3.77066L6.19575 3.65363Z" fill="#AF862E"/>
<path fill-rule="evenodd" clip-rule="evenodd" d="M18.8622 3.65363C18.8622 3.65363 15.346 4.4576 16.4604 8.18235C16.4604 8.18235 15.4733 5.09366 19.2133 3.69179L18.8622 3.65363Z" fill="#AF862E"/>
<path fill-rule="evenodd" clip-rule="evenodd" d="M10.4094 10.8054C10.4755 10.5281 10.6816 10.3322 10.9386 10.2457H7.43009C6.91107 10.6884 5.98242 11.0522 5.98242 11.0522V11.6883L9.89544 11.6832C9.91071 11.5102 9.51635 11.5229 9.52399 11.5254C7.99745 11.5865 9.0991 10.4263 9.8471 11.3397V11.0319C9.68427 10.8868 9.45275 10.8334 9.45275 10.8334C7.84225 10.6375 9.45529 9.67833 9.8471 10.7774C9.71226 10.1465 10.5697 10.1872 10.4094 10.8054Z" fill="#AF862E"/>
<path fill-rule="evenodd" clip-rule="evenodd" d="M17.6748 10.2457H16.4484C17.0565 10.7876 15.8073 10.6477 15.4867 11.009V11.3728C16.395 10.3984 17.5018 11.5916 15.4867 11.5814C15.4816 11.617 15.5274 11.673 15.4994 11.701L19.1224 11.6883V11.0522C19.1224 11.0522 18.1938 10.6884 17.6748 10.2457Z" fill="#AF862E"/>
<path fill-rule="evenodd" clip-rule="evenodd" d="M15.4865 10.8054C15.5527 10.5281 15.7562 10.3322 16.0132 10.2457C15.0591 10.2457 12.2808 10.2457 11.3725 10.2457C11.978 10.7876 10.7288 10.6477 10.4083 11.009V11.3728C11.3191 10.3984 12.4207 11.5916 10.4083 11.5814C10.4057 11.617 10.4083 11.7188 10.3828 11.7468L12.553 11.7112L12.7031 11.729L12.7057 11.673L14.9421 11.6654C14.9115 11.6348 14.9243 11.6119 14.9243 11.5738C13.0237 11.6196 13.9473 10.4162 14.9243 11.3397V11.0319C14.7614 10.8868 14.5299 10.8334 14.5299 10.8334C12.9194 10.635 14.5324 9.67833 14.9243 10.7774C14.7869 10.1465 15.6443 10.1872 15.4865 10.8054Z" fill="#AF862E"/>
<path fill-rule="evenodd" clip-rule="evenodd" d="M14.6934 6.98898C13.9683 6.94573 14.0192 6.54628 14.4263 6.43179C15.3982 6.04761 16.6499 4.93324 16.6499 4.93324C15.7696 6.20535 15.6424 6.85668 14.6934 6.98898ZM12.8489 5.33014C12.7573 4.84419 13.5205 4.55669 13.7673 4.83402C13.2559 4.99685 13.5867 5.23092 13.5867 5.23092C13.9556 5.53113 15.9986 4.24375 15.9986 4.24375C17.4132 3.38635 18.4334 3.65095 18.4334 3.65095C16.0826 3.9588 13.8869 7.77769 12.8489 5.33014ZM14.9428 3.81632C15.4516 4.76278 13.8335 4.25393 13.4137 4.42185C13.4137 4.42185 14.2406 3.24133 14.9428 3.81632ZM12.2281 5.33014C11.1849 7.77769 8.99945 3.9588 6.6435 3.65095C6.6435 3.65095 7.66373 3.38635 9.07832 4.24375C9.07832 4.24375 11.1213 5.53113 11.4903 5.23092C11.4903 5.23092 11.821 4.99685 11.3096 4.83402C11.5564 4.55669 12.3197 4.84419 12.2281 5.33014ZM10.3835 6.98898C9.43452 6.85668 9.3073 6.20535 8.427 4.93324C8.427 4.93324 9.73982 6.10104 10.7219 6.45978C11.0603 6.5819 11.0679 6.95336 10.3835 6.98898ZM10.0171 4.04276C10.3784 3.00726 11.7345 4.36588 11.6633 4.42185C11.2028 4.20305 10.1494 4.78313 10.0171 4.04276ZM20.7436 2.40173L20.2627 2.65616C26.1043 2.41954 25.9313 11.047 20.6317 11.1157C17.6015 11.4337 14.9453 7.78787 17.4387 4.65338C16.4388 5.85171 16.3548 6.3173 16.2938 6.86176L16.2912 6.84141H16.2734C16.3599 5.58711 17.2097 4.72716 18.0544 4.17506C17.431 4.64065 17.1664 5.10879 17.1664 5.10879C21.6901 0.854843 25.6082 7.09838 21.9419 9.33476C16.7161 11.0852 17.5226 4.19796 20.8276 5.24109C23.2904 6.01708 21.6621 8.42647 20.9675 8.45445C18.4996 8.86662 19.3621 6.22825 20.049 6.27405C21.4229 5.88478 21.3644 8.30434 19.9727 7.53599C21.573 8.91496 22.0081 5.73976 20.3823 5.85171C18.8456 5.65071 18.4513 7.9914 19.6114 8.62746C23.7738 9.86904 23.1225 3.82905 19.7081 4.73988C15.3677 6.2715 18.5072 11.2964 21.4509 10.1515C25.1375 9.07016 24.392 4.2463 21.7206 3.48812C19.9549 2.95383 15.0751 3.33547 13.3272 3.22606C13.9251 3.60006 12.6326 4.51344 12.541 5.06808C12.4316 4.52108 11.1468 3.60261 11.7421 3.22606C9.95608 3.3431 5.23145 2.95638 3.43268 3.48812C0.761244 4.2463 0.0132407 9.07016 3.70492 10.1515C6.65113 11.2938 9.78308 6.26896 5.44517 4.73988C2.02827 3.82905 1.37949 9.86904 5.54185 8.63C6.70202 7.9914 6.30766 5.65071 4.7684 5.85171C3.14519 5.7423 3.58025 8.91496 5.17802 7.53599C3.78887 8.30434 3.73036 5.88478 5.10424 6.27405C5.78864 6.22825 6.65368 8.86662 4.18323 8.45445C3.49374 8.42392 1.86544 6.01708 4.32571 5.24109C7.63066 4.2005 8.43463 11.0852 3.21134 9.33476C-0.457441 7.09329 3.46576 0.857387 7.98685 5.10879C7.98685 5.10879 7.82656 4.82129 7.4602 4.47528C10.4039 7.33499 7.63575 11.5279 4.52161 11.1157C-0.778013 11.0445 -0.953566 2.41954 4.88798 2.65616C2.08933 1.71479 -0.195385 4.7755 0.013241 7.08057C-0.0122009 12.3827 8.62291 13.3979 8.87479 7.35789H12.1492C11.4546 7.06276 11.7625 6.55137 12.0271 6.48013C12.3527 6.30204 12.5207 5.50569 12.5207 5.50569C12.5207 5.50569 12.6733 6.30204 12.999 6.48013C13.2661 6.55137 13.5714 7.06276 12.8769 7.35789H16.2785C16.3192 10.238 18.6726 11.6042 20.7589 11.5381C26.3053 11.4083 26.7404 2.5264 20.7436 2.40173Z" fill="#AF862E"/>
<path fill-rule="evenodd" clip-rule="evenodd" d="M8.55112 15.9957C8.69105 15.1434 9.22025 15.0187 9.74691 15.3113C9.60952 14.3827 8.14404 14.4361 8.20002 15.4487L7.2612 42.046C7.2612 42.3971 7.22558 42.9416 7.26374 42.9035C7.87436 43.0968 8.33741 16.1229 8.55112 15.9957Z" fill="#AF862E"/>
<path fill-rule="evenodd" clip-rule="evenodd" d="M10.4524 42.8447C10.4371 42.7761 11.0121 16.0235 11.0121 16.0235C11.0096 15.4154 11.727 14.9727 12.2054 15.3391C9.08868 9.83084 10.5745 39.5118 10.1445 42.4682L10.4524 42.8447Z" fill="#AF862E"/>
<path fill-rule="evenodd" clip-rule="evenodd" d="M13.8792 42.7788C14.4975 42.4124 12.2484 13.2479 14.8053 15.3113C11.4597 9.30437 14.1184 43.397 13.4671 42.6134L13.8792 42.7788Z" fill="#AF862E"/>
<path fill-rule="evenodd" clip-rule="evenodd" d="M17.4689 43.0001C18.0592 42.5853 14.7873 12.8052 17.4511 15.3112C14.0037 9.4137 17.8785 43.7531 17.2069 42.9543L17.4689 43.0001Z" fill="#AF862E"/>
<path fill-rule="evenodd" clip-rule="evenodd" d="M21.6726 1.4095C17.0879 1.4095 8.02277 1.4095 3.42535 1.4095V0.320573C8.01768 0.320573 17.098 0.320573 21.6726 0.320573V1.4095ZM22.0923 0.00508849V0C17.3092 0 7.7887 0 2.99029 0V0.00508849H2.97248V1.4095H2.96484L2.97248 1.41459V1.41968H2.97756L3.71539 2.02266C3.6009 2.17023 3.50168 2.43991 4.08176 2.60275C4.08176 2.60275 4.04869 2.55695 4.02324 2.4908C4.20134 2.81646 20.7363 2.50098 21.0009 2.6002V2.60275C21.441 2.50861 21.4995 2.22366 21.2935 2.08118L22.1051 1.41968H22.1254V0.00508849H22.0923Z" fill="#AF862E"/>
<path fill-rule="evenodd" clip-rule="evenodd" d="M19.9094 11.8865C19.6525 11.5303 19.3014 11.6219 19.3014 11.6219C19.1945 11.571 19.2098 11.7135 19.2098 11.7135C21.2604 12.9983 12.75 12.2859 12.6787 12.4538C12.5795 12.2757 3.80192 13.0161 5.87292 11.7135C5.87292 11.7135 5.88819 11.571 5.78133 11.6219C5.02315 11.4209 4.54483 13.0136 6.26473 12.9576C4.92647 14.3696 12.4319 13.4461 12.6177 13.6929V14.0491H18.4567C18.7823 13.7895 19.3497 13.1586 18.8943 12.9576C20.1511 13.0339 20.0366 11.9119 19.9094 11.8865Z" fill="#AF862E"/>
<path fill-rule="evenodd" clip-rule="evenodd" d="M17.206 11.7392H8.26562V10.2457H17.206V11.7392Z" fill="#AF862E"/>
</svg>
