<svg width="24" height="23" viewBox="0 0 24 23" fill="none" xmlns="http://www.w3.org/2000/svg">
<path d="M1.97461 10.3763H22.0015V20.3897C22.0015 20.6312 21.9056 20.8627 21.7349 21.0334C21.5642 21.2041 21.3326 21.3 21.0912 21.3H2.88492C2.64349 21.3 2.41195 21.2041 2.24123 21.0334C2.07052 20.8627 1.97461 20.6312 1.97461 20.3897V10.3763Z" stroke="#828282" stroke-width="2" stroke-linecap="round" stroke-linejoin="round"/>
<path d="M1.9752 10.3763L21.3194 5.18747L20.3749 1.67139C20.3446 1.55567 20.2916 1.44716 20.2188 1.35221C20.1461 1.25726 20.0551 1.17779 19.9513 1.11844C19.8474 1.0591 19.7328 1.02107 19.614 1.0066C19.4953 0.992132 19.3749 1.0015 19.2598 1.03417L1.67935 5.74504C1.56341 5.77545 1.45462 5.82846 1.35922 5.90102C1.26382 5.97359 1.18369 6.06428 1.12342 6.16789C1.06316 6.2715 1.02395 6.38599 1.00805 6.50479C0.992145 6.62359 0.99986 6.74436 1.03075 6.86018L1.9752 10.3763Z" stroke="#828282" stroke-width="2" stroke-linecap="round" stroke-linejoin="round"/>
<path d="M12.2266 2.91169L17.8022 6.13193" stroke="#828282" stroke-width="2" stroke-linecap="round" stroke-linejoin="round"/>
<path d="M4.31836 5.03954L9.88265 8.25978" stroke="#828282" stroke-width="2" stroke-linecap="round" stroke-linejoin="round"/>
</svg>
