<svg width="49" height="49" viewBox="0 0 49 49" fill="none" xmlns="http://www.w3.org/2000/svg">
<circle cx="24.5" cy="24.5" r="24.5" fill="#F2F2F2"/>
<path d="M25 28.0131C27.7614 28.0131 30 25.7745 30 23.0131C30 20.2516 27.7614 18.0131 25 18.0131C22.2386 18.0131 20 20.2516 20 23.0131C20 25.7745 22.2386 28.0131 25 28.0131Z" stroke="#333333" stroke-width="1.5" stroke-linecap="round" stroke-linejoin="round"/>
<path d="M16.9751 32.9381C17.7275 31.4561 18.8755 30.2114 20.292 29.342C21.7085 28.4726 23.3381 28.0123 25.0001 28.0123C26.6621 28.0123 28.2917 28.4726 29.7082 29.342C31.1246 30.2114 32.2727 31.4561 33.0251 32.9381" stroke="#333333" stroke-width="1.5" stroke-linecap="round" stroke-linejoin="round"/>
<path d="M34 24.0131L37 27.0131L40 24.0131" stroke="#333333" stroke-width="1.5" stroke-linecap="round" stroke-linejoin="round"/>
<path d="M10 24.0131L13 21.0131L16 24.0131" stroke="#333333" stroke-width="1.5" stroke-linecap="round" stroke-linejoin="round"/>
<path d="M37.0001 27.0131V24.0131C37.0029 21.4204 36.166 18.8966 34.6146 16.8193C33.0631 14.7421 30.8807 13.2231 28.3939 12.4899C25.907 11.7567 23.2496 11.8486 20.8194 12.7518C18.3892 13.6551 16.3168 15.3211 14.9126 17.5006" stroke="#333333" stroke-width="1.5" stroke-linecap="round" stroke-linejoin="round"/>
<path d="M13 21.0131V24.0131C12.9972 26.6057 13.8341 29.1296 15.3855 31.2068C16.937 33.2841 19.1194 34.803 21.6062 35.5363C24.0931 36.2695 26.7505 36.1776 29.1807 35.2743C31.6109 34.3711 33.6833 32.705 35.0875 30.5256" stroke="#333333" stroke-width="1.5" stroke-linecap="round" stroke-linejoin="round"/>
</svg>
