<svg width="49" height="49" viewBox="0 0 49 49" fill="none" xmlns="http://www.w3.org/2000/svg">
<circle cx="24.5" cy="24.5" r="24.5" fill="#FFFAF1"/>
<path d="M27.3154 13.9189C28.9424 14.3556 30.4259 15.2125 31.617 16.4036C32.8081 17.5947 33.665 19.0782 34.1017 20.7052" stroke="#AF862E" stroke-width="1.5" stroke-linecap="round" stroke-linejoin="round"/>
<path d="M26.3208 17.6238C27.2993 17.8837 28.1917 18.3976 28.9076 19.1135C29.6235 19.8294 30.1375 20.7218 30.3973 21.7003" stroke="#AF862E" stroke-width="1.5" stroke-linecap="round" stroke-linejoin="round"/>
<path d="M19.2946 24.0863C20.2817 26.1246 21.9299 27.7685 23.9707 28.7503C24.1212 28.8216 24.2877 28.8525 24.4538 28.8398C24.6199 28.8272 24.7798 28.7716 24.9179 28.6784L27.9153 26.6761C28.0477 26.5863 28.2008 26.5315 28.3601 26.5168C28.5195 26.5021 28.6799 26.528 28.8265 26.5922L34.4378 29.0021C34.6295 29.0819 34.7898 29.2226 34.8938 29.4024C34.9977 29.5822 35.0397 29.7912 35.0133 29.9973C34.8354 31.3854 34.1579 32.6611 33.1074 33.5858C32.057 34.5105 30.7056 35.0207 29.3061 35.021C24.9815 35.021 20.8339 33.303 17.776 30.245C14.718 27.187 13 23.0395 13 18.7149C13.0003 17.3154 13.5105 15.964 14.4352 14.9136C15.3599 13.8631 16.6356 13.1856 18.0237 13.0077C18.2298 12.9813 18.4388 13.0233 18.6186 13.1272C18.7984 13.2312 18.9391 13.3915 19.0189 13.5832L21.4288 19.2064C21.4915 19.3507 21.5177 19.5082 21.5052 19.6651C21.4926 19.8219 21.4417 19.9732 21.3569 20.1057L19.3546 23.1511C19.2655 23.2888 19.2131 23.4471 19.2026 23.6109C19.1921 23.7746 19.2238 23.9383 19.2946 24.0863V24.0863Z" stroke="#AF862E" stroke-width="1.5" stroke-linecap="round" stroke-linejoin="round"/>
</svg>
