<svg width="15" height="15" viewBox="0 0 15 15" fill="none" xmlns="http://www.w3.org/2000/svg">
<path d="M7.5 14C11.0899 14 14 11.0899 14 7.5C14 3.91015 11.0899 1 7.5 1C3.91015 1 1 3.91015 1 7.5C1 11.0899 3.91015 14 7.5 14Z" stroke="#F2994A" stroke-linecap="round" stroke-linejoin="round"/>
<path d="M7.81445 11.0208C7.81445 11.1934 7.67454 11.3333 7.50195 11.3333C7.32936 11.3333 7.18945 11.1934 7.18945 11.0208C7.18945 10.8482 7.32936 10.7083 7.50195 10.7083C7.67454 10.7083 7.81445 10.8482 7.81445 11.0208Z" fill="#F2994A" stroke="#F2994A"/>
<path d="M7.49935 8.58333V8.04167C7.87431 8.04167 8.24085 7.93048 8.55262 7.72216C8.86439 7.51384 9.10738 7.21776 9.25087 6.87134C9.39436 6.52492 9.43191 6.14373 9.35875 5.77598C9.2856 5.40822 9.10504 5.07041 8.83991 4.80528C8.57477 4.54014 8.23696 4.35958 7.86921 4.28643C7.50145 4.21328 7.12026 4.25082 6.77385 4.39431C6.42743 4.5378 6.13134 4.7808 5.92302 5.09257C5.7147 5.40433 5.60352 5.77087 5.60352 6.14583" stroke="#F2994A" stroke-linecap="round" stroke-linejoin="round"/>
</svg>
