<svg width="20" height="4" viewBox="0 0 20 4" fill="none" xmlns="http://www.w3.org/2000/svg">
<path d="M10 3.5C10.8284 3.5 11.5 2.82843 11.5 2C11.5 1.17157 10.8284 0.5 10 0.5C9.17157 0.5 8.5 1.17157 8.5 2C8.5 2.82843 9.17157 3.5 10 3.5Z" fill="#828282"/>
<path d="M18 3.5C18.8284 3.5 19.5 2.82843 19.5 2C19.5 1.17157 18.8284 0.5 18 0.5C17.1716 0.5 16.5 1.17157 16.5 2C16.5 2.82843 17.1716 3.5 18 3.5Z" fill="#828282"/>
<path d="M2 3.5C2.82843 3.5 3.5 2.82843 3.5 2C3.5 1.17157 2.82843 0.5 2 0.5C1.17157 0.5 0.5 1.17157 0.5 2C0.5 2.82843 1.17157 3.5 2 3.5Z" fill="#828282"/>
</svg>
